<?xml version="1.0" encoding="UTF-8" standalone="no"?>
<!-- Created with Inkscape (http://www.inkscape.org/) -->

<svg
   width="2.6495035cm"
   height="1.4539453cm"
   viewBox="0 0 26.495035 14.539453"
   version="1.1"
   id="svg5"
   inkscape:version="1.1.1 (3bf5ae0d25, 2021-09-20)"
   sodipodi:docname="jalp2.svg"
   inkscape:export-filename="\\wsl$\Ubuntu\home\teje\projects\jalp\jalp2.png"
   inkscape:export-xdpi="96"
   inkscape:export-ydpi="96"
   xmlns:inkscape="http://www.inkscape.org/namespaces/inkscape"
   xmlns:sodipodi="http://sodipodi.sourceforge.net/DTD/sodipodi-0.dtd"
   xmlns="http://www.w3.org/2000/svg"
   xmlns:svg="http://www.w3.org/2000/svg">
  <sodipodi:namedview
     id="namedview7"
     pagecolor="#ffffff"
     bordercolor="#666666"
     borderopacity="1.0"
     inkscape:pageshadow="2"
     inkscape:pageopacity="0.0"
     inkscape:pagecheckerboard="0"
     inkscape:document-units="mm"
     showgrid="false"
     units="cm"
     height="2cm"
     inkscape:zoom="4.2514634"
     inkscape:cx="139.24617"
     inkscape:cy="100.90643"
     inkscape:window-width="2560"
     inkscape:window-height="1334"
     inkscape:window-x="-11"
     inkscape:window-y="-11"
     inkscape:window-maximized="1"
     inkscape:current-layer="layer1"
     fit-margin-top="0"
     fit-margin-left="0"
     fit-margin-right="0"
     fit-margin-bottom="0" />
  <defs
     id="defs2" />
  <g
     inkscape:label="Layer 1"
     inkscape:groupmode="layer"
     id="layer1"
     transform="translate(-2.3483208,-2.4233995)">
    <g
       aria-label="Jalp"
       id="text2296"
       style="font-size:14.849px;line-height:1.25;font-family:'Franklin Gothic Demi';-inkscape-font-specification:'Franklin Gothic Demi';stroke-width:0.371225">
      <path
         d="m 7.0103848,4.5935191 v 7.0619759 q 0,1.508101 -0.7250488,2.247651 -0.7177984,0.73955 -2.3709097,0.73955 -0.7250488,0 -1.5661055,-0.15226 v -1.92138 q 0.6887964,0.116008 1.1818296,0.116008 0.4350293,0 0.6815459,-0.15226 Q 4.4654634,12.373293 4.5814712,12.148528 4.697479,11.923763 4.697479,11.365475 V 4.5935191 Z"
         id="path117986" />
      <path
         d="m 15.188935,14.490436 h -2.095391 q -0.101506,-0.43503 -0.101506,-1.145578 -0.551038,0.783053 -1.102075,1.044071 -0.543786,0.253767 -1.239833,0.253767 -1.0295695,0 -1.6676125,-0.558288 -0.6307925,-0.558287 -0.6307925,-1.500851 0,-0.688796 0.3697749,-1.268835 0.3697749,-0.580039 1.1890801,-0.906311 0.819305,-0.333523 2.987201,-0.4930335 V 9.4948492 q 0,-1.0658218 -1.065822,-1.0658218 -1.138326,0 -1.268835,1.0658218 L 8.5692397,9.3063365 Q 8.7650028,8.0592525 9.7510692,7.5372173 10.737136,7.0151822 11.98422,7.0151822 q 0.7468,0 1.406594,0.1740117 0.659795,0.1740117 1.02957,0.5220352 0.369775,0.3480234 0.500283,0.7395498 0.130509,0.3842758 0.130509,1.3485908 v 3.3207233 q 0,0.957065 0.137759,1.370343 z m -2.291154,-3.509237 q -2.269403,0.224765 -2.269403,1.370343 0,0.384275 0.239266,0.667044 0.239267,0.275519 0.681546,0.275519 0.572789,0 0.957065,-0.471282 0.391526,-0.478532 0.391526,-1.174579 z"
         id="path117988" />
      <path
         d="M 16.834797,14.490436 V 4.5935191 h 2.160645 v 9.8969169 z"
         id="path117990" />
      <path
         d="M 20.77181,16.962852 V 7.1674424 h 1.986634 v 1.0730723 q 0.551037,-1.2253325 1.92863,-1.2253325 1.18908,0 1.943131,0.9570644 0.761301,0.949814 0.761301,2.7696864 0,1.935881 -0.768552,2.921947 -0.761301,0.978816 -1.986633,0.978816 -1.239834,0 -1.769119,-0.964315 v 3.284471 z m 2.095392,-5.677132 q 0,0.775802 0.09426,1.073072 0.09426,0.29727 0.398777,0.536536 0.30452,0.232016 0.659794,0.232016 0.44228,0 0.790303,-0.44953 0.348024,-0.456781 0.348024,-2.001135 0,-2.1678962 -1.145577,-2.1678962 -0.43503,0 -0.790304,0.3842759 -0.355273,0.3842758 -0.355273,1.3050883 z"
         id="path117992" />
    </g>
    <text
       xml:space="preserve"
       style="font-style:normal;font-weight:normal;font-size:1.41111px;line-height:1.25;font-family:sans-serif;fill:#000000;fill-opacity:1;stroke:none;stroke-width:0.264583"
       x="2.4298286"
       y="16.286129"
       id="text30205"><tspan
         sodipodi:role="line"
         id="tspan30203"
         style="font-style:normal;font-variant:normal;font-weight:normal;font-stretch:normal;font-size:1.41111px;font-family:'Leelawadee UI';-inkscape-font-specification:'Leelawadee UI';stroke-width:0.264583"
         x="2.4298286"
         y="16.286129">   Just        another    learning        platform</tspan></text>
    <g
       id="g59476"
       transform="matrix(0.26458333,0,0,0.26458333,8.0088997,0.36523251)">
      <line
         style="fill:none;stroke:#000000;stroke-width:2;stroke-miterlimit:10"
         x1="3"
         y1="13"
         x2="3"
         y2="24"
         id="line59459" />
      <circle
         cx="3"
         cy="24"
         r="2"
         id="circle59461" />
      <polygon
         style="fill:none;stroke:#000000;stroke-width:2;stroke-miterlimit:10"
         points="16,8.833 3.5,13 16,17.167 28.5,13 "
         id="polygon59463" />
      <path
         style="fill:none;stroke:#000000;stroke-width:2;stroke-miterlimit:10"
         d="M 7,14.451 V 20 c 0,1.657 4.029,3 9,3 4.971,0 9,-1.343 9,-3 v -5.549"
         id="path59465" />
    </g>
  </g>
</svg>
