<?xml version="1.0" encoding="UTF-8" standalone="no"?>
<!DOCTYPE svg PUBLIC "-//W3C//DTD SVG 1.1//EN"
 "http://www.w3.org/Graphics/SVG/1.1/DTD/svg11.dtd">
<!-- Generated by graphviz version 2.43.0 (0)
 -->
<!-- Title: dependency&#45;cruiser output Pages: 1 -->
<svg width="755pt" height="536pt"
 viewBox="0.00 0.00 755.00 536.00" xmlns="http://www.w3.org/2000/svg" xmlns:xlink="http://www.w3.org/1999/xlink">
<g id="graph0" class="graph" transform="scale(1 1) rotate(0) translate(4 532)">
<title>dependency&#45;cruiser output</title>
<polygon fill="white" stroke="transparent" points="-4,4 -4,-532 751,-532 751,4 -4,4"/>
<g id="clust1" class="cluster">
<title>cluster_node_modules</title>
<path fill="#ffffff" stroke="black" stroke-width="2" d="M650,-8C650,-8 727,-8 727,-8 733,-8 739,-14 739,-20 739,-20 739,-138 739,-138 739,-144 733,-150 727,-150 727,-150 650,-150 650,-150 644,-150 638,-144 638,-138 638,-138 638,-20 638,-20 638,-14 644,-8 650,-8"/>
<text text-anchor="middle" x="688.5" y="-138.8" font-family="Helvetica,sans-Serif" font-weight="bold" font-size="9.00">node_modules</text>
</g>
<g id="clust2" class="cluster">
<title>cluster_src</title>
<path fill="#ffffff" stroke="black" stroke-width="2" d="M20,-24C20,-24 618,-24 618,-24 624,-24 630,-30 630,-36 630,-36 630,-508 630,-508 630,-514 624,-520 618,-520 618,-520 20,-520 20,-520 14,-520 8,-514 8,-508 8,-508 8,-36 8,-36 8,-30 14,-24 20,-24"/>
<text text-anchor="middle" x="319" y="-508.8" font-family="Helvetica,sans-Serif" font-weight="bold" font-size="9.00">src</text>
</g>
<g id="clust3" class="cluster">
<title>cluster_src/adapter</title>
<path fill="#ffffff" stroke="black" stroke-width="2" d="M187,-32C187,-32 348,-32 348,-32 354,-32 360,-38 360,-44 360,-44 360,-234 360,-234 360,-240 354,-246 348,-246 348,-246 187,-246 187,-246 181,-246 175,-240 175,-234 175,-234 175,-44 175,-44 175,-38 181,-32 187,-32"/>
<text text-anchor="middle" x="267.5" y="-234.8" font-family="Helvetica,sans-Serif" font-weight="bold" font-size="9.00">adapter</text>
</g>
<g id="clust4" class="cluster">
<title>cluster_src/adapter/in</title>
<path fill="#ffffff" stroke="black" stroke-width="2" d="M208.5,-40C208.5,-40 326.5,-40 326.5,-40 332.5,-40 338.5,-46 338.5,-52 338.5,-52 338.5,-114 338.5,-114 338.5,-120 332.5,-126 326.5,-126 326.5,-126 208.5,-126 208.5,-126 202.5,-126 196.5,-120 196.5,-114 196.5,-114 196.5,-52 196.5,-52 196.5,-46 202.5,-40 208.5,-40"/>
<text text-anchor="middle" x="267.5" y="-114.8" font-family="Helvetica,sans-Serif" font-weight="bold" font-size="9.00">in</text>
</g>
<g id="clust5" class="cluster">
<title>cluster_src/adapter/in/web</title>
<path fill="#ffffff" stroke="black" stroke-width="2" d="M216.5,-48C216.5,-48 318.5,-48 318.5,-48 324.5,-48 330.5,-54 330.5,-60 330.5,-60 330.5,-88 330.5,-88 330.5,-94 324.5,-100 318.5,-100 318.5,-100 216.5,-100 216.5,-100 210.5,-100 204.5,-94 204.5,-88 204.5,-88 204.5,-60 204.5,-60 204.5,-54 210.5,-48 216.5,-48"/>
<text text-anchor="middle" x="267.5" y="-88.8" font-family="Helvetica,sans-Serif" font-weight="bold" font-size="9.00">web</text>
</g>
<g id="clust6" class="cluster">
<title>cluster_src/adapter/out</title>
<path fill="#ffffff" stroke="black" stroke-width="2" d="M195,-134C195,-134 340,-134 340,-134 346,-134 352,-140 352,-146 352,-146 352,-208 352,-208 352,-214 346,-220 340,-220 340,-220 195,-220 195,-220 189,-220 183,-214 183,-208 183,-208 183,-146 183,-146 183,-140 189,-134 195,-134"/>
<text text-anchor="middle" x="267.5" y="-208.8" font-family="Helvetica,sans-Serif" font-weight="bold" font-size="9.00">out</text>
</g>
<g id="clust7" class="cluster">
<title>cluster_src/adapter/out/persistence</title>
<path fill="#ffffff" stroke="black" stroke-width="2" d="M203,-142C203,-142 332,-142 332,-142 338,-142 344,-148 344,-154 344,-154 344,-182 344,-182 344,-188 338,-194 332,-194 332,-194 203,-194 203,-194 197,-194 191,-188 191,-182 191,-182 191,-154 191,-154 191,-148 197,-142 203,-142"/>
<text text-anchor="middle" x="267.5" y="-182.8" font-family="Helvetica,sans-Serif" font-weight="bold" font-size="9.00">persistence</text>
</g>
<g id="clust8" class="cluster">
<title>cluster_src/application</title>
<path fill="#ffffff" stroke="black" stroke-width="2" d="M207.5,-254C207.5,-254 516,-254 516,-254 522,-254 528,-260 528,-266 528,-266 528,-482 528,-482 528,-488 522,-494 516,-494 516,-494 207.5,-494 207.5,-494 201.5,-494 195.5,-488 195.5,-482 195.5,-482 195.5,-266 195.5,-266 195.5,-260 201.5,-254 207.5,-254"/>
<text text-anchor="middle" x="361.75" y="-482.8" font-family="Helvetica,sans-Serif" font-weight="bold" font-size="9.00">application</text>
</g>
<g id="clust9" class="cluster">
<title>cluster_src/application/port</title>
<path fill="#ffffff" stroke="black" stroke-width="2" d="M380,-262C380,-262 508,-262 508,-262 514,-262 520,-268 520,-274 520,-274 520,-456 520,-456 520,-462 514,-468 508,-468 508,-468 380,-468 380,-468 374,-468 368,-462 368,-456 368,-456 368,-274 368,-274 368,-268 374,-262 380,-262"/>
<text text-anchor="middle" x="444" y="-456.8" font-family="Helvetica,sans-Serif" font-weight="bold" font-size="9.00">port</text>
</g>
<g id="clust10" class="cluster">
<title>cluster_src/application/port/in</title>
<path fill="#ffffff" stroke="black" stroke-width="2" d="M388,-270C388,-270 500,-270 500,-270 506,-270 512,-276 512,-282 512,-282 512,-340 512,-340 512,-346 506,-352 500,-352 500,-352 388,-352 388,-352 382,-352 376,-346 376,-340 376,-340 376,-282 376,-282 376,-276 382,-270 388,-270"/>
<text text-anchor="middle" x="444" y="-340.8" font-family="Helvetica,sans-Serif" font-weight="bold" font-size="9.00">in</text>
</g>
<g id="clust11" class="cluster">
<title>cluster_src/application/port/out</title>
<path fill="#ffffff" stroke="black" stroke-width="2" d="M390,-360C390,-360 498,-360 498,-360 504,-360 510,-366 510,-372 510,-372 510,-430 510,-430 510,-436 504,-442 498,-442 498,-442 390,-442 390,-442 384,-442 378,-436 378,-430 378,-430 378,-372 378,-372 378,-366 384,-360 390,-360"/>
<text text-anchor="middle" x="444" y="-430.8" font-family="Helvetica,sans-Serif" font-weight="bold" font-size="9.00">out</text>
</g>
<g id="clust12" class="cluster">
<title>cluster_src/application/service</title>
<path fill="#ffffff" stroke="black" stroke-width="2" d="M215.5,-266C215.5,-266 319.5,-266 319.5,-266 325.5,-266 331.5,-272 331.5,-278 331.5,-278 331.5,-336 331.5,-336 331.5,-342 325.5,-348 319.5,-348 319.5,-348 215.5,-348 215.5,-348 209.5,-348 203.5,-342 203.5,-336 203.5,-336 203.5,-278 203.5,-278 203.5,-272 209.5,-266 215.5,-266"/>
<text text-anchor="middle" x="267.5" y="-336.8" font-family="Helvetica,sans-Serif" font-weight="bold" font-size="9.00">service</text>
</g>
<g id="clust13" class="cluster">
<title>cluster_src/domain</title>
<path fill="#ffffff" stroke="black" stroke-width="2" d="M548,-262C548,-262 610,-262 610,-262 616,-262 622,-268 622,-274 622,-274 622,-336 622,-336 622,-342 616,-348 610,-348 610,-348 548,-348 548,-348 542,-348 536,-342 536,-336 536,-336 536,-274 536,-274 536,-268 542,-262 548,-262"/>
<text text-anchor="middle" x="579" y="-336.8" font-family="Helvetica,sans-Serif" font-weight="bold" font-size="9.00">domain</text>
</g>
<g id="clust14" class="cluster">
<title>cluster_src/domain/generated</title>
<path fill="#ffffff" stroke="black" stroke-width="2" d="M556,-270C556,-270 602,-270 602,-270 608,-270 614,-276 614,-282 614,-282 614,-310 614,-310 614,-316 608,-322 602,-322 602,-322 556,-322 556,-322 550,-322 544,-316 544,-310 544,-310 544,-282 544,-282 544,-276 550,-270 556,-270"/>
<text text-anchor="middle" x="579" y="-310.8" font-family="Helvetica,sans-Serif" font-weight="bold" font-size="9.00">generated</text>
</g>
<!-- node_modules/@graphql&#45;tools -->
<g id="node1" class="node">
<title>node_modules/@graphql&#45;tools</title>
<g id="a_node1"><a xlink:href="node_modules/@graphql-tools" xlink:title="@graphql&#45;tools">
<polygon fill="#c40b0a" fill-opacity="0.101961" stroke="black" points="731,-94 648,-94 646,-92 646,-76 729,-76 731,-78 731,-94"/>
<polyline fill="none" stroke="black" points="729,-92 646,-92 "/>
<polyline fill="none" stroke="black" points="729,-92 729,-76 "/>
<polyline fill="none" stroke="black" points="729,-92 731,-94 "/>
<text text-anchor="start" x="654" y="-82.8" font-family="Helvetica,sans-Serif" font-size="9.00" fill="#c40b0a">@graphql&#45;tools</text>
</a>
</g>
</g>
<!-- node_modules/apollo&#45;server -->
<g id="node2" class="node">
<title>node_modules/apollo&#45;server</title>
<g id="a_node2"><a xlink:href="node_modules/apollo-server" xlink:title="apollo&#45;server">
<polygon fill="#c40b0a" fill-opacity="0.101961" stroke="black" points="725.5,-64 653.5,-64 651.5,-62 651.5,-46 723.5,-46 725.5,-48 725.5,-64"/>
<polyline fill="none" stroke="black" points="723.5,-62 651.5,-62 "/>
<polyline fill="none" stroke="black" points="723.5,-62 723.5,-46 "/>
<polyline fill="none" stroke="black" points="723.5,-62 725.5,-64 "/>
<text text-anchor="start" x="659.5" y="-52.8" font-family="Helvetica,sans-Serif" font-size="9.00" fill="#c40b0a">apollo&#45;server</text>
</a>
</g>
</g>
<!-- node_modules/graphql -->
<g id="node3" class="node">
<title>node_modules/graphql</title>
<g id="a_node3"><a xlink:href="node_modules/graphql" xlink:title="graphql">
<polygon fill="#c40b0a" fill-opacity="0.101961" stroke="black" points="715.5,-124 663.5,-124 661.5,-122 661.5,-106 713.5,-106 715.5,-108 715.5,-124"/>
<polyline fill="none" stroke="black" points="713.5,-122 661.5,-122 "/>
<polyline fill="none" stroke="black" points="713.5,-122 713.5,-106 "/>
<polyline fill="none" stroke="black" points="713.5,-122 715.5,-124 "/>
<text text-anchor="start" x="670.5" y="-112.8" font-family="Helvetica,sans-Serif" font-size="9.00" fill="#c40b0a">graphql</text>
</a>
</g>
</g>
<!-- node_modules/yargs -->
<g id="node4" class="node">
<title>node_modules/yargs</title>
<g id="a_node4"><a xlink:href="node_modules/yargs" xlink:title="yargs">
<polygon fill="#c40b0a" fill-opacity="0.101961" stroke="black" points="715.5,-34 663.5,-34 661.5,-32 661.5,-16 713.5,-16 715.5,-18 715.5,-34"/>
<polyline fill="none" stroke="black" points="713.5,-32 661.5,-32 "/>
<polyline fill="none" stroke="black" points="713.5,-32 713.5,-16 "/>
<polyline fill="none" stroke="black" points="713.5,-32 715.5,-34 "/>
<text text-anchor="start" x="676" y="-22.8" font-family="Helvetica,sans-Serif" font-size="9.00" fill="#c40b0a">yargs</text>
</a>
</g>
</g>
<!-- src/adapter/in/web/GraphQLController.ts -->
<g id="node5" class="node">
<title>src/adapter/in/web/GraphQLController.ts</title>
<g id="a_node5"><a xlink:href="src/adapter/in/web/GraphQLController.ts" xlink:title="GraphQLController.ts">
<path fill="#ddfeff" stroke="black" d="M316.5,-74C316.5,-74 218.5,-74 218.5,-74 215.5,-74 212.5,-71 212.5,-68 212.5,-68 212.5,-62 212.5,-62 212.5,-59 215.5,-56 218.5,-56 218.5,-56 316.5,-56 316.5,-56 319.5,-56 322.5,-59 322.5,-62 322.5,-62 322.5,-68 322.5,-68 322.5,-71 319.5,-74 316.5,-74"/>
<text text-anchor="start" x="220.5" y="-62.8" font-family="Helvetica,sans-Serif" font-size="9.00">GraphQLController.ts</text>
</a>
</g>
</g>
<!-- src/adapter/in/web/GraphQLController.ts&#45;&gt;node_modules/@graphql&#45;tools -->
<g id="edge4" class="edge">
<title>src/adapter/in/web/GraphQLController.ts&#45;&gt;node_modules/@graphql&#45;tools</title>
<path fill="none" stroke="#000000" stroke-opacity="0.200000" d="M322.72,-67.76C337.41,-68.5 353.32,-69.29 368,-70 464.39,-74.68 577.14,-79.92 639.63,-82.8"/>
<polygon fill="#000000" fill-opacity="0.200000" stroke="#000000" stroke-opacity="0.200000" points="639.79,-84.91 645.89,-83.09 639.99,-80.72 639.79,-84.91"/>
</g>
<!-- src/adapter/in/web/GraphQLController.ts&#45;&gt;node_modules/apollo&#45;server -->
<g id="edge5" class="edge">
<title>src/adapter/in/web/GraphQLController.ts&#45;&gt;node_modules/apollo&#45;server</title>
<path fill="none" stroke="#000000" stroke-opacity="0.200000" d="M322.85,-63.7C407.38,-61.69 568.59,-57.84 645.13,-56.01"/>
<polygon fill="#000000" fill-opacity="0.200000" stroke="#000000" stroke-opacity="0.200000" points="645.43,-58.1 651.38,-55.86 645.33,-53.91 645.43,-58.1"/>
</g>
<!-- src/application/port/in/GetCheatsheetQuery.ts -->
<g id="node6" class="node">
<title>src/application/port/in/GetCheatsheetQuery.ts</title>
<g id="a_node6"><a xlink:href="src/application/port/in/GetCheatsheetQuery.ts" xlink:title="GetCheatsheetQuery.ts">
<path fill="#ddfeff" stroke="black" d="M498,-326C498,-326 390,-326 390,-326 387,-326 384,-323 384,-320 384,-320 384,-314 384,-314 384,-311 387,-308 390,-308 390,-308 498,-308 498,-308 501,-308 504,-311 504,-314 504,-314 504,-320 504,-320 504,-323 501,-326 498,-326"/>
<text text-anchor="start" x="392" y="-314.8" font-family="Helvetica,sans-Serif" font-size="9.00">GetCheatsheetQuery.ts</text>
</a>
</g>
</g>
<!-- src/adapter/in/web/GraphQLController.ts&#45;&gt;src/application/port/in/GetCheatsheetQuery.ts -->
<g id="edge1" class="edge">
<title>src/adapter/in/web/GraphQLController.ts&#45;&gt;src/application/port/in/GetCheatsheetQuery.ts</title>
<path fill="none" stroke="#000000" stroke-width="2" stroke-opacity="0.200000" d="M287.6,-74.16C309.5,-85.83 344.37,-108.21 360,-139 368.21,-155.17 356.16,-288.26 368,-302 370.98,-305.46 374.51,-308.26 378.39,-310.51"/>
<polygon fill="#000000" fill-opacity="0.200000" stroke="#000000" stroke-width="2" stroke-opacity="0.200000" points="377.58,-312.45 383.88,-313.26 379.46,-308.7 377.58,-312.45"/>
</g>
<!-- src/application/port/in/GetFlashcardsQuery.ts -->
<g id="node7" class="node">
<title>src/application/port/in/GetFlashcardsQuery.ts</title>
<g id="a_node7"><a xlink:href="src/application/port/in/GetFlashcardsQuery.ts" xlink:title="GetFlashcardsQuery.ts">
<path fill="#ddfeff" stroke="black" d="M496.5,-296C496.5,-296 391.5,-296 391.5,-296 388.5,-296 385.5,-293 385.5,-290 385.5,-290 385.5,-284 385.5,-284 385.5,-281 388.5,-278 391.5,-278 391.5,-278 496.5,-278 496.5,-278 499.5,-278 502.5,-281 502.5,-284 502.5,-284 502.5,-290 502.5,-290 502.5,-293 499.5,-296 496.5,-296"/>
<text text-anchor="start" x="393.5" y="-284.8" font-family="Helvetica,sans-Serif" font-size="9.00">GetFlashcardsQuery.ts</text>
</a>
</g>
</g>
<!-- src/adapter/in/web/GraphQLController.ts&#45;&gt;src/application/port/in/GetFlashcardsQuery.ts -->
<g id="edge2" class="edge">
<title>src/adapter/in/web/GraphQLController.ts&#45;&gt;src/application/port/in/GetFlashcardsQuery.ts</title>
<path fill="none" stroke="#000000" stroke-width="2" stroke-opacity="0.200000" d="M285.64,-74.01C306.61,-85.96 341.58,-109.08 360,-139 368.82,-153.33 361.39,-160.53 368,-176 384.33,-214.25 414.45,-253.23 431.12,-273.25"/>
<polygon fill="#000000" fill-opacity="0.200000" stroke="#000000" stroke-width="2" stroke-opacity="0.200000" points="429.58,-274.69 435.05,-277.92 432.79,-271.98 429.58,-274.69"/>
</g>
<!-- src/domain/generated/core.ts -->
<g id="node8" class="node">
<title>src/domain/generated/core.ts</title>
<g id="a_node8"><a xlink:href="src/domain/generated/core.ts" xlink:title="core.ts">
<path fill="#ddfeff" stroke="black" d="M600,-296C600,-296 558,-296 558,-296 555,-296 552,-293 552,-290 552,-290 552,-284 552,-284 552,-281 555,-278 558,-278 558,-278 600,-278 600,-278 603,-278 606,-281 606,-284 606,-284 606,-290 606,-290 606,-293 603,-296 600,-296"/>
<text text-anchor="start" x="563.5" y="-284.8" font-family="Helvetica,sans-Serif" font-size="9.00">core.ts</text>
</a>
</g>
</g>
<!-- src/adapter/in/web/GraphQLController.ts&#45;&gt;src/domain/generated/core.ts -->
<g id="edge3" class="edge">
<title>src/adapter/in/web/GraphQLController.ts&#45;&gt;src/domain/generated/core.ts</title>
<path fill="none" stroke="#000000" stroke-width="2" stroke-opacity="0.200000" d="M299.22,-74.03C351.71,-90.77 459.59,-131.05 528,-197 550.53,-218.72 565.62,-252.82 572.92,-272.21"/>
<polygon fill="#000000" fill-opacity="0.200000" stroke="#000000" stroke-width="2" stroke-opacity="0.200000" points="570.99,-273.04 575.02,-277.96 574.93,-271.6 570.99,-273.04"/>
</g>
<!-- src/application/port/in/GetCheatsheetQuery.ts&#45;&gt;src/domain/generated/core.ts -->
<g id="edge9" class="edge">
<title>src/application/port/in/GetCheatsheetQuery.ts&#45;&gt;src/domain/generated/core.ts</title>
<path fill="none" stroke="#000000" stroke-width="2" stroke-opacity="0.200000" d="M500.1,-307.94C509.45,-306.15 519.03,-304.15 528,-302 533.88,-300.59 540.1,-298.9 546.07,-297.16"/>
<polygon fill="#000000" fill-opacity="0.200000" stroke="#000000" stroke-width="2" stroke-opacity="0.200000" points="546.79,-299.14 551.94,-295.42 545.59,-295.11 546.79,-299.14"/>
</g>
<!-- src/application/port/in/GetFlashcardsQuery.ts&#45;&gt;src/domain/generated/core.ts -->
<g id="edge10" class="edge">
<title>src/application/port/in/GetFlashcardsQuery.ts&#45;&gt;src/domain/generated/core.ts</title>
<path fill="none" stroke="#000000" stroke-width="2" stroke-opacity="0.200000" d="M502.56,-287C517.28,-287 532.6,-287 545.55,-287"/>
<polygon fill="#000000" fill-opacity="0.200000" stroke="#000000" stroke-width="2" stroke-opacity="0.200000" points="545.71,-289.1 551.71,-287 545.71,-284.9 545.71,-289.1"/>
</g>
<!-- src/domain/generated/core.ts&#45;&gt;node_modules/graphql -->
<g id="edge25" class="edge">
<title>src/domain/generated/core.ts&#45;&gt;node_modules/graphql</title>
<path fill="none" stroke="#000000" stroke-opacity="0.200000" d="M585.78,-277.75C603.42,-249.52 656.7,-164.28 678.28,-129.75"/>
<polygon fill="#000000" fill-opacity="0.200000" stroke="#000000" stroke-opacity="0.200000" points="680.29,-130.49 681.69,-124.29 676.73,-128.27 680.29,-130.49"/>
</g>
<!-- src/adapter/out/persistence/MockPersistenceAdapter.ts -->
<g id="node9" class="node">
<title>src/adapter/out/persistence/MockPersistenceAdapter.ts</title>
<g id="a_node9"><a xlink:href="src/adapter/out/persistence/MockPersistenceAdapter.ts" xlink:title="MockPersistenceAdapter.ts">
<path fill="#ddfeff" stroke="black" d="M330,-168C330,-168 205,-168 205,-168 202,-168 199,-165 199,-162 199,-162 199,-156 199,-156 199,-153 202,-150 205,-150 205,-150 330,-150 330,-150 333,-150 336,-153 336,-156 336,-156 336,-162 336,-162 336,-165 333,-168 330,-168"/>
<text text-anchor="start" x="207" y="-156.8" font-family="Helvetica,sans-Serif" font-size="9.00">MockPersistenceAdapter.ts</text>
</a>
</g>
</g>
<!-- src/adapter/out/persistence/MockPersistenceAdapter.ts&#45;&gt;src/domain/generated/core.ts -->
<g id="edge8" class="edge">
<title>src/adapter/out/persistence/MockPersistenceAdapter.ts&#45;&gt;src/domain/generated/core.ts</title>
<path fill="none" stroke="#000000" stroke-width="2" stroke-opacity="0.200000" d="M290.26,-168C345.18,-190.71 489.33,-250.33 550.22,-275.51"/>
<polygon fill="#000000" fill-opacity="0.200000" stroke="#000000" stroke-width="2" stroke-opacity="0.200000" points="549.5,-277.49 555.85,-277.84 551.1,-273.6 549.5,-277.49"/>
</g>
<!-- src/application/port/out/loadCheatsheetPort.ts -->
<g id="node10" class="node">
<title>src/application/port/out/loadCheatsheetPort.ts</title>
<g id="a_node10"><a xlink:href="src/application/port/out/loadCheatsheetPort.ts" xlink:title="loadCheatsheetPort.ts">
<path fill="#ddfeff" stroke="black" d="M496,-416C496,-416 392,-416 392,-416 389,-416 386,-413 386,-410 386,-410 386,-404 386,-404 386,-401 389,-398 392,-398 392,-398 496,-398 496,-398 499,-398 502,-401 502,-404 502,-404 502,-410 502,-410 502,-413 499,-416 496,-416"/>
<text text-anchor="start" x="394" y="-404.8" font-family="Helvetica,sans-Serif" font-size="9.00">loadCheatsheetPort.ts</text>
</a>
</g>
</g>
<!-- src/adapter/out/persistence/MockPersistenceAdapter.ts&#45;&gt;src/application/port/out/loadCheatsheetPort.ts -->
<g id="edge6" class="edge">
<title>src/adapter/out/persistence/MockPersistenceAdapter.ts&#45;&gt;src/application/port/out/loadCheatsheetPort.ts</title>
<path fill="none" stroke="#000000" stroke-width="2" stroke-opacity="0.200000" d="M280.46,-168.01C301.04,-184.32 342.65,-220.99 360,-263 365.48,-276.27 358.56,-381.18 368,-392 371.45,-395.95 375.63,-399.05 380.22,-401.44"/>
<polygon fill="#000000" fill-opacity="0.200000" stroke="#000000" stroke-width="2" stroke-opacity="0.200000" points="379.45,-403.4 385.78,-403.95 381.17,-399.57 379.45,-403.4"/>
</g>
<!-- src/application/port/out/loadFlashcardPort.ts -->
<g id="node11" class="node">
<title>src/application/port/out/loadFlashcardPort.ts</title>
<g id="a_node11"><a xlink:href="src/application/port/out/loadFlashcardPort.ts" xlink:title="loadFlashcardPort.ts">
<path fill="#ddfeff" stroke="black" d="M492,-386C492,-386 396,-386 396,-386 393,-386 390,-383 390,-380 390,-380 390,-374 390,-374 390,-371 393,-368 396,-368 396,-368 492,-368 492,-368 495,-368 498,-371 498,-374 498,-374 498,-380 498,-380 498,-383 495,-386 492,-386"/>
<text text-anchor="start" x="398" y="-374.8" font-family="Helvetica,sans-Serif" font-size="9.00">loadFlashcardPort.ts</text>
</a>
</g>
</g>
<!-- src/adapter/out/persistence/MockPersistenceAdapter.ts&#45;&gt;src/application/port/out/loadFlashcardPort.ts -->
<g id="edge7" class="edge">
<title>src/adapter/out/persistence/MockPersistenceAdapter.ts&#45;&gt;src/application/port/out/loadFlashcardPort.ts</title>
<path fill="none" stroke="#000000" stroke-width="2" stroke-opacity="0.200000" d="M280.35,-168.05C300.77,-184.44 342.13,-221.21 360,-263 368.07,-281.87 355,-339.12 368,-355 372.34,-360.31 377.9,-364.37 384.01,-367.49"/>
<polygon fill="#000000" fill-opacity="0.200000" stroke="#000000" stroke-width="2" stroke-opacity="0.200000" points="383.43,-369.53 389.76,-370.08 385.16,-365.7 383.43,-369.53"/>
</g>
<!-- src/application/port/out/loadCheatsheetPort.ts&#45;&gt;src/domain/generated/core.ts -->
<g id="edge11" class="edge">
<title>src/application/port/out/loadCheatsheetPort.ts&#45;&gt;src/domain/generated/core.ts</title>
<path fill="none" stroke="#000000" stroke-width="2" stroke-opacity="0.200000" d="M502.04,-404.06C511.36,-401.59 520.44,-397.78 528,-392 557.47,-369.47 570.39,-325.2 575.34,-302"/>
<polygon fill="#000000" fill-opacity="0.200000" stroke="#000000" stroke-width="2" stroke-opacity="0.200000" points="577.41,-302.34 576.53,-296.04 573.3,-301.52 577.41,-302.34"/>
</g>
<!-- src/application/port/out/loadFlashcardPort.ts&#45;&gt;src/domain/generated/core.ts -->
<g id="edge12" class="edge">
<title>src/application/port/out/loadFlashcardPort.ts&#45;&gt;src/domain/generated/core.ts</title>
<path fill="none" stroke="#000000" stroke-width="2" stroke-opacity="0.200000" d="M498.25,-368.61C508.68,-365.43 519.13,-361.04 528,-355 547.89,-341.45 562.83,-317.31 570.99,-301.74"/>
<polygon fill="#000000" fill-opacity="0.200000" stroke="#000000" stroke-width="2" stroke-opacity="0.200000" points="573.05,-302.33 573.88,-296.03 569.3,-300.44 573.05,-302.33"/>
</g>
<!-- src/application/service/CheatsheetService.ts -->
<g id="node12" class="node">
<title>src/application/service/CheatsheetService.ts</title>
<g id="a_node12"><a xlink:href="src/application/service/CheatsheetService.ts" xlink:title="CheatsheetService.ts">
<path fill="#ddfeff" stroke="black" d="M317.5,-322C317.5,-322 217.5,-322 217.5,-322 214.5,-322 211.5,-319 211.5,-316 211.5,-316 211.5,-310 211.5,-310 211.5,-307 214.5,-304 217.5,-304 217.5,-304 317.5,-304 317.5,-304 320.5,-304 323.5,-307 323.5,-310 323.5,-310 323.5,-316 323.5,-316 323.5,-319 320.5,-322 317.5,-322"/>
<text text-anchor="start" x="219.5" y="-310.8" font-family="Helvetica,sans-Serif" font-size="9.00">CheatsheetService.ts</text>
</a>
</g>
</g>
<!-- src/application/service/CheatsheetService.ts&#45;&gt;src/application/port/in/GetCheatsheetQuery.ts -->
<g id="edge13" class="edge">
<title>src/application/service/CheatsheetService.ts&#45;&gt;src/application/port/in/GetCheatsheetQuery.ts</title>
<path fill="none" stroke="#000000" stroke-width="2" stroke-opacity="0.200000" d="M323.71,-314.27C340.79,-314.66 359.76,-315.09 377.46,-315.5"/>
<polygon fill="#000000" fill-opacity="0.200000" stroke="#000000" stroke-width="2" stroke-opacity="0.200000" points="377.88,-317.61 383.92,-315.65 377.97,-313.41 377.88,-317.61"/>
</g>
<!-- src/application/service/CheatsheetService.ts&#45;&gt;src/application/port/out/loadCheatsheetPort.ts -->
<g id="edge14" class="edge">
<title>src/application/service/CheatsheetService.ts&#45;&gt;src/application/port/out/loadCheatsheetPort.ts</title>
<path fill="none" stroke="#000000" stroke-width="2" stroke-opacity="0.200000" d="M276.84,-322C292.82,-338.65 329.58,-374.18 368,-392 371.89,-393.81 376,-395.39 380.2,-396.79"/>
<polygon fill="#000000" fill-opacity="0.200000" stroke="#000000" stroke-width="2" stroke-opacity="0.200000" points="379.62,-398.81 385.98,-398.58 380.87,-394.8 379.62,-398.81"/>
</g>
<!-- src/application/service/FlashcardService.ts -->
<g id="node13" class="node">
<title>src/application/service/FlashcardService.ts</title>
<g id="a_node13"><a xlink:href="src/application/service/FlashcardService.ts" xlink:title="FlashcardService.ts">
<path fill="#ddfeff" stroke="black" d="M313.5,-292C313.5,-292 221.5,-292 221.5,-292 218.5,-292 215.5,-289 215.5,-286 215.5,-286 215.5,-280 215.5,-280 215.5,-277 218.5,-274 221.5,-274 221.5,-274 313.5,-274 313.5,-274 316.5,-274 319.5,-277 319.5,-280 319.5,-280 319.5,-286 319.5,-286 319.5,-289 316.5,-292 313.5,-292"/>
<text text-anchor="start" x="223.5" y="-280.8" font-family="Helvetica,sans-Serif" font-size="9.00">FlashcardService.ts</text>
</a>
</g>
</g>
<!-- src/application/service/FlashcardService.ts&#45;&gt;src/application/port/in/GetFlashcardsQuery.ts -->
<g id="edge15" class="edge">
<title>src/application/service/FlashcardService.ts&#45;&gt;src/application/port/in/GetFlashcardsQuery.ts</title>
<path fill="none" stroke="#000000" stroke-width="2" stroke-opacity="0.200000" d="M319.91,-284.18C338.42,-284.6 359.53,-285.09 378.98,-285.53"/>
<polygon fill="#000000" fill-opacity="0.200000" stroke="#000000" stroke-width="2" stroke-opacity="0.200000" points="379.18,-287.64 385.23,-285.68 379.28,-283.44 379.18,-287.64"/>
</g>
<!-- src/application/service/FlashcardService.ts&#45;&gt;src/application/port/out/loadFlashcardPort.ts -->
<g id="edge16" class="edge">
<title>src/application/service/FlashcardService.ts&#45;&gt;src/application/port/out/loadFlashcardPort.ts</title>
<path fill="none" stroke="#000000" stroke-width="2" stroke-opacity="0.200000" d="M319.82,-280.48C334.6,-282.39 349.54,-287.29 360,-298 377.88,-316.3 351.28,-335.64 368,-355 372.41,-360.11 377.95,-364.07 384,-367.12"/>
<polygon fill="#000000" fill-opacity="0.200000" stroke="#000000" stroke-width="2" stroke-opacity="0.200000" points="383.35,-369.13 389.68,-369.68 385.07,-365.3 383.35,-369.13"/>
</g>
<!-- src/config.mock.ts -->
<g id="node14" class="node">
<title>src/config.mock.ts</title>
<g id="a_node14"><a xlink:href="src/config.mock.ts" xlink:title="config.mock.ts">
<path fill="#ddfeff" stroke="black" d="M161,-153C161,-153 89,-153 89,-153 86,-153 83,-150 83,-147 83,-147 83,-141 83,-141 83,-138 86,-135 89,-135 89,-135 161,-135 161,-135 164,-135 167,-138 167,-141 167,-141 167,-147 167,-147 167,-150 164,-153 161,-153"/>
<text text-anchor="start" x="91" y="-141.8" font-family="Helvetica,sans-Serif" font-size="9.00">config.mock.ts</text>
</a>
</g>
</g>
<!-- src/config.mock.ts&#45;&gt;src/adapter/in/web/GraphQLController.ts -->
<g id="edge17" class="edge">
<title>src/config.mock.ts&#45;&gt;src/adapter/in/web/GraphQLController.ts</title>
<path fill="none" stroke="#000000" stroke-width="2" stroke-opacity="0.200000" d="M142.12,-134.94C167.39,-120.73 216.38,-93.18 244.75,-77.23"/>
<polygon fill="#000000" fill-opacity="0.200000" stroke="#000000" stroke-width="2" stroke-opacity="0.200000" points="245.94,-78.97 250.14,-74.2 243.88,-75.31 245.94,-78.97"/>
</g>
<!-- src/config.mock.ts&#45;&gt;src/adapter/out/persistence/MockPersistenceAdapter.ts -->
<g id="edge18" class="edge">
<title>src/config.mock.ts&#45;&gt;src/adapter/out/persistence/MockPersistenceAdapter.ts</title>
<path fill="none" stroke="#000000" stroke-width="2" stroke-opacity="0.200000" d="M167.02,-148.38C175.18,-149.25 183.98,-150.19 192.85,-151.14"/>
<polygon fill="#000000" fill-opacity="0.200000" stroke="#000000" stroke-width="2" stroke-opacity="0.200000" points="192.81,-153.24 199,-151.79 193.26,-149.07 192.81,-153.24"/>
</g>
<!-- src/config.mock.ts&#45;&gt;src/application/service/CheatsheetService.ts -->
<g id="edge19" class="edge">
<title>src/config.mock.ts&#45;&gt;src/application/service/CheatsheetService.ts</title>
<path fill="none" stroke="#000000" stroke-width="2" stroke-opacity="0.200000" d="M160.82,-153.08C163.17,-154.73 165.28,-156.69 167,-159 185.45,-183.84 154.3,-275 175,-298 182.89,-306.76 193.75,-311.74 205.24,-314.38"/>
<polygon fill="#000000" fill-opacity="0.200000" stroke="#000000" stroke-width="2" stroke-opacity="0.200000" points="205,-316.47 211.29,-315.55 205.8,-312.35 205,-316.47"/>
</g>
<!-- src/config.mock.ts&#45;&gt;src/application/service/FlashcardService.ts -->
<g id="edge20" class="edge">
<title>src/config.mock.ts&#45;&gt;src/application/service/FlashcardService.ts</title>
<path fill="none" stroke="#000000" stroke-width="2" stroke-opacity="0.200000" d="M160.07,-153.12C162.65,-154.77 165.02,-156.71 167,-159 178.3,-172.05 166.55,-181.95 175,-197 192.72,-228.54 225.91,-255.32 247.07,-270.27"/>
<polygon fill="#000000" fill-opacity="0.200000" stroke="#000000" stroke-width="2" stroke-opacity="0.200000" points="246.05,-272.11 252.18,-273.81 248.44,-268.66 246.05,-272.11"/>
</g>
<!-- src/config.prod.ts -->
<g id="node15" class="node">
<title>src/config.prod.ts</title>
<g id="a_node15"><a xlink:href="src/config.prod.ts" xlink:title="config.prod.ts">
<path fill="#ddfeff" stroke="black" d="M159,-183C159,-183 91,-183 91,-183 88,-183 85,-180 85,-177 85,-177 85,-171 85,-171 85,-168 88,-165 91,-165 91,-165 159,-165 159,-165 162,-165 165,-168 165,-171 165,-171 165,-177 165,-177 165,-180 162,-183 159,-183"/>
<text text-anchor="start" x="93" y="-171.8" font-family="Helvetica,sans-Serif" font-size="9.00">config.prod.ts</text>
</a>
</g>
</g>
<!-- src/config.prod.ts&#45;&gt;src/adapter/in/web/GraphQLController.ts -->
<g id="edge21" class="edge">
<title>src/config.prod.ts&#45;&gt;src/adapter/in/web/GraphQLController.ts</title>
<path fill="none" stroke="#000000" stroke-width="2" stroke-opacity="0.200000" d="M158.86,-164.96C161.83,-163.29 164.61,-161.32 167,-159 173.87,-152.33 169.32,-146.7 175,-139 194.37,-112.74 225.19,-90.44 245.63,-77.38"/>
<polygon fill="#000000" fill-opacity="0.200000" stroke="#000000" stroke-width="2" stroke-opacity="0.200000" points="246.88,-79.08 250.85,-74.11 244.65,-75.52 246.88,-79.08"/>
</g>
<!-- src/config.prod.ts&#45;&gt;src/adapter/out/persistence/MockPersistenceAdapter.ts -->
<g id="edge22" class="edge">
<title>src/config.prod.ts&#45;&gt;src/adapter/out/persistence/MockPersistenceAdapter.ts</title>
<path fill="none" stroke="#000000" stroke-width="2" stroke-opacity="0.200000" d="M165.14,-169.82C173.73,-168.9 183.1,-167.9 192.56,-166.89"/>
<polygon fill="#000000" fill-opacity="0.200000" stroke="#000000" stroke-width="2" stroke-opacity="0.200000" points="193.04,-168.95 198.78,-166.23 192.59,-164.78 193.04,-168.95"/>
</g>
<!-- src/config.prod.ts&#45;&gt;src/application/service/CheatsheetService.ts -->
<g id="edge23" class="edge">
<title>src/config.prod.ts&#45;&gt;src/application/service/CheatsheetService.ts</title>
<path fill="none" stroke="#000000" stroke-width="2" stroke-opacity="0.200000" d="M126.66,-183.26C128.86,-206.62 138.06,-268.22 175,-298 183.67,-304.99 194.34,-309.3 205.29,-311.86"/>
<polygon fill="#000000" fill-opacity="0.200000" stroke="#000000" stroke-width="2" stroke-opacity="0.200000" points="205.09,-313.96 211.39,-313.11 205.94,-309.85 205.09,-313.96"/>
</g>
<!-- src/config.prod.ts&#45;&gt;src/application/service/FlashcardService.ts -->
<g id="edge24" class="edge">
<title>src/config.prod.ts&#45;&gt;src/application/service/FlashcardService.ts</title>
<path fill="none" stroke="#000000" stroke-width="2" stroke-opacity="0.200000" d="M137.98,-183.29C162.97,-202.68 220.72,-247.48 249.52,-269.83"/>
<polygon fill="#000000" fill-opacity="0.200000" stroke="#000000" stroke-width="2" stroke-opacity="0.200000" points="248.52,-271.71 254.55,-273.73 251.1,-268.39 248.52,-271.71"/>
</g>
<!-- src/index.ts -->
<g id="node16" class="node">
<title>src/index.ts</title>
<g id="a_node16"><a xlink:href="src/index.ts" xlink:title="index.ts">
<path fill="#ddfeff" stroke="black" d="M64,-122C64,-122 22,-122 22,-122 19,-122 16,-119 16,-116 16,-116 16,-110 16,-110 16,-107 19,-104 22,-104 22,-104 64,-104 64,-104 67,-104 70,-107 70,-110 70,-110 70,-116 70,-116 70,-119 67,-122 64,-122"/>
<text text-anchor="start" x="24.5" y="-110.8" font-family="Helvetica,sans-Serif" font-size="9.00">index.ts</text>
</a>
</g>
</g>
<!-- src/index.ts&#45;&gt;node_modules/yargs -->
<g id="edge29" class="edge">
<title>src/index.ts&#45;&gt;node_modules/yargs</title>
<path fill="none" stroke="#000000" stroke-opacity="0.200000" d="M54.78,-103.88C62.35,-97.76 72.9,-89.79 83,-84 158.34,-40.85 179.68,-17 266.5,-17 266.5,-17 266.5,-17 445,-17 520.39,-17 608.88,-20.91 655.32,-23.26"/>
<polygon fill="#000000" fill-opacity="0.200000" stroke="#000000" stroke-opacity="0.200000" points="655.21,-25.36 661.31,-23.57 655.43,-21.17 655.21,-25.36"/>
</g>
<!-- src/index.ts&#45;&gt;src/adapter/in/web/GraphQLController.ts -->
<g id="edge26" class="edge">
<title>src/index.ts&#45;&gt;src/adapter/in/web/GraphQLController.ts</title>
<path fill="none" stroke="#000000" stroke-width="2" stroke-opacity="0.200000" d="M70.4,-107.31C106.86,-99.44 173.27,-85.11 218.61,-75.33"/>
<polygon fill="#000000" fill-opacity="0.200000" stroke="#000000" stroke-width="2" stroke-opacity="0.200000" points="219.17,-77.36 224.59,-74.04 218.28,-73.25 219.17,-77.36"/>
</g>
<!-- src/index.ts&#45;&gt;src/config.mock.ts -->
<g id="edge27" class="edge">
<title>src/index.ts&#45;&gt;src/config.mock.ts</title>
<path fill="none" stroke="#000000" stroke-width="2" stroke-opacity="0.200000" d="M67.57,-122.13C76.11,-125.44 85.87,-129.22 94.84,-132.7"/>
<polygon fill="#000000" fill-opacity="0.200000" stroke="#000000" stroke-width="2" stroke-opacity="0.200000" points="94.25,-134.72 100.6,-134.93 95.76,-130.81 94.25,-134.72"/>
</g>
<!-- src/index.ts&#45;&gt;src/config.prod.ts -->
<g id="edge28" class="edge">
<title>src/index.ts&#45;&gt;src/config.prod.ts</title>
<path fill="none" stroke="#000000" stroke-width="2" stroke-opacity="0.200000" d="M49.54,-122C56.29,-132.27 68.57,-148.94 83,-159 84.62,-160.13 86.33,-161.18 88.1,-162.16"/>
<polygon fill="#000000" fill-opacity="0.200000" stroke="#000000" stroke-width="2" stroke-opacity="0.200000" points="87.24,-164.08 93.55,-164.9 89.13,-160.33 87.24,-164.08"/>
</g>
</g>
</svg>
