<?xml version="1.0" encoding="UTF-8" standalone="no"?>
<!DOCTYPE svg PUBLIC "-//W3C//DTD SVG 1.1//EN"
 "http://www.w3.org/Graphics/SVG/1.1/DTD/svg11.dtd">
<!-- Generated by graphviz version 2.43.0 (0)
 -->
<!-- Title: dependency&#45;cruiser output Pages: 1 -->
<svg width="727pt" height="520pt"
 viewBox="0.00 0.00 727.00 520.00" xmlns="http://www.w3.org/2000/svg" xmlns:xlink="http://www.w3.org/1999/xlink">
<g id="graph0" class="graph" transform="scale(1 1) rotate(0) translate(4 516)">
<title>dependency&#45;cruiser output</title>
<polygon fill="white" stroke="transparent" points="-4,4 -4,-516 723,-516 723,4 -4,4"/>
<g id="clust1" class="cluster">
<title>cluster_node_modules</title>
<path fill="#ffffff" stroke="black" stroke-width="2" d="M622,-32C622,-32 699,-32 699,-32 705,-32 711,-38 711,-44 711,-44 711,-132 711,-132 711,-138 705,-144 699,-144 699,-144 622,-144 622,-144 616,-144 610,-138 610,-132 610,-132 610,-44 610,-44 610,-38 616,-32 622,-32"/>
<text text-anchor="middle" x="660.5" y="-132.8" font-family="Helvetica,sans-Serif" font-weight="bold" font-size="9.00">node_modules</text>
</g>
<g id="clust2" class="cluster">
<title>cluster_src</title>
<path fill="#ffffff" stroke="black" stroke-width="2" d="M20,-8C20,-8 590,-8 590,-8 596,-8 602,-14 602,-20 602,-20 602,-492 602,-492 602,-498 596,-504 590,-504 590,-504 20,-504 20,-504 14,-504 8,-498 8,-492 8,-492 8,-20 8,-20 8,-14 14,-8 20,-8"/>
<text text-anchor="middle" x="305" y="-492.8" font-family="Helvetica,sans-Serif" font-weight="bold" font-size="9.00">src</text>
</g>
<g id="clust3" class="cluster">
<title>cluster_src/adapter</title>
<path fill="#ffffff" stroke="black" stroke-width="2" d="M159,-16C159,-16 320,-16 320,-16 326,-16 332,-22 332,-28 332,-28 332,-218 332,-218 332,-224 326,-230 320,-230 320,-230 159,-230 159,-230 153,-230 147,-224 147,-218 147,-218 147,-28 147,-28 147,-22 153,-16 159,-16"/>
<text text-anchor="middle" x="239.5" y="-218.8" font-family="Helvetica,sans-Serif" font-weight="bold" font-size="9.00">adapter</text>
</g>
<g id="clust4" class="cluster">
<title>cluster_src/adapter/in</title>
<path fill="#ffffff" stroke="black" stroke-width="2" d="M180.5,-24C180.5,-24 298.5,-24 298.5,-24 304.5,-24 310.5,-30 310.5,-36 310.5,-36 310.5,-98 310.5,-98 310.5,-104 304.5,-110 298.5,-110 298.5,-110 180.5,-110 180.5,-110 174.5,-110 168.5,-104 168.5,-98 168.5,-98 168.5,-36 168.5,-36 168.5,-30 174.5,-24 180.5,-24"/>
<text text-anchor="middle" x="239.5" y="-98.8" font-family="Helvetica,sans-Serif" font-weight="bold" font-size="9.00">in</text>
</g>
<g id="clust5" class="cluster">
<title>cluster_src/adapter/in/web</title>
<path fill="#ffffff" stroke="black" stroke-width="2" d="M188.5,-32C188.5,-32 290.5,-32 290.5,-32 296.5,-32 302.5,-38 302.5,-44 302.5,-44 302.5,-72 302.5,-72 302.5,-78 296.5,-84 290.5,-84 290.5,-84 188.5,-84 188.5,-84 182.5,-84 176.5,-78 176.5,-72 176.5,-72 176.5,-44 176.5,-44 176.5,-38 182.5,-32 188.5,-32"/>
<text text-anchor="middle" x="239.5" y="-72.8" font-family="Helvetica,sans-Serif" font-weight="bold" font-size="9.00">web</text>
</g>
<g id="clust6" class="cluster">
<title>cluster_src/adapter/out</title>
<path fill="#ffffff" stroke="black" stroke-width="2" d="M167,-118C167,-118 312,-118 312,-118 318,-118 324,-124 324,-130 324,-130 324,-192 324,-192 324,-198 318,-204 312,-204 312,-204 167,-204 167,-204 161,-204 155,-198 155,-192 155,-192 155,-130 155,-130 155,-124 161,-118 167,-118"/>
<text text-anchor="middle" x="239.5" y="-192.8" font-family="Helvetica,sans-Serif" font-weight="bold" font-size="9.00">out</text>
</g>
<g id="clust7" class="cluster">
<title>cluster_src/adapter/out/persistence</title>
<path fill="#ffffff" stroke="black" stroke-width="2" d="M175,-126C175,-126 304,-126 304,-126 310,-126 316,-132 316,-138 316,-138 316,-166 316,-166 316,-172 310,-178 304,-178 304,-178 175,-178 175,-178 169,-178 163,-172 163,-166 163,-166 163,-138 163,-138 163,-132 169,-126 175,-126"/>
<text text-anchor="middle" x="239.5" y="-166.8" font-family="Helvetica,sans-Serif" font-weight="bold" font-size="9.00">persistence</text>
</g>
<g id="clust8" class="cluster">
<title>cluster_src/application</title>
<path fill="#ffffff" stroke="black" stroke-width="2" d="M179.5,-238C179.5,-238 488,-238 488,-238 494,-238 500,-244 500,-250 500,-250 500,-466 500,-466 500,-472 494,-478 488,-478 488,-478 179.5,-478 179.5,-478 173.5,-478 167.5,-472 167.5,-466 167.5,-466 167.5,-250 167.5,-250 167.5,-244 173.5,-238 179.5,-238"/>
<text text-anchor="middle" x="333.75" y="-466.8" font-family="Helvetica,sans-Serif" font-weight="bold" font-size="9.00">application</text>
</g>
<g id="clust9" class="cluster">
<title>cluster_src/application/port</title>
<path fill="#ffffff" stroke="black" stroke-width="2" d="M352,-246C352,-246 480,-246 480,-246 486,-246 492,-252 492,-258 492,-258 492,-440 492,-440 492,-446 486,-452 480,-452 480,-452 352,-452 352,-452 346,-452 340,-446 340,-440 340,-440 340,-258 340,-258 340,-252 346,-246 352,-246"/>
<text text-anchor="middle" x="416" y="-440.8" font-family="Helvetica,sans-Serif" font-weight="bold" font-size="9.00">port</text>
</g>
<g id="clust10" class="cluster">
<title>cluster_src/application/port/in</title>
<path fill="#ffffff" stroke="black" stroke-width="2" d="M360,-254C360,-254 472,-254 472,-254 478,-254 484,-260 484,-266 484,-266 484,-324 484,-324 484,-330 478,-336 472,-336 472,-336 360,-336 360,-336 354,-336 348,-330 348,-324 348,-324 348,-266 348,-266 348,-260 354,-254 360,-254"/>
<text text-anchor="middle" x="416" y="-324.8" font-family="Helvetica,sans-Serif" font-weight="bold" font-size="9.00">in</text>
</g>
<g id="clust11" class="cluster">
<title>cluster_src/application/port/out</title>
<path fill="#ffffff" stroke="black" stroke-width="2" d="M362,-344C362,-344 470,-344 470,-344 476,-344 482,-350 482,-356 482,-356 482,-414 482,-414 482,-420 476,-426 470,-426 470,-426 362,-426 362,-426 356,-426 350,-420 350,-414 350,-414 350,-356 350,-356 350,-350 356,-344 362,-344"/>
<text text-anchor="middle" x="416" y="-414.8" font-family="Helvetica,sans-Serif" font-weight="bold" font-size="9.00">out</text>
</g>
<g id="clust12" class="cluster">
<title>cluster_src/application/service</title>
<path fill="#ffffff" stroke="black" stroke-width="2" d="M187.5,-254C187.5,-254 291.5,-254 291.5,-254 297.5,-254 303.5,-260 303.5,-266 303.5,-266 303.5,-324 303.5,-324 303.5,-330 297.5,-336 291.5,-336 291.5,-336 187.5,-336 187.5,-336 181.5,-336 175.5,-330 175.5,-324 175.5,-324 175.5,-266 175.5,-266 175.5,-260 181.5,-254 187.5,-254"/>
<text text-anchor="middle" x="239.5" y="-324.8" font-family="Helvetica,sans-Serif" font-weight="bold" font-size="9.00">service</text>
</g>
<g id="clust13" class="cluster">
<title>cluster_src/domain</title>
<path fill="#ffffff" stroke="black" stroke-width="2" d="M520,-246C520,-246 582,-246 582,-246 588,-246 594,-252 594,-258 594,-258 594,-320 594,-320 594,-326 588,-332 582,-332 582,-332 520,-332 520,-332 514,-332 508,-326 508,-320 508,-320 508,-258 508,-258 508,-252 514,-246 520,-246"/>
<text text-anchor="middle" x="551" y="-320.8" font-family="Helvetica,sans-Serif" font-weight="bold" font-size="9.00">domain</text>
</g>
<g id="clust14" class="cluster">
<title>cluster_src/domain/generated</title>
<path fill="#ffffff" stroke="black" stroke-width="2" d="M528,-254C528,-254 574,-254 574,-254 580,-254 586,-260 586,-266 586,-266 586,-294 586,-294 586,-300 580,-306 574,-306 574,-306 528,-306 528,-306 522,-306 516,-300 516,-294 516,-294 516,-266 516,-266 516,-260 522,-254 528,-254"/>
<text text-anchor="middle" x="551" y="-294.8" font-family="Helvetica,sans-Serif" font-weight="bold" font-size="9.00">generated</text>
</g>
<!-- node_modules/@graphql&#45;tools -->
<g id="node1" class="node">
<title>node_modules/@graphql&#45;tools</title>
<g id="a_node1"><a xlink:href="node_modules/@graphql-tools" xlink:title="@graphql&#45;tools">
<polygon fill="#c40b0a" fill-opacity="0.101961" stroke="black" points="703,-88 620,-88 618,-86 618,-70 701,-70 703,-72 703,-88"/>
<polyline fill="none" stroke="black" points="701,-86 618,-86 "/>
<polyline fill="none" stroke="black" points="701,-86 701,-70 "/>
<polyline fill="none" stroke="black" points="701,-86 703,-88 "/>
<text text-anchor="start" x="626" y="-76.8" font-family="Helvetica,sans-Serif" font-size="9.00" fill="#c40b0a">@graphql&#45;tools</text>
</a>
</g>
</g>
<!-- node_modules/apollo&#45;server -->
<g id="node2" class="node">
<title>node_modules/apollo&#45;server</title>
<g id="a_node2"><a xlink:href="node_modules/apollo-server" xlink:title="apollo&#45;server">
<polygon fill="#c40b0a" fill-opacity="0.101961" stroke="black" points="697.5,-58 625.5,-58 623.5,-56 623.5,-40 695.5,-40 697.5,-42 697.5,-58"/>
<polyline fill="none" stroke="black" points="695.5,-56 623.5,-56 "/>
<polyline fill="none" stroke="black" points="695.5,-56 695.5,-40 "/>
<polyline fill="none" stroke="black" points="695.5,-56 697.5,-58 "/>
<text text-anchor="start" x="631.5" y="-46.8" font-family="Helvetica,sans-Serif" font-size="9.00" fill="#c40b0a">apollo&#45;server</text>
</a>
</g>
</g>
<!-- node_modules/graphql -->
<g id="node3" class="node">
<title>node_modules/graphql</title>
<g id="a_node3"><a xlink:href="node_modules/graphql" xlink:title="graphql">
<polygon fill="#c40b0a" fill-opacity="0.101961" stroke="black" points="687.5,-118 635.5,-118 633.5,-116 633.5,-100 685.5,-100 687.5,-102 687.5,-118"/>
<polyline fill="none" stroke="black" points="685.5,-116 633.5,-116 "/>
<polyline fill="none" stroke="black" points="685.5,-116 685.5,-100 "/>
<polyline fill="none" stroke="black" points="685.5,-116 687.5,-118 "/>
<text text-anchor="start" x="642.5" y="-106.8" font-family="Helvetica,sans-Serif" font-size="9.00" fill="#c40b0a">graphql</text>
</a>
</g>
</g>
<!-- src/adapter/in/web/GraphQLController.ts -->
<g id="node4" class="node">
<title>src/adapter/in/web/GraphQLController.ts</title>
<g id="a_node4"><a xlink:href="src/adapter/in/web/GraphQLController.ts" xlink:title="GraphQLController.ts">
<path fill="#ddfeff" stroke="black" d="M288.5,-58C288.5,-58 190.5,-58 190.5,-58 187.5,-58 184.5,-55 184.5,-52 184.5,-52 184.5,-46 184.5,-46 184.5,-43 187.5,-40 190.5,-40 190.5,-40 288.5,-40 288.5,-40 291.5,-40 294.5,-43 294.5,-46 294.5,-46 294.5,-52 294.5,-52 294.5,-55 291.5,-58 288.5,-58"/>
<text text-anchor="start" x="192.5" y="-46.8" font-family="Helvetica,sans-Serif" font-size="9.00">GraphQLController.ts</text>
</a>
</g>
</g>
<!-- src/adapter/in/web/GraphQLController.ts&#45;&gt;node_modules/@graphql&#45;tools -->
<g id="edge4" class="edge">
<title>src/adapter/in/web/GraphQLController.ts&#45;&gt;node_modules/@graphql&#45;tools</title>
<path fill="none" stroke="#000000" stroke-opacity="0.200000" d="M294.69,-54.82C309.38,-56.3 325.29,-57.8 340,-59 436.26,-66.85 549.06,-73.26 611.59,-76.56"/>
<polygon fill="#000000" fill-opacity="0.200000" stroke="#000000" stroke-opacity="0.200000" points="611.75,-78.68 617.85,-76.89 611.97,-74.48 611.75,-78.68"/>
</g>
<!-- src/adapter/in/web/GraphQLController.ts&#45;&gt;node_modules/apollo&#45;server -->
<g id="edge5" class="edge">
<title>src/adapter/in/web/GraphQLController.ts&#45;&gt;node_modules/apollo&#45;server</title>
<path fill="none" stroke="#000000" stroke-opacity="0.200000" d="M294.85,-49C379.38,-49 540.59,-49 617.13,-49"/>
<polygon fill="#000000" fill-opacity="0.200000" stroke="#000000" stroke-opacity="0.200000" points="617.38,-51.1 623.38,-49 617.38,-46.9 617.38,-51.1"/>
</g>
<!-- src/application/port/in/GetCheatsheetQuery.ts -->
<g id="node5" class="node">
<title>src/application/port/in/GetCheatsheetQuery.ts</title>
<g id="a_node5"><a xlink:href="src/application/port/in/GetCheatsheetQuery.ts" xlink:title="GetCheatsheetQuery.ts">
<path fill="#ddfeff" stroke="black" d="M470,-310C470,-310 362,-310 362,-310 359,-310 356,-307 356,-304 356,-304 356,-298 356,-298 356,-295 359,-292 362,-292 362,-292 470,-292 470,-292 473,-292 476,-295 476,-298 476,-298 476,-304 476,-304 476,-307 473,-310 470,-310"/>
<text text-anchor="start" x="364" y="-298.8" font-family="Helvetica,sans-Serif" font-size="9.00">GetCheatsheetQuery.ts</text>
</a>
</g>
</g>
<!-- src/adapter/in/web/GraphQLController.ts&#45;&gt;src/application/port/in/GetCheatsheetQuery.ts -->
<g id="edge1" class="edge">
<title>src/adapter/in/web/GraphQLController.ts&#45;&gt;src/application/port/in/GetCheatsheetQuery.ts</title>
<path fill="none" stroke="#000000" stroke-width="2" stroke-opacity="0.200000" d="M259.6,-58.16C281.5,-69.83 316.37,-92.21 332,-123 340.21,-139.17 328.16,-272.26 340,-286 342.98,-289.46 346.51,-292.26 350.39,-294.51"/>
<polygon fill="#000000" fill-opacity="0.200000" stroke="#000000" stroke-width="2" stroke-opacity="0.200000" points="349.58,-296.45 355.88,-297.26 351.46,-292.7 349.58,-296.45"/>
</g>
<!-- src/application/port/in/GetFlashcardsQuery.ts -->
<g id="node6" class="node">
<title>src/application/port/in/GetFlashcardsQuery.ts</title>
<g id="a_node6"><a xlink:href="src/application/port/in/GetFlashcardsQuery.ts" xlink:title="GetFlashcardsQuery.ts">
<path fill="#ddfeff" stroke="black" d="M468.5,-280C468.5,-280 363.5,-280 363.5,-280 360.5,-280 357.5,-277 357.5,-274 357.5,-274 357.5,-268 357.5,-268 357.5,-265 360.5,-262 363.5,-262 363.5,-262 468.5,-262 468.5,-262 471.5,-262 474.5,-265 474.5,-268 474.5,-268 474.5,-274 474.5,-274 474.5,-277 471.5,-280 468.5,-280"/>
<text text-anchor="start" x="365.5" y="-268.8" font-family="Helvetica,sans-Serif" font-size="9.00">GetFlashcardsQuery.ts</text>
</a>
</g>
</g>
<!-- src/adapter/in/web/GraphQLController.ts&#45;&gt;src/application/port/in/GetFlashcardsQuery.ts -->
<g id="edge2" class="edge">
<title>src/adapter/in/web/GraphQLController.ts&#45;&gt;src/application/port/in/GetFlashcardsQuery.ts</title>
<path fill="none" stroke="#000000" stroke-width="2" stroke-opacity="0.200000" d="M257.64,-58.01C278.61,-69.96 313.58,-93.08 332,-123 340.82,-137.33 333.39,-144.53 340,-160 356.33,-198.25 386.45,-237.23 403.12,-257.25"/>
<polygon fill="#000000" fill-opacity="0.200000" stroke="#000000" stroke-width="2" stroke-opacity="0.200000" points="401.58,-258.69 407.05,-261.92 404.79,-255.98 401.58,-258.69"/>
</g>
<!-- src/domain/generated/core.ts -->
<g id="node7" class="node">
<title>src/domain/generated/core.ts</title>
<g id="a_node7"><a xlink:href="src/domain/generated/core.ts" xlink:title="core.ts">
<path fill="#ddfeff" stroke="black" d="M572,-280C572,-280 530,-280 530,-280 527,-280 524,-277 524,-274 524,-274 524,-268 524,-268 524,-265 527,-262 530,-262 530,-262 572,-262 572,-262 575,-262 578,-265 578,-268 578,-268 578,-274 578,-274 578,-277 575,-280 572,-280"/>
<text text-anchor="start" x="535.5" y="-268.8" font-family="Helvetica,sans-Serif" font-size="9.00">core.ts</text>
</a>
</g>
</g>
<!-- src/adapter/in/web/GraphQLController.ts&#45;&gt;src/domain/generated/core.ts -->
<g id="edge3" class="edge">
<title>src/adapter/in/web/GraphQLController.ts&#45;&gt;src/domain/generated/core.ts</title>
<path fill="none" stroke="#000000" stroke-width="2" stroke-opacity="0.200000" d="M262.04,-58C317.33,-81.41 462.52,-144.87 500,-181 522.53,-202.72 537.62,-236.82 544.92,-256.21"/>
<polygon fill="#000000" fill-opacity="0.200000" stroke="#000000" stroke-width="2" stroke-opacity="0.200000" points="542.99,-257.04 547.02,-261.96 546.93,-255.6 542.99,-257.04"/>
</g>
<!-- src/application/port/in/GetCheatsheetQuery.ts&#45;&gt;src/domain/generated/core.ts -->
<g id="edge9" class="edge">
<title>src/application/port/in/GetCheatsheetQuery.ts&#45;&gt;src/domain/generated/core.ts</title>
<path fill="none" stroke="#000000" stroke-width="2" stroke-opacity="0.200000" d="M472.1,-291.94C481.45,-290.15 491.03,-288.15 500,-286 505.88,-284.59 512.1,-282.9 518.07,-281.16"/>
<polygon fill="#000000" fill-opacity="0.200000" stroke="#000000" stroke-width="2" stroke-opacity="0.200000" points="518.79,-283.14 523.94,-279.42 517.59,-279.11 518.79,-283.14"/>
</g>
<!-- src/application/port/in/GetFlashcardsQuery.ts&#45;&gt;src/domain/generated/core.ts -->
<g id="edge10" class="edge">
<title>src/application/port/in/GetFlashcardsQuery.ts&#45;&gt;src/domain/generated/core.ts</title>
<path fill="none" stroke="#000000" stroke-width="2" stroke-opacity="0.200000" d="M474.56,-271C489.28,-271 504.6,-271 517.55,-271"/>
<polygon fill="#000000" fill-opacity="0.200000" stroke="#000000" stroke-width="2" stroke-opacity="0.200000" points="517.71,-273.1 523.71,-271 517.71,-268.9 517.71,-273.1"/>
</g>
<!-- src/domain/generated/core.ts&#45;&gt;node_modules/graphql -->
<g id="edge21" class="edge">
<title>src/domain/generated/core.ts&#45;&gt;node_modules/graphql</title>
<path fill="none" stroke="#000000" stroke-opacity="0.200000" d="M558.09,-261.83C575.97,-234.87 628.46,-155.78 650.05,-123.23"/>
<polygon fill="#000000" fill-opacity="0.200000" stroke="#000000" stroke-opacity="0.200000" points="651.91,-124.23 653.48,-118.07 648.41,-121.91 651.91,-124.23"/>
</g>
<!-- src/adapter/out/persistence/MockPersistenceAdapter.ts -->
<g id="node8" class="node">
<title>src/adapter/out/persistence/MockPersistenceAdapter.ts</title>
<g id="a_node8"><a xlink:href="src/adapter/out/persistence/MockPersistenceAdapter.ts" xlink:title="MockPersistenceAdapter.ts">
<path fill="#ddfeff" stroke="black" d="M302,-152C302,-152 177,-152 177,-152 174,-152 171,-149 171,-146 171,-146 171,-140 171,-140 171,-137 174,-134 177,-134 177,-134 302,-134 302,-134 305,-134 308,-137 308,-140 308,-140 308,-146 308,-146 308,-149 305,-152 302,-152"/>
<text text-anchor="start" x="179" y="-140.8" font-family="Helvetica,sans-Serif" font-size="9.00">MockPersistenceAdapter.ts</text>
</a>
</g>
</g>
<!-- src/adapter/out/persistence/MockPersistenceAdapter.ts&#45;&gt;src/domain/generated/core.ts -->
<g id="edge8" class="edge">
<title>src/adapter/out/persistence/MockPersistenceAdapter.ts&#45;&gt;src/domain/generated/core.ts</title>
<path fill="none" stroke="#000000" stroke-width="2" stroke-opacity="0.200000" d="M262.26,-152C317.18,-174.71 461.33,-234.33 522.22,-259.51"/>
<polygon fill="#000000" fill-opacity="0.200000" stroke="#000000" stroke-width="2" stroke-opacity="0.200000" points="521.5,-261.49 527.85,-261.84 523.1,-257.6 521.5,-261.49"/>
</g>
<!-- src/application/port/out/loadCheatsheetPort.ts -->
<g id="node9" class="node">
<title>src/application/port/out/loadCheatsheetPort.ts</title>
<g id="a_node9"><a xlink:href="src/application/port/out/loadCheatsheetPort.ts" xlink:title="loadCheatsheetPort.ts">
<path fill="#ddfeff" stroke="black" d="M468,-400C468,-400 364,-400 364,-400 361,-400 358,-397 358,-394 358,-394 358,-388 358,-388 358,-385 361,-382 364,-382 364,-382 468,-382 468,-382 471,-382 474,-385 474,-388 474,-388 474,-394 474,-394 474,-397 471,-400 468,-400"/>
<text text-anchor="start" x="366" y="-388.8" font-family="Helvetica,sans-Serif" font-size="9.00">loadCheatsheetPort.ts</text>
</a>
</g>
</g>
<!-- src/adapter/out/persistence/MockPersistenceAdapter.ts&#45;&gt;src/application/port/out/loadCheatsheetPort.ts -->
<g id="edge6" class="edge">
<title>src/adapter/out/persistence/MockPersistenceAdapter.ts&#45;&gt;src/application/port/out/loadCheatsheetPort.ts</title>
<path fill="none" stroke="#000000" stroke-width="2" stroke-opacity="0.200000" d="M252.13,-152.2C272.59,-169.18 314.53,-207.7 332,-251 342.41,-276.81 321.67,-355.05 340,-376 343.46,-379.95 347.63,-383.04 352.23,-385.44"/>
<polygon fill="#000000" fill-opacity="0.200000" stroke="#000000" stroke-width="2" stroke-opacity="0.200000" points="351.46,-387.39 357.79,-387.95 353.18,-383.57 351.46,-387.39"/>
</g>
<!-- src/application/port/out/loadFlashcardPort.ts -->
<g id="node10" class="node">
<title>src/application/port/out/loadFlashcardPort.ts</title>
<g id="a_node10"><a xlink:href="src/application/port/out/loadFlashcardPort.ts" xlink:title="loadFlashcardPort.ts">
<path fill="#ddfeff" stroke="black" d="M464,-370C464,-370 368,-370 368,-370 365,-370 362,-367 362,-364 362,-364 362,-358 362,-358 362,-355 365,-352 368,-352 368,-352 464,-352 464,-352 467,-352 470,-355 470,-358 470,-358 470,-364 470,-364 470,-367 467,-370 464,-370"/>
<text text-anchor="start" x="370" y="-358.8" font-family="Helvetica,sans-Serif" font-size="9.00">loadFlashcardPort.ts</text>
</a>
</g>
</g>
<!-- src/adapter/out/persistence/MockPersistenceAdapter.ts&#45;&gt;src/application/port/out/loadFlashcardPort.ts -->
<g id="edge7" class="edge">
<title>src/adapter/out/persistence/MockPersistenceAdapter.ts&#45;&gt;src/application/port/out/loadFlashcardPort.ts</title>
<path fill="none" stroke="#000000" stroke-width="2" stroke-opacity="0.200000" d="M252.01,-152.25C272.29,-169.3 313.96,-207.94 332,-251 339.59,-269.11 327.53,-323.83 340,-339 344.35,-344.3 349.91,-348.36 356.03,-351.47"/>
<polygon fill="#000000" fill-opacity="0.200000" stroke="#000000" stroke-width="2" stroke-opacity="0.200000" points="355.45,-353.51 361.78,-354.07 357.18,-349.68 355.45,-353.51"/>
</g>
<!-- src/application/port/out/loadCheatsheetPort.ts&#45;&gt;src/domain/generated/core.ts -->
<g id="edge11" class="edge">
<title>src/application/port/out/loadCheatsheetPort.ts&#45;&gt;src/domain/generated/core.ts</title>
<path fill="none" stroke="#000000" stroke-width="2" stroke-opacity="0.200000" d="M474.04,-388.06C483.36,-385.59 492.44,-381.78 500,-376 529.47,-353.47 542.39,-309.2 547.34,-286"/>
<polygon fill="#000000" fill-opacity="0.200000" stroke="#000000" stroke-width="2" stroke-opacity="0.200000" points="549.41,-286.34 548.53,-280.04 545.3,-285.52 549.41,-286.34"/>
</g>
<!-- src/application/port/out/loadFlashcardPort.ts&#45;&gt;src/domain/generated/core.ts -->
<g id="edge12" class="edge">
<title>src/application/port/out/loadFlashcardPort.ts&#45;&gt;src/domain/generated/core.ts</title>
<path fill="none" stroke="#000000" stroke-width="2" stroke-opacity="0.200000" d="M470.25,-352.61C480.68,-349.43 491.13,-345.04 500,-339 519.89,-325.45 534.83,-301.31 542.99,-285.74"/>
<polygon fill="#000000" fill-opacity="0.200000" stroke="#000000" stroke-width="2" stroke-opacity="0.200000" points="545.05,-286.33 545.88,-280.03 541.3,-284.44 545.05,-286.33"/>
</g>
<!-- src/application/service/CheatsheetService.ts -->
<g id="node11" class="node">
<title>src/application/service/CheatsheetService.ts</title>
<g id="a_node11"><a xlink:href="src/application/service/CheatsheetService.ts" xlink:title="CheatsheetService.ts">
<path fill="#ddfeff" stroke="black" d="M289.5,-310C289.5,-310 189.5,-310 189.5,-310 186.5,-310 183.5,-307 183.5,-304 183.5,-304 183.5,-298 183.5,-298 183.5,-295 186.5,-292 189.5,-292 189.5,-292 289.5,-292 289.5,-292 292.5,-292 295.5,-295 295.5,-298 295.5,-298 295.5,-304 295.5,-304 295.5,-307 292.5,-310 289.5,-310"/>
<text text-anchor="start" x="191.5" y="-298.8" font-family="Helvetica,sans-Serif" font-size="9.00">CheatsheetService.ts</text>
</a>
</g>
</g>
<!-- src/application/service/CheatsheetService.ts&#45;&gt;src/application/port/in/GetCheatsheetQuery.ts -->
<g id="edge13" class="edge">
<title>src/application/service/CheatsheetService.ts&#45;&gt;src/application/port/in/GetCheatsheetQuery.ts</title>
<path fill="none" stroke="#000000" stroke-width="2" stroke-opacity="0.200000" d="M295.71,-301C312.79,-301 331.76,-301 349.46,-301"/>
<polygon fill="#000000" fill-opacity="0.200000" stroke="#000000" stroke-width="2" stroke-opacity="0.200000" points="349.92,-303.1 355.92,-301 349.92,-298.9 349.92,-303.1"/>
</g>
<!-- src/application/service/CheatsheetService.ts&#45;&gt;src/application/port/out/loadCheatsheetPort.ts -->
<g id="edge14" class="edge">
<title>src/application/service/CheatsheetService.ts&#45;&gt;src/application/port/out/loadCheatsheetPort.ts</title>
<path fill="none" stroke="#000000" stroke-width="2" stroke-opacity="0.200000" d="M249.45,-310.03C265.85,-326.01 302.5,-359.18 340,-376 343.74,-377.68 347.68,-379.17 351.7,-380.5"/>
<polygon fill="#000000" fill-opacity="0.200000" stroke="#000000" stroke-width="2" stroke-opacity="0.200000" points="351.29,-382.57 357.65,-382.33 352.53,-378.56 351.29,-382.57"/>
</g>
<!-- src/application/service/FlashcardService.ts -->
<g id="node12" class="node">
<title>src/application/service/FlashcardService.ts</title>
<g id="a_node12"><a xlink:href="src/application/service/FlashcardService.ts" xlink:title="FlashcardService.ts">
<path fill="#ddfeff" stroke="black" d="M285.5,-280C285.5,-280 193.5,-280 193.5,-280 190.5,-280 187.5,-277 187.5,-274 187.5,-274 187.5,-268 187.5,-268 187.5,-265 190.5,-262 193.5,-262 193.5,-262 285.5,-262 285.5,-262 288.5,-262 291.5,-265 291.5,-268 291.5,-268 291.5,-274 291.5,-274 291.5,-277 288.5,-280 285.5,-280"/>
<text text-anchor="start" x="195.5" y="-268.8" font-family="Helvetica,sans-Serif" font-size="9.00">FlashcardService.ts</text>
</a>
</g>
</g>
<!-- src/application/service/FlashcardService.ts&#45;&gt;src/application/port/in/GetFlashcardsQuery.ts -->
<g id="edge15" class="edge">
<title>src/application/service/FlashcardService.ts&#45;&gt;src/application/port/in/GetFlashcardsQuery.ts</title>
<path fill="none" stroke="#000000" stroke-width="2" stroke-opacity="0.200000" d="M291.91,-271C310.42,-271 331.53,-271 350.98,-271"/>
<polygon fill="#000000" fill-opacity="0.200000" stroke="#000000" stroke-width="2" stroke-opacity="0.200000" points="351.23,-273.1 357.23,-271 351.23,-268.9 351.23,-273.1"/>
</g>
<!-- src/application/service/FlashcardService.ts&#45;&gt;src/application/port/out/loadFlashcardPort.ts -->
<g id="edge16" class="edge">
<title>src/application/service/FlashcardService.ts&#45;&gt;src/application/port/out/loadFlashcardPort.ts</title>
<path fill="none" stroke="#000000" stroke-width="2" stroke-opacity="0.200000" d="M291.75,-268.54C306.53,-270.45 321.48,-275.35 332,-286 348.74,-302.95 324.33,-321.05 340,-339 344.44,-344.09 349.99,-348.03 356.05,-351.08"/>
<polygon fill="#000000" fill-opacity="0.200000" stroke="#000000" stroke-width="2" stroke-opacity="0.200000" points="355.4,-353.09 361.74,-353.63 357.12,-349.26 355.4,-353.09"/>
</g>
<!-- src/config.ts -->
<g id="node13" class="node">
<title>src/config.ts</title>
<g id="a_node13"><a xlink:href="src/config.ts" xlink:title="config.ts">
<path fill="#ddfeff" stroke="black" d="M133,-152C133,-152 89,-152 89,-152 86,-152 83,-149 83,-146 83,-146 83,-140 83,-140 83,-137 86,-134 89,-134 89,-134 133,-134 133,-134 136,-134 139,-137 139,-140 139,-140 139,-146 139,-146 139,-149 136,-152 133,-152"/>
<text text-anchor="start" x="91" y="-140.8" font-family="Helvetica,sans-Serif" font-size="9.00">config.ts</text>
</a>
</g>
</g>
<!-- src/config.ts&#45;&gt;src/adapter/in/web/GraphQLController.ts -->
<g id="edge17" class="edge">
<title>src/config.ts&#45;&gt;src/adapter/in/web/GraphQLController.ts</title>
<path fill="none" stroke="#000000" stroke-width="2" stroke-opacity="0.200000" d="M124.13,-133.99C146.74,-117.19 195.38,-81.04 221.35,-61.75"/>
<polygon fill="#000000" fill-opacity="0.200000" stroke="#000000" stroke-width="2" stroke-opacity="0.200000" points="222.66,-63.39 226.22,-58.12 220.15,-60.02 222.66,-63.39"/>
</g>
<!-- src/config.ts&#45;&gt;src/adapter/out/persistence/MockPersistenceAdapter.ts -->
<g id="edge18" class="edge">
<title>src/config.ts&#45;&gt;src/adapter/out/persistence/MockPersistenceAdapter.ts</title>
<path fill="none" stroke="#000000" stroke-width="2" stroke-opacity="0.200000" d="M139.14,-143C146.88,-143 155.71,-143 164.83,-143"/>
<polygon fill="#000000" fill-opacity="0.200000" stroke="#000000" stroke-width="2" stroke-opacity="0.200000" points="164.86,-145.1 170.86,-143 164.86,-140.9 164.86,-145.1"/>
</g>
<!-- src/config.ts&#45;&gt;src/application/service/CheatsheetService.ts -->
<g id="edge19" class="edge">
<title>src/config.ts&#45;&gt;src/application/service/CheatsheetService.ts</title>
<path fill="none" stroke="#000000" stroke-width="2" stroke-opacity="0.200000" d="M112.94,-152.18C116.06,-180.79 127.02,-267.51 147,-286 155.27,-293.66 165.87,-298.25 176.9,-300.87"/>
<polygon fill="#000000" fill-opacity="0.200000" stroke="#000000" stroke-width="2" stroke-opacity="0.200000" points="176.75,-302.99 183.05,-302.14 177.6,-298.88 176.75,-302.99"/>
</g>
<!-- src/config.ts&#45;&gt;src/application/service/FlashcardService.ts -->
<g id="edge20" class="edge">
<title>src/config.ts&#45;&gt;src/application/service/FlashcardService.ts</title>
<path fill="none" stroke="#000000" stroke-width="2" stroke-opacity="0.200000" d="M120.22,-152.18C127.24,-159.95 137.64,-171.33 147,-181 173.77,-208.66 206.08,-239.98 224.26,-257.42"/>
<polygon fill="#000000" fill-opacity="0.200000" stroke="#000000" stroke-width="2" stroke-opacity="0.200000" points="223.21,-259.32 229,-261.95 226.12,-256.28 223.21,-259.32"/>
</g>
<!-- src/index.ts -->
<g id="node14" class="node">
<title>src/index.ts</title>
<g id="a_node14"><a xlink:href="src/index.ts" xlink:title="index.ts">
<path fill="#ddfeff" stroke="black" d="M64,-128C64,-128 22,-128 22,-128 19,-128 16,-125 16,-122 16,-122 16,-116 16,-116 16,-113 19,-110 22,-110 22,-110 64,-110 64,-110 67,-110 70,-113 70,-116 70,-116 70,-122 70,-122 70,-125 67,-128 64,-128"/>
<text text-anchor="start" x="24.5" y="-116.8" font-family="Helvetica,sans-Serif" font-size="9.00">index.ts</text>
</a>
</g>
</g>
<!-- src/index.ts&#45;&gt;src/adapter/in/web/GraphQLController.ts -->
<g id="edge22" class="edge">
<title>src/index.ts&#45;&gt;src/adapter/in/web/GraphQLController.ts</title>
<path fill="none" stroke="#000000" stroke-width="2" stroke-opacity="0.200000" d="M69.03,-109.99C104.38,-97.27 168.91,-74.05 207.33,-60.22"/>
<polygon fill="#000000" fill-opacity="0.200000" stroke="#000000" stroke-width="2" stroke-opacity="0.200000" points="208.32,-62.09 213.26,-58.08 206.9,-58.14 208.32,-62.09"/>
</g>
<!-- src/index.ts&#45;&gt;src/config.ts -->
<g id="edge23" class="edge">
<title>src/index.ts&#45;&gt;src/config.ts</title>
<path fill="none" stroke="#000000" stroke-width="2" stroke-opacity="0.200000" d="M68.95,-128.07C72.32,-129.3 75.81,-130.57 79.26,-131.82"/>
<polygon fill="#000000" fill-opacity="0.200000" stroke="#000000" stroke-width="2" stroke-opacity="0.200000" points="78.66,-133.84 85.01,-133.91 80.09,-129.89 78.66,-133.84"/>
</g>
</g>
</svg>
