<?xml version="1.0" encoding="UTF-8" standalone="no"?>
<!DOCTYPE svg PUBLIC "-//W3C//DTD SVG 1.1//EN"
 "http://www.w3.org/Graphics/SVG/1.1/DTD/svg11.dtd">
<!-- Generated by graphviz version 2.43.0 (0)
 -->
<!-- Title: dependency&#45;cruiser output Pages: 1 -->
<svg width="319pt" height="520pt"
 viewBox="0.00 0.00 319.00 520.00" xmlns="http://www.w3.org/2000/svg" xmlns:xlink="http://www.w3.org/1999/xlink">
<g id="graph0" class="graph" transform="scale(1 1) rotate(0) translate(4 516)">
<title>dependency&#45;cruiser output</title>
<polygon fill="white" stroke="transparent" points="-4,4 -4,-516 315,-516 315,4 -4,4"/>
<g id="clust1" class="cluster">
<title>cluster_src</title>
<path fill="#ffffff" stroke="black" stroke-width="2" d="M20,-8C20,-8 291,-8 291,-8 297,-8 303,-14 303,-20 303,-20 303,-492 303,-492 303,-498 297,-504 291,-504 291,-504 20,-504 20,-504 14,-504 8,-498 8,-492 8,-492 8,-20 8,-20 8,-14 14,-8 20,-8"/>
<text text-anchor="middle" x="155.5" y="-492.8" font-family="Helvetica,sans-Serif" font-weight="bold" font-size="9.00">src</text>
</g>
<g id="clust2" class="cluster">
<title>cluster_src/adapter</title>
<path fill="#ffffff" stroke="black" stroke-width="2" d="M122,-16C122,-16 283,-16 283,-16 289,-16 295,-22 295,-28 295,-28 295,-218 295,-218 295,-224 289,-230 283,-230 283,-230 122,-230 122,-230 116,-230 110,-224 110,-218 110,-218 110,-28 110,-28 110,-22 116,-16 122,-16"/>
<text text-anchor="middle" x="202.5" y="-218.8" font-family="Helvetica,sans-Serif" font-weight="bold" font-size="9.00">adapter</text>
</g>
<g id="clust3" class="cluster">
<title>cluster_src/adapter/in</title>
<path fill="#ffffff" stroke="black" stroke-width="2" d="M143.5,-118C143.5,-118 261.5,-118 261.5,-118 267.5,-118 273.5,-124 273.5,-130 273.5,-130 273.5,-192 273.5,-192 273.5,-198 267.5,-204 261.5,-204 261.5,-204 143.5,-204 143.5,-204 137.5,-204 131.5,-198 131.5,-192 131.5,-192 131.5,-130 131.5,-130 131.5,-124 137.5,-118 143.5,-118"/>
<text text-anchor="middle" x="202.5" y="-192.8" font-family="Helvetica,sans-Serif" font-weight="bold" font-size="9.00">in</text>
</g>
<g id="clust4" class="cluster">
<title>cluster_src/adapter/in/web</title>
<path fill="#ffffff" stroke="black" stroke-width="2" d="M151.5,-126C151.5,-126 253.5,-126 253.5,-126 259.5,-126 265.5,-132 265.5,-138 265.5,-138 265.5,-166 265.5,-166 265.5,-172 259.5,-178 253.5,-178 253.5,-178 151.5,-178 151.5,-178 145.5,-178 139.5,-172 139.5,-166 139.5,-166 139.5,-138 139.5,-138 139.5,-132 145.5,-126 151.5,-126"/>
<text text-anchor="middle" x="202.5" y="-166.8" font-family="Helvetica,sans-Serif" font-weight="bold" font-size="9.00">web</text>
</g>
<g id="clust5" class="cluster">
<title>cluster_src/adapter/out</title>
<path fill="#ffffff" stroke="black" stroke-width="2" d="M130,-24C130,-24 275,-24 275,-24 281,-24 287,-30 287,-36 287,-36 287,-98 287,-98 287,-104 281,-110 275,-110 275,-110 130,-110 130,-110 124,-110 118,-104 118,-98 118,-98 118,-36 118,-36 118,-30 124,-24 130,-24"/>
<text text-anchor="middle" x="202.5" y="-98.8" font-family="Helvetica,sans-Serif" font-weight="bold" font-size="9.00">out</text>
</g>
<g id="clust6" class="cluster">
<title>cluster_src/adapter/out/persistence</title>
<path fill="#ffffff" stroke="black" stroke-width="2" d="M138,-32C138,-32 267,-32 267,-32 273,-32 279,-38 279,-44 279,-44 279,-72 279,-72 279,-78 273,-84 267,-84 267,-84 138,-84 138,-84 132,-84 126,-78 126,-72 126,-72 126,-44 126,-44 126,-38 132,-32 138,-32"/>
<text text-anchor="middle" x="202.5" y="-72.8" font-family="Helvetica,sans-Serif" font-weight="bold" font-size="9.00">persistence</text>
</g>
<g id="clust7" class="cluster">
<title>cluster_src/application</title>
<path fill="#ffffff" stroke="black" stroke-width="2" d="M143,-238C143,-238 262,-238 262,-238 268,-238 274,-244 274,-250 274,-250 274,-466 274,-466 274,-472 268,-478 262,-478 262,-478 143,-478 143,-478 137,-478 131,-472 131,-466 131,-466 131,-250 131,-250 131,-244 137,-238 143,-238"/>
<text text-anchor="middle" x="202.5" y="-466.8" font-family="Helvetica,sans-Serif" font-weight="bold" font-size="9.00">application</text>
</g>
<g id="clust8" class="cluster">
<title>cluster_src/application/port</title>
<path fill="#ffffff" stroke="black" stroke-width="2" d="M151,-306C151,-306 254,-306 254,-306 260,-306 266,-312 266,-318 266,-318 266,-440 266,-440 266,-446 260,-452 254,-452 254,-452 151,-452 151,-452 145,-452 139,-446 139,-440 139,-440 139,-318 139,-318 139,-312 145,-306 151,-306"/>
<text text-anchor="middle" x="202.5" y="-440.8" font-family="Helvetica,sans-Serif" font-weight="bold" font-size="9.00">port</text>
</g>
<g id="clust9" class="cluster">
<title>cluster_src/application/port/in</title>
<path fill="#ffffff" stroke="black" stroke-width="2" d="M159,-374C159,-374 246,-374 246,-374 252,-374 258,-380 258,-386 258,-386 258,-414 258,-414 258,-420 252,-426 246,-426 246,-426 159,-426 159,-426 153,-426 147,-420 147,-414 147,-414 147,-386 147,-386 147,-380 153,-374 159,-374"/>
<text text-anchor="middle" x="202.5" y="-414.8" font-family="Helvetica,sans-Serif" font-weight="bold" font-size="9.00">in</text>
</g>
<g id="clust10" class="cluster">
<title>cluster_src/application/port/out</title>
<path fill="#ffffff" stroke="black" stroke-width="2" d="M163.5,-314C163.5,-314 241.5,-314 241.5,-314 247.5,-314 253.5,-320 253.5,-326 253.5,-326 253.5,-354 253.5,-354 253.5,-360 247.5,-366 241.5,-366 241.5,-366 163.5,-366 163.5,-366 157.5,-366 151.5,-360 151.5,-354 151.5,-354 151.5,-326 151.5,-326 151.5,-320 157.5,-314 163.5,-314"/>
<text text-anchor="middle" x="202.5" y="-354.8" font-family="Helvetica,sans-Serif" font-weight="bold" font-size="9.00">out</text>
</g>
<g id="clust11" class="cluster">
<title>cluster_src/application/service</title>
<path fill="#ffffff" stroke="black" stroke-width="2" d="M155,-246C155,-246 250,-246 250,-246 256,-246 262,-252 262,-258 262,-258 262,-286 262,-286 262,-292 256,-298 250,-298 250,-298 155,-298 155,-298 149,-298 143,-292 143,-286 143,-286 143,-258 143,-258 143,-252 149,-246 155,-246"/>
<text text-anchor="middle" x="202.5" y="-286.8" font-family="Helvetica,sans-Serif" font-weight="bold" font-size="9.00">service</text>
</g>
<g id="clust12" class="cluster">
<title>cluster_src/domain</title>
<path fill="#ffffff" stroke="black" stroke-width="2" d="M28,-276C28,-276 90,-276 90,-276 96,-276 102,-282 102,-288 102,-288 102,-350 102,-350 102,-356 96,-362 90,-362 90,-362 28,-362 28,-362 22,-362 16,-356 16,-350 16,-350 16,-288 16,-288 16,-282 22,-276 28,-276"/>
<text text-anchor="middle" x="59" y="-350.8" font-family="Helvetica,sans-Serif" font-weight="bold" font-size="9.00">domain</text>
</g>
<g id="clust13" class="cluster">
<title>cluster_src/domain/generated</title>
<path fill="#ffffff" stroke="black" stroke-width="2" d="M36,-284C36,-284 82,-284 82,-284 88,-284 94,-290 94,-296 94,-296 94,-324 94,-324 94,-330 88,-336 82,-336 82,-336 36,-336 36,-336 30,-336 24,-330 24,-324 24,-324 24,-296 24,-296 24,-290 30,-284 36,-284"/>
<text text-anchor="middle" x="59" y="-324.8" font-family="Helvetica,sans-Serif" font-weight="bold" font-size="9.00">generated</text>
</g>
<!-- src/adapter/in/web/GraphQLController.ts -->
<g id="node1" class="node">
<title>src/adapter/in/web/GraphQLController.ts</title>
<g id="a_node1"><a xlink:href="src/adapter/in/web/GraphQLController.ts" xlink:title="GraphQLController.ts">
<path fill="#ddfeff" stroke="black" d="M251.5,-152C251.5,-152 153.5,-152 153.5,-152 150.5,-152 147.5,-149 147.5,-146 147.5,-146 147.5,-140 147.5,-140 147.5,-137 150.5,-134 153.5,-134 153.5,-134 251.5,-134 251.5,-134 254.5,-134 257.5,-137 257.5,-140 257.5,-140 257.5,-146 257.5,-146 257.5,-149 254.5,-152 251.5,-152"/>
<text text-anchor="start" x="155.5" y="-140.8" font-family="Helvetica,sans-Serif" font-size="9.00">GraphQLController.ts</text>
</a>
</g>
</g>
<!-- src/adapter/out/persistence/MockPersistenceAdapter.ts -->
<g id="node2" class="node">
<title>src/adapter/out/persistence/MockPersistenceAdapter.ts</title>
<g id="a_node2"><a xlink:href="src/adapter/out/persistence/MockPersistenceAdapter.ts" xlink:title="MockPersistenceAdapter.ts">
<path fill="#ddfeff" stroke="black" d="M265,-58C265,-58 140,-58 140,-58 137,-58 134,-55 134,-52 134,-52 134,-46 134,-46 134,-43 137,-40 140,-40 140,-40 265,-40 265,-40 268,-40 271,-43 271,-46 271,-46 271,-52 271,-52 271,-55 268,-58 265,-58"/>
<text text-anchor="start" x="142" y="-46.8" font-family="Helvetica,sans-Serif" font-size="9.00">MockPersistenceAdapter.ts</text>
</a>
</g>
</g>
<!-- src/application/port/in/GetBooksQuery.ts -->
<g id="node3" class="node">
<title>src/application/port/in/GetBooksQuery.ts</title>
<g id="a_node3"><a xlink:href="src/application/port/in/GetBooksQuery.ts" xlink:title="GetBooksQuery.ts">
<path fill="#ccffcc" stroke="black" d="M244,-400C244,-400 161,-400 161,-400 158,-400 155,-397 155,-394 155,-394 155,-388 155,-388 155,-385 158,-382 161,-382 161,-382 244,-382 244,-382 247,-382 250,-385 250,-388 250,-388 250,-394 250,-394 250,-397 247,-400 244,-400"/>
<text text-anchor="start" x="163" y="-388.8" font-family="Helvetica,sans-Serif" font-size="9.00">GetBooksQuery.ts</text>
</a>
</g>
</g>
<!-- src/application/port/out/loadBookPort.ts -->
<g id="node4" class="node">
<title>src/application/port/out/loadBookPort.ts</title>
<g id="a_node4"><a xlink:href="src/application/port/out/loadBookPort.ts" xlink:title="loadBookPort.ts">
<path fill="#ccffcc" stroke="black" d="M239.5,-340C239.5,-340 165.5,-340 165.5,-340 162.5,-340 159.5,-337 159.5,-334 159.5,-334 159.5,-328 159.5,-328 159.5,-325 162.5,-322 165.5,-322 165.5,-322 239.5,-322 239.5,-322 242.5,-322 245.5,-325 245.5,-328 245.5,-328 245.5,-334 245.5,-334 245.5,-337 242.5,-340 239.5,-340"/>
<text text-anchor="start" x="167.5" y="-328.8" font-family="Helvetica,sans-Serif" font-size="9.00">loadBookPort.ts</text>
</a>
</g>
</g>
<!-- src/application/service/GetBooksService.ts -->
<g id="node5" class="node">
<title>src/application/service/GetBooksService.ts</title>
<g id="a_node5"><a xlink:href="src/application/service/GetBooksService.ts" xlink:title="GetBooksService.ts">
<path fill="#ddfeff" stroke="black" d="M248,-272C248,-272 157,-272 157,-272 154,-272 151,-269 151,-266 151,-266 151,-260 151,-260 151,-257 154,-254 157,-254 157,-254 248,-254 248,-254 251,-254 254,-257 254,-260 254,-260 254,-266 254,-266 254,-269 251,-272 248,-272"/>
<text text-anchor="start" x="159" y="-260.8" font-family="Helvetica,sans-Serif" font-size="9.00">GetBooksService.ts</text>
</a>
</g>
</g>
<!-- src/domain/generated/books.ts -->
<g id="node6" class="node">
<title>src/domain/generated/books.ts</title>
<g id="a_node6"><a xlink:href="src/domain/generated/books.ts" xlink:title="books.ts">
<path fill="#ccffcc" stroke="black" d="M80,-310C80,-310 38,-310 38,-310 35,-310 32,-307 32,-304 32,-304 32,-298 32,-298 32,-295 35,-292 38,-292 38,-292 80,-292 80,-292 83,-292 86,-295 86,-298 86,-298 86,-304 86,-304 86,-307 83,-310 80,-310"/>
<text text-anchor="start" x="40" y="-298.8" font-family="Helvetica,sans-Serif" font-size="9.00">books.ts</text>
</a>
</g>
</g>
<!-- src/index.ts -->
<g id="node7" class="node">
<title>src/index.ts</title>
<g id="a_node7"><a xlink:href="src/index.ts" xlink:title="index.ts">
<path fill="#ddfeff" stroke="black" d="M80,-152C80,-152 38,-152 38,-152 35,-152 32,-149 32,-146 32,-146 32,-140 32,-140 32,-137 35,-134 38,-134 38,-134 80,-134 80,-134 83,-134 86,-137 86,-140 86,-140 86,-146 86,-146 86,-149 83,-152 80,-152"/>
<text text-anchor="start" x="40.5" y="-140.8" font-family="Helvetica,sans-Serif" font-size="9.00">index.ts</text>
</a>
</g>
</g>
<!-- src/index.ts&#45;&gt;src/adapter/in/web/GraphQLController.ts -->
<g id="edge1" class="edge">
<title>src/index.ts&#45;&gt;src/adapter/in/web/GraphQLController.ts</title>
<path fill="none" stroke="#000000" stroke-width="2" stroke-opacity="0.200000" d="M86.28,-143C101.65,-143 121.72,-143 140.8,-143"/>
<polygon fill="#000000" fill-opacity="0.200000" stroke="#000000" stroke-width="2" stroke-opacity="0.200000" points="141.22,-145.1 147.22,-143 141.22,-140.9 141.22,-145.1"/>
</g>
<!-- src/index.ts&#45;&gt;src/adapter/out/persistence/MockPersistenceAdapter.ts -->
<g id="edge2" class="edge">
<title>src/index.ts&#45;&gt;src/adapter/out/persistence/MockPersistenceAdapter.ts</title>
<path fill="none" stroke="#000000" stroke-width="2" stroke-opacity="0.200000" d="M73.57,-133.99C98.96,-117.12 153.72,-80.74 182.67,-61.51"/>
<polygon fill="#000000" fill-opacity="0.200000" stroke="#000000" stroke-width="2" stroke-opacity="0.200000" points="183.93,-63.19 187.77,-58.12 181.61,-59.69 183.93,-63.19"/>
</g>
<!-- src/index.ts&#45;&gt;src/application/service/GetBooksService.ts -->
<g id="edge3" class="edge">
<title>src/index.ts&#45;&gt;src/application/service/GetBooksService.ts</title>
<path fill="none" stroke="#000000" stroke-width="2" stroke-opacity="0.200000" d="M70.64,-152.02C95.42,-173.04 157.13,-225.37 186.06,-249.91"/>
<polygon fill="#000000" fill-opacity="0.200000" stroke="#000000" stroke-width="2" stroke-opacity="0.200000" points="184.81,-251.6 190.74,-253.88 187.52,-248.39 184.81,-251.6"/>
</g>
</g>
</svg>
