<?xml version="1.0" encoding="UTF-8" standalone="no"?>
<!DOCTYPE svg PUBLIC "-//W3C//DTD SVG 1.1//EN"
 "http://www.w3.org/Graphics/SVG/1.1/DTD/svg11.dtd">
<!-- Generated by graphviz version 2.43.0 (0)
 -->
<!-- Title: dependency&#45;cruiser output Pages: 1 -->
<svg width="655pt" height="460pt"
 viewBox="0.00 0.00 655.00 460.00" xmlns="http://www.w3.org/2000/svg" xmlns:xlink="http://www.w3.org/1999/xlink">
<g id="graph0" class="graph" transform="scale(1 1) rotate(0) translate(4 456)">
<title>dependency&#45;cruiser output</title>
<polygon fill="white" stroke="transparent" points="-4,4 -4,-456 651,-456 651,4 -4,4"/>
<g id="clust1" class="cluster">
<title>cluster_node_modules</title>
<path fill="#ffffff" stroke="black" stroke-width="2" d="M550,-32C550,-32 627,-32 627,-32 633,-32 639,-38 639,-44 639,-44 639,-132 639,-132 639,-138 633,-144 627,-144 627,-144 550,-144 550,-144 544,-144 538,-138 538,-132 538,-132 538,-44 538,-44 538,-38 544,-32 550,-32"/>
<text text-anchor="middle" x="588.5" y="-132.8" font-family="Helvetica,sans-Serif" font-weight="bold" font-size="9.00">node_modules</text>
</g>
<g id="clust2" class="cluster">
<title>cluster_src</title>
<path fill="#ffffff" stroke="black" stroke-width="2" d="M20,-8C20,-8 518,-8 518,-8 524,-8 530,-14 530,-20 530,-20 530,-432 530,-432 530,-438 524,-444 518,-444 518,-444 20,-444 20,-444 14,-444 8,-438 8,-432 8,-432 8,-20 8,-20 8,-14 14,-8 20,-8"/>
<text text-anchor="middle" x="269" y="-432.8" font-family="Helvetica,sans-Serif" font-weight="bold" font-size="9.00">src</text>
</g>
<g id="clust3" class="cluster">
<title>cluster_src/adapter</title>
<path fill="#ffffff" stroke="black" stroke-width="2" d="M90,-16C90,-16 251,-16 251,-16 257,-16 263,-22 263,-28 263,-28 263,-218 263,-218 263,-224 257,-230 251,-230 251,-230 90,-230 90,-230 84,-230 78,-224 78,-218 78,-218 78,-28 78,-28 78,-22 84,-16 90,-16"/>
<text text-anchor="middle" x="170.5" y="-218.8" font-family="Helvetica,sans-Serif" font-weight="bold" font-size="9.00">adapter</text>
</g>
<g id="clust4" class="cluster">
<title>cluster_src/adapter/in</title>
<path fill="#ffffff" stroke="black" stroke-width="2" d="M111.5,-24C111.5,-24 229.5,-24 229.5,-24 235.5,-24 241.5,-30 241.5,-36 241.5,-36 241.5,-98 241.5,-98 241.5,-104 235.5,-110 229.5,-110 229.5,-110 111.5,-110 111.5,-110 105.5,-110 99.5,-104 99.5,-98 99.5,-98 99.5,-36 99.5,-36 99.5,-30 105.5,-24 111.5,-24"/>
<text text-anchor="middle" x="170.5" y="-98.8" font-family="Helvetica,sans-Serif" font-weight="bold" font-size="9.00">in</text>
</g>
<g id="clust5" class="cluster">
<title>cluster_src/adapter/in/web</title>
<path fill="#ffffff" stroke="black" stroke-width="2" d="M119.5,-32C119.5,-32 221.5,-32 221.5,-32 227.5,-32 233.5,-38 233.5,-44 233.5,-44 233.5,-72 233.5,-72 233.5,-78 227.5,-84 221.5,-84 221.5,-84 119.5,-84 119.5,-84 113.5,-84 107.5,-78 107.5,-72 107.5,-72 107.5,-44 107.5,-44 107.5,-38 113.5,-32 119.5,-32"/>
<text text-anchor="middle" x="170.5" y="-72.8" font-family="Helvetica,sans-Serif" font-weight="bold" font-size="9.00">web</text>
</g>
<g id="clust6" class="cluster">
<title>cluster_src/adapter/out</title>
<path fill="#ffffff" stroke="black" stroke-width="2" d="M98,-118C98,-118 243,-118 243,-118 249,-118 255,-124 255,-130 255,-130 255,-192 255,-192 255,-198 249,-204 243,-204 243,-204 98,-204 98,-204 92,-204 86,-198 86,-192 86,-192 86,-130 86,-130 86,-124 92,-118 98,-118"/>
<text text-anchor="middle" x="170.5" y="-192.8" font-family="Helvetica,sans-Serif" font-weight="bold" font-size="9.00">out</text>
</g>
<g id="clust7" class="cluster">
<title>cluster_src/adapter/out/persistence</title>
<path fill="#ffffff" stroke="black" stroke-width="2" d="M106,-126C106,-126 235,-126 235,-126 241,-126 247,-132 247,-138 247,-138 247,-166 247,-166 247,-172 241,-178 235,-178 235,-178 106,-178 106,-178 100,-178 94,-172 94,-166 94,-166 94,-138 94,-138 94,-132 100,-126 106,-126"/>
<text text-anchor="middle" x="170.5" y="-166.8" font-family="Helvetica,sans-Serif" font-weight="bold" font-size="9.00">persistence</text>
</g>
<g id="clust8" class="cluster">
<title>cluster_src/application</title>
<path fill="#ffffff" stroke="black" stroke-width="2" d="M114.5,-238C114.5,-238 416,-238 416,-238 422,-238 428,-244 428,-250 428,-250 428,-406 428,-406 428,-412 422,-418 416,-418 416,-418 114.5,-418 114.5,-418 108.5,-418 102.5,-412 102.5,-406 102.5,-406 102.5,-250 102.5,-250 102.5,-244 108.5,-238 114.5,-238"/>
<text text-anchor="middle" x="265.25" y="-406.8" font-family="Helvetica,sans-Serif" font-weight="bold" font-size="9.00">application</text>
</g>
<g id="clust9" class="cluster">
<title>cluster_src/application/port</title>
<path fill="#ffffff" stroke="black" stroke-width="2" d="M283,-246C283,-246 408,-246 408,-246 414,-246 420,-252 420,-258 420,-258 420,-380 420,-380 420,-386 414,-392 408,-392 408,-392 283,-392 283,-392 277,-392 271,-386 271,-380 271,-380 271,-258 271,-258 271,-252 277,-246 283,-246"/>
<text text-anchor="middle" x="345.5" y="-380.8" font-family="Helvetica,sans-Serif" font-weight="bold" font-size="9.00">port</text>
</g>
<g id="clust10" class="cluster">
<title>cluster_src/application/port/in</title>
<path fill="#ffffff" stroke="black" stroke-width="2" d="M291,-254C291,-254 400,-254 400,-254 406,-254 412,-260 412,-266 412,-266 412,-294 412,-294 412,-300 406,-306 400,-306 400,-306 291,-306 291,-306 285,-306 279,-300 279,-294 279,-294 279,-266 279,-266 279,-260 285,-254 291,-254"/>
<text text-anchor="middle" x="345.5" y="-294.8" font-family="Helvetica,sans-Serif" font-weight="bold" font-size="9.00">in</text>
</g>
<g id="clust11" class="cluster">
<title>cluster_src/application/port/out</title>
<path fill="#ffffff" stroke="black" stroke-width="2" d="M295.5,-314C295.5,-314 395.5,-314 395.5,-314 401.5,-314 407.5,-320 407.5,-326 407.5,-326 407.5,-354 407.5,-354 407.5,-360 401.5,-366 395.5,-366 395.5,-366 295.5,-366 295.5,-366 289.5,-366 283.5,-360 283.5,-354 283.5,-354 283.5,-326 283.5,-326 283.5,-320 289.5,-314 295.5,-314"/>
<text text-anchor="middle" x="345.5" y="-354.8" font-family="Helvetica,sans-Serif" font-weight="bold" font-size="9.00">out</text>
</g>
<g id="clust12" class="cluster">
<title>cluster_src/application/service</title>
<path fill="#ffffff" stroke="black" stroke-width="2" d="M122.5,-254C122.5,-254 218.5,-254 218.5,-254 224.5,-254 230.5,-260 230.5,-266 230.5,-266 230.5,-294 230.5,-294 230.5,-300 224.5,-306 218.5,-306 218.5,-306 122.5,-306 122.5,-306 116.5,-306 110.5,-300 110.5,-294 110.5,-294 110.5,-266 110.5,-266 110.5,-260 116.5,-254 122.5,-254"/>
<text text-anchor="middle" x="170.5" y="-294.8" font-family="Helvetica,sans-Serif" font-weight="bold" font-size="9.00">service</text>
</g>
<g id="clust13" class="cluster">
<title>cluster_src/domain</title>
<path fill="#ffffff" stroke="black" stroke-width="2" d="M448,-118C448,-118 510,-118 510,-118 516,-118 522,-124 522,-130 522,-130 522,-192 522,-192 522,-198 516,-204 510,-204 510,-204 448,-204 448,-204 442,-204 436,-198 436,-192 436,-192 436,-130 436,-130 436,-124 442,-118 448,-118"/>
<text text-anchor="middle" x="479" y="-192.8" font-family="Helvetica,sans-Serif" font-weight="bold" font-size="9.00">domain</text>
</g>
<g id="clust14" class="cluster">
<title>cluster_src/domain/generated</title>
<path fill="#ffffff" stroke="black" stroke-width="2" d="M456,-126C456,-126 502,-126 502,-126 508,-126 514,-132 514,-138 514,-138 514,-166 514,-166 514,-172 508,-178 502,-178 502,-178 456,-178 456,-178 450,-178 444,-172 444,-166 444,-166 444,-138 444,-138 444,-132 450,-126 456,-126"/>
<text text-anchor="middle" x="479" y="-166.8" font-family="Helvetica,sans-Serif" font-weight="bold" font-size="9.00">generated</text>
</g>
<!-- node_modules/@graphql&#45;tools -->
<g id="node1" class="node">
<title>node_modules/@graphql&#45;tools</title>
<g id="a_node1"><a xlink:href="node_modules/@graphql-tools" xlink:title="@graphql&#45;tools">
<polygon fill="#c40b0a" fill-opacity="0.101961" stroke="black" points="631,-88 548,-88 546,-86 546,-70 629,-70 631,-72 631,-88"/>
<polyline fill="none" stroke="black" points="629,-86 546,-86 "/>
<polyline fill="none" stroke="black" points="629,-86 629,-70 "/>
<polyline fill="none" stroke="black" points="629,-86 631,-88 "/>
<text text-anchor="start" x="554" y="-76.8" font-family="Helvetica,sans-Serif" font-size="9.00" fill="#c40b0a">@graphql&#45;tools</text>
</a>
</g>
</g>
<!-- node_modules/apollo&#45;server -->
<g id="node2" class="node">
<title>node_modules/apollo&#45;server</title>
<g id="a_node2"><a xlink:href="node_modules/apollo-server" xlink:title="apollo&#45;server">
<polygon fill="#c40b0a" fill-opacity="0.101961" stroke="black" points="625.5,-58 553.5,-58 551.5,-56 551.5,-40 623.5,-40 625.5,-42 625.5,-58"/>
<polyline fill="none" stroke="black" points="623.5,-56 551.5,-56 "/>
<polyline fill="none" stroke="black" points="623.5,-56 623.5,-40 "/>
<polyline fill="none" stroke="black" points="623.5,-56 625.5,-58 "/>
<text text-anchor="start" x="559.5" y="-46.8" font-family="Helvetica,sans-Serif" font-size="9.00" fill="#c40b0a">apollo&#45;server</text>
</a>
</g>
</g>
<!-- node_modules/graphql -->
<g id="node3" class="node">
<title>node_modules/graphql</title>
<g id="a_node3"><a xlink:href="node_modules/graphql" xlink:title="graphql">
<polygon fill="#c40b0a" fill-opacity="0.101961" stroke="black" points="615.5,-118 563.5,-118 561.5,-116 561.5,-100 613.5,-100 615.5,-102 615.5,-118"/>
<polyline fill="none" stroke="black" points="613.5,-116 561.5,-116 "/>
<polyline fill="none" stroke="black" points="613.5,-116 613.5,-100 "/>
<polyline fill="none" stroke="black" points="613.5,-116 615.5,-118 "/>
<text text-anchor="start" x="570.5" y="-106.8" font-family="Helvetica,sans-Serif" font-size="9.00" fill="#c40b0a">graphql</text>
</a>
</g>
</g>
<!-- src/adapter/in/web/GraphQLController.ts -->
<g id="node4" class="node">
<title>src/adapter/in/web/GraphQLController.ts</title>
<g id="a_node4"><a xlink:href="src/adapter/in/web/GraphQLController.ts" xlink:title="GraphQLController.ts">
<path fill="#ddfeff" stroke="black" d="M219.5,-58C219.5,-58 121.5,-58 121.5,-58 118.5,-58 115.5,-55 115.5,-52 115.5,-52 115.5,-46 115.5,-46 115.5,-43 118.5,-40 121.5,-40 121.5,-40 219.5,-40 219.5,-40 222.5,-40 225.5,-43 225.5,-46 225.5,-46 225.5,-52 225.5,-52 225.5,-55 222.5,-58 219.5,-58"/>
<text text-anchor="start" x="123.5" y="-46.8" font-family="Helvetica,sans-Serif" font-size="9.00">GraphQLController.ts</text>
</a>
</g>
</g>
<!-- src/adapter/in/web/GraphQLController.ts&#45;&gt;node_modules/@graphql&#45;tools -->
<g id="edge3" class="edge">
<title>src/adapter/in/web/GraphQLController.ts&#45;&gt;node_modules/@graphql&#45;tools</title>
<path fill="none" stroke="#000000" stroke-opacity="0.200000" d="M225.69,-54.81C240.38,-56.29 256.29,-57.8 271,-59 366.23,-66.79 477.79,-73.21 539.78,-76.54"/>
<polygon fill="#000000" fill-opacity="0.200000" stroke="#000000" stroke-opacity="0.200000" points="539.89,-78.65 545.99,-76.87 540.11,-74.45 539.89,-78.65"/>
</g>
<!-- src/adapter/in/web/GraphQLController.ts&#45;&gt;node_modules/apollo&#45;server -->
<g id="edge4" class="edge">
<title>src/adapter/in/web/GraphQLController.ts&#45;&gt;node_modules/apollo&#45;server</title>
<path fill="none" stroke="#000000" stroke-opacity="0.200000" d="M225.88,-49C309.86,-49 469.3,-49 545.24,-49"/>
<polygon fill="#000000" fill-opacity="0.200000" stroke="#000000" stroke-opacity="0.200000" points="545.45,-51.1 551.45,-49 545.45,-46.9 545.45,-51.1"/>
</g>
<!-- src/application/port/in/GetFlashcardsQuery.ts -->
<g id="node5" class="node">
<title>src/application/port/in/GetFlashcardsQuery.ts</title>
<g id="a_node5"><a xlink:href="src/application/port/in/GetFlashcardsQuery.ts" xlink:title="GetFlashcardsQuery.ts">
<path fill="#ddfeff" stroke="black" d="M398,-280C398,-280 293,-280 293,-280 290,-280 287,-277 287,-274 287,-274 287,-268 287,-268 287,-265 290,-262 293,-262 293,-262 398,-262 398,-262 401,-262 404,-265 404,-268 404,-268 404,-274 404,-274 404,-277 401,-280 398,-280"/>
<text text-anchor="start" x="295" y="-268.8" font-family="Helvetica,sans-Serif" font-size="9.00">GetFlashcardsQuery.ts</text>
</a>
</g>
</g>
<!-- src/adapter/in/web/GraphQLController.ts&#45;&gt;src/application/port/in/GetFlashcardsQuery.ts -->
<g id="edge1" class="edge">
<title>src/adapter/in/web/GraphQLController.ts&#45;&gt;src/application/port/in/GetFlashcardsQuery.ts</title>
<path fill="none" stroke="#000000" stroke-width="2" stroke-opacity="0.200000" d="M185.96,-58.09C205.32,-70.79 239.92,-95.43 263,-123 299.24,-166.28 327.05,-228.13 338.63,-256.17"/>
<polygon fill="#000000" fill-opacity="0.200000" stroke="#000000" stroke-width="2" stroke-opacity="0.200000" points="336.76,-257.16 340.97,-261.93 340.65,-255.58 336.76,-257.16"/>
</g>
<!-- src/domain/generated/core.ts -->
<g id="node6" class="node">
<title>src/domain/generated/core.ts</title>
<g id="a_node6"><a xlink:href="src/domain/generated/core.ts" xlink:title="core.ts">
<path fill="#ddfeff" stroke="black" d="M500,-152C500,-152 458,-152 458,-152 455,-152 452,-149 452,-146 452,-146 452,-140 452,-140 452,-137 455,-134 458,-134 458,-134 500,-134 500,-134 503,-134 506,-137 506,-140 506,-140 506,-146 506,-146 506,-149 503,-152 500,-152"/>
<text text-anchor="start" x="463.5" y="-140.8" font-family="Helvetica,sans-Serif" font-size="9.00">core.ts</text>
</a>
</g>
</g>
<!-- src/adapter/in/web/GraphQLController.ts&#45;&gt;src/domain/generated/core.ts -->
<g id="edge2" class="edge">
<title>src/adapter/in/web/GraphQLController.ts&#45;&gt;src/domain/generated/core.ts</title>
<path fill="none" stroke="#000000" stroke-width="2" stroke-opacity="0.200000" d="M193.4,-58.1C213.41,-66.23 243.92,-78.19 271,-87 332.12,-106.88 404.94,-125.42 445.89,-135.38"/>
<polygon fill="#000000" fill-opacity="0.200000" stroke="#000000" stroke-width="2" stroke-opacity="0.200000" points="445.61,-137.47 451.94,-136.84 446.6,-133.39 445.61,-137.47"/>
</g>
<!-- src/application/port/in/GetFlashcardsQuery.ts&#45;&gt;src/domain/generated/core.ts -->
<g id="edge7" class="edge">
<title>src/application/port/in/GetFlashcardsQuery.ts&#45;&gt;src/domain/generated/core.ts</title>
<path fill="none" stroke="#000000" stroke-width="2" stroke-opacity="0.200000" d="M355.96,-261.79C378.89,-239.47 437.55,-182.37 464.32,-156.32"/>
<polygon fill="#000000" fill-opacity="0.200000" stroke="#000000" stroke-width="2" stroke-opacity="0.200000" points="465.79,-157.81 468.63,-152.12 462.86,-154.8 465.79,-157.81"/>
</g>
<!-- src/domain/generated/core.ts&#45;&gt;node_modules/graphql -->
<g id="edge11" class="edge">
<title>src/domain/generated/core.ts&#45;&gt;node_modules/graphql</title>
<path fill="none" stroke="#000000" stroke-opacity="0.200000" d="M506.02,-134.77C520.83,-130.09 539.51,-124.18 555.25,-119.2"/>
<polygon fill="#000000" fill-opacity="0.200000" stroke="#000000" stroke-opacity="0.200000" points="556.26,-121.08 561.34,-117.27 554.99,-117.08 556.26,-121.08"/>
</g>
<!-- src/adapter/out/persistence/MockPersistenceAdapter.ts -->
<g id="node7" class="node">
<title>src/adapter/out/persistence/MockPersistenceAdapter.ts</title>
<g id="a_node7"><a xlink:href="src/adapter/out/persistence/MockPersistenceAdapter.ts" xlink:title="MockPersistenceAdapter.ts">
<path fill="#ddfeff" stroke="black" d="M233,-152C233,-152 108,-152 108,-152 105,-152 102,-149 102,-146 102,-146 102,-140 102,-140 102,-137 105,-134 108,-134 108,-134 233,-134 233,-134 236,-134 239,-137 239,-140 239,-140 239,-146 239,-146 239,-149 236,-152 233,-152"/>
<text text-anchor="start" x="110" y="-140.8" font-family="Helvetica,sans-Serif" font-size="9.00">MockPersistenceAdapter.ts</text>
</a>
</g>
</g>
<!-- src/adapter/out/persistence/MockPersistenceAdapter.ts&#45;&gt;src/domain/generated/core.ts -->
<g id="edge6" class="edge">
<title>src/adapter/out/persistence/MockPersistenceAdapter.ts&#45;&gt;src/domain/generated/core.ts</title>
<path fill="none" stroke="#000000" stroke-width="2" stroke-opacity="0.200000" d="M239.14,-143C303.39,-143 397.18,-143 445.92,-143"/>
<polygon fill="#000000" fill-opacity="0.200000" stroke="#000000" stroke-width="2" stroke-opacity="0.200000" points="445.92,-145.1 451.92,-143 445.92,-140.9 445.92,-145.1"/>
</g>
<!-- src/application/port/out/loadFlashcardPort.ts -->
<g id="node8" class="node">
<title>src/application/port/out/loadFlashcardPort.ts</title>
<g id="a_node8"><a xlink:href="src/application/port/out/loadFlashcardPort.ts" xlink:title="loadFlashcardPort.ts">
<path fill="#ddfeff" stroke="black" d="M393.5,-340C393.5,-340 297.5,-340 297.5,-340 294.5,-340 291.5,-337 291.5,-334 291.5,-334 291.5,-328 291.5,-328 291.5,-325 294.5,-322 297.5,-322 297.5,-322 393.5,-322 393.5,-322 396.5,-322 399.5,-325 399.5,-328 399.5,-328 399.5,-334 399.5,-334 399.5,-337 396.5,-340 393.5,-340"/>
<text text-anchor="start" x="299.5" y="-328.8" font-family="Helvetica,sans-Serif" font-size="9.00">loadFlashcardPort.ts</text>
</a>
</g>
</g>
<!-- src/adapter/out/persistence/MockPersistenceAdapter.ts&#45;&gt;src/application/port/out/loadFlashcardPort.ts -->
<g id="edge5" class="edge">
<title>src/adapter/out/persistence/MockPersistenceAdapter.ts&#45;&gt;src/application/port/out/loadFlashcardPort.ts</title>
<path fill="none" stroke="#000000" stroke-width="2" stroke-opacity="0.200000" d="M182.5,-152.06C202.35,-169.12 243.86,-208.14 263,-251 273.61,-274.76 254.07,-289.24 271,-309 275.1,-313.78 280.18,-317.54 285.76,-320.5"/>
<polygon fill="#000000" fill-opacity="0.200000" stroke="#000000" stroke-width="2" stroke-opacity="0.200000" points="285.15,-322.54 291.47,-323.21 286.95,-318.74 285.15,-322.54"/>
</g>
<!-- src/application/port/out/loadFlashcardPort.ts&#45;&gt;src/domain/generated/core.ts -->
<g id="edge8" class="edge">
<title>src/application/port/out/loadFlashcardPort.ts&#45;&gt;src/domain/generated/core.ts</title>
<path fill="none" stroke="#000000" stroke-width="2" stroke-opacity="0.200000" d="M399.71,-324.91C410.13,-321.58 420.22,-316.56 428,-309 470.73,-267.49 477.27,-190.94 478.04,-158.35"/>
<polygon fill="#000000" fill-opacity="0.200000" stroke="#000000" stroke-width="2" stroke-opacity="0.200000" points="480.15,-158.11 478.13,-152.09 475.95,-158.06 480.15,-158.11"/>
</g>
<!-- src/application/service/FlashcardService.ts -->
<g id="node9" class="node">
<title>src/application/service/FlashcardService.ts</title>
<g id="a_node9"><a xlink:href="src/application/service/FlashcardService.ts" xlink:title="FlashcardService.ts">
<path fill="#ddfeff" stroke="black" d="M216.5,-280C216.5,-280 124.5,-280 124.5,-280 121.5,-280 118.5,-277 118.5,-274 118.5,-274 118.5,-268 118.5,-268 118.5,-265 121.5,-262 124.5,-262 124.5,-262 216.5,-262 216.5,-262 219.5,-262 222.5,-265 222.5,-268 222.5,-268 222.5,-274 222.5,-274 222.5,-277 219.5,-280 216.5,-280"/>
<text text-anchor="start" x="126.5" y="-268.8" font-family="Helvetica,sans-Serif" font-size="9.00">FlashcardService.ts</text>
</a>
</g>
</g>
<!-- src/application/service/FlashcardService.ts&#45;&gt;src/application/port/in/GetFlashcardsQuery.ts -->
<g id="edge9" class="edge">
<title>src/application/service/FlashcardService.ts&#45;&gt;src/application/port/in/GetFlashcardsQuery.ts</title>
<path fill="none" stroke="#000000" stroke-width="2" stroke-opacity="0.200000" d="M222.94,-271C241.01,-271 261.55,-271 280.53,-271"/>
<polygon fill="#000000" fill-opacity="0.200000" stroke="#000000" stroke-width="2" stroke-opacity="0.200000" points="280.9,-273.1 286.9,-271 280.9,-268.9 280.9,-273.1"/>
</g>
<!-- src/application/service/FlashcardService.ts&#45;&gt;src/application/port/out/loadFlashcardPort.ts -->
<g id="edge10" class="edge">
<title>src/application/service/FlashcardService.ts&#45;&gt;src/application/port/out/loadFlashcardPort.ts</title>
<path fill="none" stroke="#000000" stroke-width="2" stroke-opacity="0.200000" d="M193.85,-280.08C213.91,-288.1 244.22,-299.89 271,-309 282.49,-312.91 295.11,-316.82 306.61,-320.24"/>
<polygon fill="#000000" fill-opacity="0.200000" stroke="#000000" stroke-width="2" stroke-opacity="0.200000" points="306.15,-322.3 312.5,-321.98 307.34,-318.27 306.15,-322.3"/>
</g>
<!-- src/index.ts -->
<g id="node10" class="node">
<title>src/index.ts</title>
<g id="a_node10"><a xlink:href="src/index.ts" xlink:title="index.ts">
<path fill="#ddfeff" stroke="black" d="M64,-152C64,-152 22,-152 22,-152 19,-152 16,-149 16,-146 16,-146 16,-140 16,-140 16,-137 19,-134 22,-134 22,-134 64,-134 64,-134 67,-134 70,-137 70,-140 70,-140 70,-146 70,-146 70,-149 67,-152 64,-152"/>
<text text-anchor="start" x="24.5" y="-140.8" font-family="Helvetica,sans-Serif" font-size="9.00">index.ts</text>
</a>
</g>
</g>
<!-- src/index.ts&#45;&gt;src/adapter/in/web/GraphQLController.ts -->
<g id="edge12" class="edge">
<title>src/index.ts&#45;&gt;src/adapter/in/web/GraphQLController.ts</title>
<path fill="none" stroke="#000000" stroke-width="2" stroke-opacity="0.200000" d="M56.03,-133.99C78.46,-117.19 126.72,-81.04 152.48,-61.75"/>
<polygon fill="#000000" fill-opacity="0.200000" stroke="#000000" stroke-width="2" stroke-opacity="0.200000" points="153.78,-63.4 157.32,-58.12 151.26,-60.04 153.78,-63.4"/>
</g>
<!-- src/index.ts&#45;&gt;src/adapter/out/persistence/MockPersistenceAdapter.ts -->
<g id="edge13" class="edge">
<title>src/index.ts&#45;&gt;src/adapter/out/persistence/MockPersistenceAdapter.ts</title>
<path fill="none" stroke="#000000" stroke-width="2" stroke-opacity="0.200000" d="M70,-143C77.72,-143 86.58,-143 95.76,-143"/>
<polygon fill="#000000" fill-opacity="0.200000" stroke="#000000" stroke-width="2" stroke-opacity="0.200000" points="95.84,-145.1 101.84,-143 95.84,-140.9 95.84,-145.1"/>
</g>
<!-- src/index.ts&#45;&gt;src/application/service/FlashcardService.ts -->
<g id="edge14" class="edge">
<title>src/index.ts&#45;&gt;src/application/service/FlashcardService.ts</title>
<path fill="none" stroke="#000000" stroke-width="2" stroke-opacity="0.200000" d="M51.95,-152.21C58.74,-160 68.83,-171.39 78,-181 104.57,-208.85 136.95,-240.1 155.2,-257.48"/>
<polygon fill="#000000" fill-opacity="0.200000" stroke="#000000" stroke-width="2" stroke-opacity="0.200000" points="154.16,-259.38 159.95,-261.99 157.05,-256.34 154.16,-259.38"/>
</g>
</g>
</svg>
