<?xml version="1.0" encoding="UTF-8" standalone="no"?>
<!DOCTYPE svg PUBLIC "-//W3C//DTD SVG 1.1//EN"
 "http://www.w3.org/Graphics/SVG/1.1/DTD/svg11.dtd">
<!-- Generated by graphviz version 2.43.0 (0)
 -->
<!-- Title: dependency&#45;cruiser output Pages: 1 -->
<svg width="774pt" height="556pt"
 viewBox="0.00 0.00 774.00 556.00" xmlns="http://www.w3.org/2000/svg" xmlns:xlink="http://www.w3.org/1999/xlink">
<g id="graph0" class="graph" transform="scale(1 1) rotate(0) translate(4 552)">
<title>dependency&#45;cruiser output</title>
<polygon fill="white" stroke="transparent" points="-4,4 -4,-552 770,-552 770,4 -4,4"/>
<g id="clust1" class="cluster">
<title>cluster_node_modules</title>
<path fill="#ffffff" stroke="black" stroke-width="2" d="M669,-8C669,-8 746,-8 746,-8 752,-8 758,-14 758,-20 758,-20 758,-168 758,-168 758,-174 752,-180 746,-180 746,-180 669,-180 669,-180 663,-180 657,-174 657,-168 657,-168 657,-20 657,-20 657,-14 663,-8 669,-8"/>
<text text-anchor="middle" x="707.5" y="-168.8" font-family="Helvetica,sans-Serif" font-weight="bold" font-size="9.00">node_modules</text>
</g>
<g id="clust2" class="cluster">
<title>cluster_src</title>
<path fill="#ffffff" stroke="black" stroke-width="2" d="M20,-14C20,-14 637,-14 637,-14 643,-14 649,-20 649,-26 649,-26 649,-528 649,-528 649,-534 643,-540 637,-540 637,-540 20,-540 20,-540 14,-540 8,-534 8,-528 8,-528 8,-26 8,-26 8,-20 14,-14 20,-14"/>
<text text-anchor="middle" x="328.5" y="-528.8" font-family="Helvetica,sans-Serif" font-weight="bold" font-size="9.00">src</text>
</g>
<g id="clust3" class="cluster">
<title>cluster_src/adapter</title>
<path fill="#ffffff" stroke="black" stroke-width="2" d="M187,-22C187,-22 367,-22 367,-22 373,-22 379,-28 379,-34 379,-34 379,-254 379,-254 379,-260 373,-266 367,-266 367,-266 187,-266 187,-266 181,-266 175,-260 175,-254 175,-254 175,-34 175,-34 175,-28 181,-22 187,-22"/>
<text text-anchor="middle" x="277" y="-254.8" font-family="Helvetica,sans-Serif" font-weight="bold" font-size="9.00">adapter</text>
</g>
<g id="clust4" class="cluster">
<title>cluster_src/adapter/in</title>
<path fill="#ffffff" stroke="black" stroke-width="2" d="M218,-30C218,-30 336,-30 336,-30 342,-30 348,-36 348,-42 348,-42 348,-104 348,-104 348,-110 342,-116 336,-116 336,-116 218,-116 218,-116 212,-116 206,-110 206,-104 206,-104 206,-42 206,-42 206,-36 212,-30 218,-30"/>
<text text-anchor="middle" x="277" y="-104.8" font-family="Helvetica,sans-Serif" font-weight="bold" font-size="9.00">in</text>
</g>
<g id="clust5" class="cluster">
<title>cluster_src/adapter/in/web</title>
<path fill="#ffffff" stroke="black" stroke-width="2" d="M226,-38C226,-38 328,-38 328,-38 334,-38 340,-44 340,-50 340,-50 340,-78 340,-78 340,-84 334,-90 328,-90 328,-90 226,-90 226,-90 220,-90 214,-84 214,-78 214,-78 214,-50 214,-50 214,-44 220,-38 226,-38"/>
<text text-anchor="middle" x="277" y="-78.8" font-family="Helvetica,sans-Serif" font-weight="bold" font-size="9.00">web</text>
</g>
<g id="clust6" class="cluster">
<title>cluster_src/adapter/out</title>
<path fill="#ffffff" stroke="black" stroke-width="2" d="M195,-124C195,-124 359,-124 359,-124 365,-124 371,-130 371,-136 371,-136 371,-228 371,-228 371,-234 365,-240 359,-240 359,-240 195,-240 195,-240 189,-240 183,-234 183,-228 183,-228 183,-136 183,-136 183,-130 189,-124 195,-124"/>
<text text-anchor="middle" x="277" y="-228.8" font-family="Helvetica,sans-Serif" font-weight="bold" font-size="9.00">out</text>
</g>
<g id="clust7" class="cluster">
<title>cluster_src/adapter/out/persistence</title>
<path fill="#ffffff" stroke="black" stroke-width="2" d="M203,-132C203,-132 351,-132 351,-132 357,-132 363,-138 363,-144 363,-144 363,-202 363,-202 363,-208 357,-214 351,-214 351,-214 203,-214 203,-214 197,-214 191,-208 191,-202 191,-202 191,-144 191,-144 191,-138 197,-132 203,-132"/>
<text text-anchor="middle" x="277" y="-202.8" font-family="Helvetica,sans-Serif" font-weight="bold" font-size="9.00">persistence</text>
</g>
<g id="clust8" class="cluster">
<title>cluster_src/application</title>
<path fill="#ffffff" stroke="black" stroke-width="2" d="M217,-274C217,-274 535,-274 535,-274 541,-274 547,-280 547,-286 547,-286 547,-502 547,-502 547,-508 541,-514 535,-514 535,-514 217,-514 217,-514 211,-514 205,-508 205,-502 205,-502 205,-286 205,-286 205,-280 211,-274 217,-274"/>
<text text-anchor="middle" x="376" y="-502.8" font-family="Helvetica,sans-Serif" font-weight="bold" font-size="9.00">application</text>
</g>
<g id="clust9" class="cluster">
<title>cluster_src/application/port</title>
<path fill="#ffffff" stroke="black" stroke-width="2" d="M399,-282C399,-282 527,-282 527,-282 533,-282 539,-288 539,-294 539,-294 539,-476 539,-476 539,-482 533,-488 527,-488 527,-488 399,-488 399,-488 393,-488 387,-482 387,-476 387,-476 387,-294 387,-294 387,-288 393,-282 399,-282"/>
<text text-anchor="middle" x="463" y="-476.8" font-family="Helvetica,sans-Serif" font-weight="bold" font-size="9.00">port</text>
</g>
<g id="clust10" class="cluster">
<title>cluster_src/application/port/in</title>
<path fill="#ffffff" stroke="black" stroke-width="2" d="M407,-290C407,-290 519,-290 519,-290 525,-290 531,-296 531,-302 531,-302 531,-360 531,-360 531,-366 525,-372 519,-372 519,-372 407,-372 407,-372 401,-372 395,-366 395,-360 395,-360 395,-302 395,-302 395,-296 401,-290 407,-290"/>
<text text-anchor="middle" x="463" y="-360.8" font-family="Helvetica,sans-Serif" font-weight="bold" font-size="9.00">in</text>
</g>
<g id="clust11" class="cluster">
<title>cluster_src/application/port/out</title>
<path fill="#ffffff" stroke="black" stroke-width="2" d="M409,-380C409,-380 517,-380 517,-380 523,-380 529,-386 529,-392 529,-392 529,-450 529,-450 529,-456 523,-462 517,-462 517,-462 409,-462 409,-462 403,-462 397,-456 397,-450 397,-450 397,-392 397,-392 397,-386 403,-380 409,-380"/>
<text text-anchor="middle" x="463" y="-450.8" font-family="Helvetica,sans-Serif" font-weight="bold" font-size="9.00">out</text>
</g>
<g id="clust12" class="cluster">
<title>cluster_src/application/service</title>
<path fill="#ffffff" stroke="black" stroke-width="2" d="M225,-286C225,-286 329,-286 329,-286 335,-286 341,-292 341,-298 341,-298 341,-356 341,-356 341,-362 335,-368 329,-368 329,-368 225,-368 225,-368 219,-368 213,-362 213,-356 213,-356 213,-298 213,-298 213,-292 219,-286 225,-286"/>
<text text-anchor="middle" x="277" y="-356.8" font-family="Helvetica,sans-Serif" font-weight="bold" font-size="9.00">service</text>
</g>
<g id="clust13" class="cluster">
<title>cluster_src/domain</title>
<path fill="#ffffff" stroke="black" stroke-width="2" d="M567,-239C567,-239 629,-239 629,-239 635,-239 641,-245 641,-251 641,-251 641,-313 641,-313 641,-319 635,-325 629,-325 629,-325 567,-325 567,-325 561,-325 555,-319 555,-313 555,-313 555,-251 555,-251 555,-245 561,-239 567,-239"/>
<text text-anchor="middle" x="598" y="-313.8" font-family="Helvetica,sans-Serif" font-weight="bold" font-size="9.00">domain</text>
</g>
<g id="clust14" class="cluster">
<title>cluster_src/domain/generated</title>
<path fill="#ffffff" stroke="black" stroke-width="2" d="M575,-247C575,-247 621,-247 621,-247 627,-247 633,-253 633,-259 633,-259 633,-287 633,-287 633,-293 627,-299 621,-299 621,-299 575,-299 575,-299 569,-299 563,-293 563,-287 563,-287 563,-259 563,-259 563,-253 569,-247 575,-247"/>
<text text-anchor="middle" x="598" y="-287.8" font-family="Helvetica,sans-Serif" font-weight="bold" font-size="9.00">generated</text>
</g>
<!-- node_modules/@graphql&#45;tools -->
<g id="node1" class="node">
<title>node_modules/@graphql&#45;tools</title>
<g id="a_node1"><a xlink:href="node_modules/@graphql-tools" xlink:title="@graphql&#45;tools">
<polygon fill="#c40b0a" fill-opacity="0.101961" stroke="black" points="750,-94 667,-94 665,-92 665,-76 748,-76 750,-78 750,-94"/>
<polyline fill="none" stroke="black" points="748,-92 665,-92 "/>
<polyline fill="none" stroke="black" points="748,-92 748,-76 "/>
<polyline fill="none" stroke="black" points="748,-92 750,-94 "/>
<text text-anchor="start" x="673" y="-82.8" font-family="Helvetica,sans-Serif" font-size="9.00" fill="#c40b0a">@graphql&#45;tools</text>
</a>
</g>
</g>
<!-- node_modules/apollo&#45;server -->
<g id="node2" class="node">
<title>node_modules/apollo&#45;server</title>
<g id="a_node2"><a xlink:href="node_modules/apollo-server" xlink:title="apollo&#45;server">
<polygon fill="#c40b0a" fill-opacity="0.101961" stroke="black" points="744.5,-64 672.5,-64 670.5,-62 670.5,-46 742.5,-46 744.5,-48 744.5,-64"/>
<polyline fill="none" stroke="black" points="742.5,-62 670.5,-62 "/>
<polyline fill="none" stroke="black" points="742.5,-62 742.5,-46 "/>
<polyline fill="none" stroke="black" points="742.5,-62 744.5,-64 "/>
<text text-anchor="start" x="678.5" y="-52.8" font-family="Helvetica,sans-Serif" font-size="9.00" fill="#c40b0a">apollo&#45;server</text>
</a>
</g>
</g>
<!-- node_modules/graphql -->
<g id="node3" class="node">
<title>node_modules/graphql</title>
<g id="a_node3"><a xlink:href="node_modules/graphql" xlink:title="graphql">
<polygon fill="#c40b0a" fill-opacity="0.101961" stroke="black" points="734.5,-154 682.5,-154 680.5,-152 680.5,-136 732.5,-136 734.5,-138 734.5,-154"/>
<polyline fill="none" stroke="black" points="732.5,-152 680.5,-152 "/>
<polyline fill="none" stroke="black" points="732.5,-152 732.5,-136 "/>
<polyline fill="none" stroke="black" points="732.5,-152 734.5,-154 "/>
<text text-anchor="start" x="689.5" y="-142.8" font-family="Helvetica,sans-Serif" font-size="9.00" fill="#c40b0a">graphql</text>
</a>
</g>
</g>
<!-- node_modules/mongodb -->
<g id="node4" class="node">
<title>node_modules/mongodb</title>
<g id="a_node4"><a xlink:href="node_modules/mongodb" xlink:title="mongodb">
<polygon fill="#c40b0a" fill-opacity="0.101961" stroke="black" points="737.5,-124 679.5,-124 677.5,-122 677.5,-106 735.5,-106 737.5,-108 737.5,-124"/>
<polyline fill="none" stroke="black" points="735.5,-122 677.5,-122 "/>
<polyline fill="none" stroke="black" points="735.5,-122 735.5,-106 "/>
<polyline fill="none" stroke="black" points="735.5,-122 737.5,-124 "/>
<text text-anchor="start" x="685.5" y="-112.8" font-family="Helvetica,sans-Serif" font-size="9.00" fill="#c40b0a">mongodb</text>
</a>
</g>
</g>
<!-- node_modules/yargs -->
<g id="node5" class="node">
<title>node_modules/yargs</title>
<g id="a_node5"><a xlink:href="node_modules/yargs" xlink:title="yargs">
<polygon fill="#c40b0a" fill-opacity="0.101961" stroke="black" points="734.5,-34 682.5,-34 680.5,-32 680.5,-16 732.5,-16 734.5,-18 734.5,-34"/>
<polyline fill="none" stroke="black" points="732.5,-32 680.5,-32 "/>
<polyline fill="none" stroke="black" points="732.5,-32 732.5,-16 "/>
<polyline fill="none" stroke="black" points="732.5,-32 734.5,-34 "/>
<text text-anchor="start" x="695" y="-22.8" font-family="Helvetica,sans-Serif" font-size="9.00" fill="#c40b0a">yargs</text>
</a>
</g>
</g>
<!-- src/adapter/in/web/GraphQLController.ts -->
<g id="node6" class="node">
<title>src/adapter/in/web/GraphQLController.ts</title>
<g id="a_node6"><a xlink:href="src/adapter/in/web/GraphQLController.ts" xlink:title="GraphQLController.ts">
<path fill="#ddfeff" stroke="black" d="M326,-64C326,-64 228,-64 228,-64 225,-64 222,-61 222,-58 222,-58 222,-52 222,-52 222,-49 225,-46 228,-46 228,-46 326,-46 326,-46 329,-46 332,-49 332,-52 332,-52 332,-58 332,-58 332,-61 329,-64 326,-64"/>
<text text-anchor="start" x="230" y="-52.8" font-family="Helvetica,sans-Serif" font-size="9.00">GraphQLController.ts</text>
</a>
</g>
</g>
<!-- src/adapter/in/web/GraphQLController.ts&#45;&gt;node_modules/@graphql&#45;tools -->
<g id="edge4" class="edge">
<title>src/adapter/in/web/GraphQLController.ts&#45;&gt;node_modules/@graphql&#45;tools</title>
<path fill="none" stroke="#000000" stroke-opacity="0.200000" d="M332.03,-60.27C349.56,-61.89 369.1,-63.62 387,-65 483.3,-72.43 596.09,-78.99 658.6,-82.44"/>
<polygon fill="#000000" fill-opacity="0.200000" stroke="#000000" stroke-opacity="0.200000" points="658.75,-84.55 664.86,-82.78 658.98,-80.35 658.75,-84.55"/>
</g>
<!-- src/adapter/in/web/GraphQLController.ts&#45;&gt;node_modules/apollo&#45;server -->
<g id="edge5" class="edge">
<title>src/adapter/in/web/GraphQLController.ts&#45;&gt;node_modules/apollo&#45;server</title>
<path fill="none" stroke="#000000" stroke-opacity="0.200000" d="M332.27,-55C418.68,-55 585.76,-55 664.07,-55"/>
<polygon fill="#000000" fill-opacity="0.200000" stroke="#000000" stroke-opacity="0.200000" points="664.46,-57.1 670.46,-55 664.45,-52.9 664.46,-57.1"/>
</g>
<!-- src/application/port/in/GetCheatsheetQuery.ts -->
<g id="node7" class="node">
<title>src/application/port/in/GetCheatsheetQuery.ts</title>
<g id="a_node7"><a xlink:href="src/application/port/in/GetCheatsheetQuery.ts" xlink:title="GetCheatsheetQuery.ts">
<path fill="#ddfeff" stroke="black" d="M517,-346C517,-346 409,-346 409,-346 406,-346 403,-343 403,-340 403,-340 403,-334 403,-334 403,-331 406,-328 409,-328 409,-328 517,-328 517,-328 520,-328 523,-331 523,-334 523,-334 523,-340 523,-340 523,-343 520,-346 517,-346"/>
<text text-anchor="start" x="411" y="-334.8" font-family="Helvetica,sans-Serif" font-size="9.00">GetCheatsheetQuery.ts</text>
</a>
</g>
</g>
<!-- src/adapter/in/web/GraphQLController.ts&#45;&gt;src/application/port/in/GetCheatsheetQuery.ts -->
<g id="edge1" class="edge">
<title>src/adapter/in/web/GraphQLController.ts&#45;&gt;src/application/port/in/GetCheatsheetQuery.ts</title>
<path fill="none" stroke="#000000" stroke-width="2" stroke-opacity="0.200000" d="M300.38,-64.2C324.59,-75.5 362.02,-97.16 379,-129 389.1,-147.94 373.05,-305.69 387,-322 389.97,-325.47 393.49,-328.28 397.36,-330.54"/>
<polygon fill="#000000" fill-opacity="0.200000" stroke="#000000" stroke-width="2" stroke-opacity="0.200000" points="396.54,-332.48 402.85,-333.3 398.43,-328.72 396.54,-332.48"/>
</g>
<!-- src/application/port/in/GetFlashcardsQuery.ts -->
<g id="node8" class="node">
<title>src/application/port/in/GetFlashcardsQuery.ts</title>
<g id="a_node8"><a xlink:href="src/application/port/in/GetFlashcardsQuery.ts" xlink:title="GetFlashcardsQuery.ts">
<path fill="#ddfeff" stroke="black" d="M515.5,-316C515.5,-316 410.5,-316 410.5,-316 407.5,-316 404.5,-313 404.5,-310 404.5,-310 404.5,-304 404.5,-304 404.5,-301 407.5,-298 410.5,-298 410.5,-298 515.5,-298 515.5,-298 518.5,-298 521.5,-301 521.5,-304 521.5,-304 521.5,-310 521.5,-310 521.5,-313 518.5,-316 515.5,-316"/>
<text text-anchor="start" x="412.5" y="-304.8" font-family="Helvetica,sans-Serif" font-size="9.00">GetFlashcardsQuery.ts</text>
</a>
</g>
</g>
<!-- src/adapter/in/web/GraphQLController.ts&#45;&gt;src/application/port/in/GetFlashcardsQuery.ts -->
<g id="edge2" class="edge">
<title>src/adapter/in/web/GraphQLController.ts&#45;&gt;src/application/port/in/GetFlashcardsQuery.ts</title>
<path fill="none" stroke="#000000" stroke-width="2" stroke-opacity="0.200000" d="M298.95,-64.11C322.62,-75.58 360.26,-97.66 379,-129 392.13,-150.96 378.3,-161.94 387,-186 402.34,-228.39 433.89,-271.79 450.76,-293.25"/>
<polygon fill="#000000" fill-opacity="0.200000" stroke="#000000" stroke-width="2" stroke-opacity="0.200000" points="449.15,-294.59 454.52,-297.98 452.43,-291.97 449.15,-294.59"/>
</g>
<!-- src/domain/generated/core.ts -->
<g id="node9" class="node">
<title>src/domain/generated/core.ts</title>
<g id="a_node9"><a xlink:href="src/domain/generated/core.ts" xlink:title="core.ts">
<path fill="#ddfeff" stroke="black" d="M619,-273C619,-273 577,-273 577,-273 574,-273 571,-270 571,-267 571,-267 571,-261 571,-261 571,-258 574,-255 577,-255 577,-255 619,-255 619,-255 622,-255 625,-258 625,-261 625,-261 625,-267 625,-267 625,-270 622,-273 619,-273"/>
<text text-anchor="start" x="582.5" y="-261.8" font-family="Helvetica,sans-Serif" font-size="9.00">core.ts</text>
</a>
</g>
</g>
<!-- src/adapter/in/web/GraphQLController.ts&#45;&gt;src/domain/generated/core.ts -->
<g id="edge3" class="edge">
<title>src/adapter/in/web/GraphQLController.ts&#45;&gt;src/domain/generated/core.ts</title>
<path fill="none" stroke="#000000" stroke-width="2" stroke-opacity="0.200000" d="M300.19,-64.07C357.16,-87.64 506.91,-151.45 547,-187 566.97,-204.71 582.2,-232.19 590.36,-249.09"/>
<polygon fill="#000000" fill-opacity="0.200000" stroke="#000000" stroke-width="2" stroke-opacity="0.200000" points="588.59,-250.26 593.04,-254.8 592.39,-248.47 588.59,-250.26"/>
</g>
<!-- src/application/port/in/GetCheatsheetQuery.ts&#45;&gt;src/domain/generated/core.ts -->
<g id="edge13" class="edge">
<title>src/application/port/in/GetCheatsheetQuery.ts&#45;&gt;src/domain/generated/core.ts</title>
<path fill="none" stroke="#000000" stroke-width="2" stroke-opacity="0.200000" d="M523.35,-331.41C531.62,-329.18 539.75,-326.14 547,-322 565.18,-311.61 579.92,-292.05 588.56,-278.54"/>
<polygon fill="#000000" fill-opacity="0.200000" stroke="#000000" stroke-width="2" stroke-opacity="0.200000" points="590.52,-279.37 591.89,-273.16 586.95,-277.16 590.52,-279.37"/>
</g>
<!-- src/application/port/in/GetFlashcardsQuery.ts&#45;&gt;src/domain/generated/core.ts -->
<g id="edge14" class="edge">
<title>src/application/port/in/GetFlashcardsQuery.ts&#45;&gt;src/domain/generated/core.ts</title>
<path fill="none" stroke="#000000" stroke-width="2" stroke-opacity="0.200000" d="M491.88,-297.99C513.28,-291.07 542.84,-281.51 565.16,-274.29"/>
<polygon fill="#000000" fill-opacity="0.200000" stroke="#000000" stroke-width="2" stroke-opacity="0.200000" points="565.9,-276.26 570.96,-272.42 564.61,-272.27 565.9,-276.26"/>
</g>
<!-- src/domain/generated/core.ts&#45;&gt;node_modules/graphql -->
<g id="edge29" class="edge">
<title>src/domain/generated/core.ts&#45;&gt;node_modules/graphql</title>
<path fill="none" stroke="#000000" stroke-opacity="0.200000" d="M607.44,-254.66C626.27,-233.81 671.85,-183.35 694,-158.84"/>
<polygon fill="#000000" fill-opacity="0.200000" stroke="#000000" stroke-opacity="0.200000" points="695.64,-160.15 698.1,-154.29 692.52,-157.34 695.64,-160.15"/>
</g>
<!-- src/adapter/out/persistence/MockPersistenceAdapter.ts -->
<g id="node10" class="node">
<title>src/adapter/out/persistence/MockPersistenceAdapter.ts</title>
<g id="a_node10"><a xlink:href="src/adapter/out/persistence/MockPersistenceAdapter.ts" xlink:title="MockPersistenceAdapter.ts">
<path fill="#ddfeff" stroke="black" d="M339.5,-188C339.5,-188 214.5,-188 214.5,-188 211.5,-188 208.5,-185 208.5,-182 208.5,-182 208.5,-176 208.5,-176 208.5,-173 211.5,-170 214.5,-170 214.5,-170 339.5,-170 339.5,-170 342.5,-170 345.5,-173 345.5,-176 345.5,-176 345.5,-182 345.5,-182 345.5,-185 342.5,-188 339.5,-188"/>
<text text-anchor="start" x="216.5" y="-176.8" font-family="Helvetica,sans-Serif" font-size="9.00">MockPersistenceAdapter.ts</text>
</a>
</g>
</g>
<!-- src/adapter/out/persistence/MockPersistenceAdapter.ts&#45;&gt;src/domain/generated/core.ts -->
<g id="edge8" class="edge">
<title>src/adapter/out/persistence/MockPersistenceAdapter.ts&#45;&gt;src/domain/generated/core.ts</title>
<path fill="none" stroke="#000000" stroke-width="2" stroke-opacity="0.200000" d="M311.84,-188.02C373.69,-204.5 504.21,-239.28 564.82,-255.42"/>
<polygon fill="#000000" fill-opacity="0.200000" stroke="#000000" stroke-width="2" stroke-opacity="0.200000" points="564.47,-257.51 570.81,-257.02 565.55,-253.45 564.47,-257.51"/>
</g>
<!-- src/application/port/out/loadCheatsheetPort.ts -->
<g id="node11" class="node">
<title>src/application/port/out/loadCheatsheetPort.ts</title>
<g id="a_node11"><a xlink:href="src/application/port/out/loadCheatsheetPort.ts" xlink:title="loadCheatsheetPort.ts">
<path fill="#ddfeff" stroke="black" d="M515,-436C515,-436 411,-436 411,-436 408,-436 405,-433 405,-430 405,-430 405,-424 405,-424 405,-421 408,-418 411,-418 411,-418 515,-418 515,-418 518,-418 521,-421 521,-424 521,-424 521,-430 521,-430 521,-433 518,-436 515,-436"/>
<text text-anchor="start" x="413" y="-424.8" font-family="Helvetica,sans-Serif" font-size="9.00">loadCheatsheetPort.ts</text>
</a>
</g>
</g>
<!-- src/adapter/out/persistence/MockPersistenceAdapter.ts&#45;&gt;src/application/port/out/loadCheatsheetPort.ts -->
<g id="edge6" class="edge">
<title>src/adapter/out/persistence/MockPersistenceAdapter.ts&#45;&gt;src/application/port/out/loadCheatsheetPort.ts</title>
<path fill="none" stroke="#000000" stroke-width="2" stroke-opacity="0.200000" d="M291.91,-188.21C314.85,-204.3 359.97,-239.96 379,-283 390.62,-309.27 368.11,-390.36 387,-412 390.45,-415.95 394.63,-419.05 399.22,-421.44"/>
<polygon fill="#000000" fill-opacity="0.200000" stroke="#000000" stroke-width="2" stroke-opacity="0.200000" points="398.45,-423.4 404.78,-423.95 400.17,-419.57 398.45,-423.4"/>
</g>
<!-- src/application/port/out/loadFlashcardPort.ts -->
<g id="node12" class="node">
<title>src/application/port/out/loadFlashcardPort.ts</title>
<g id="a_node12"><a xlink:href="src/application/port/out/loadFlashcardPort.ts" xlink:title="loadFlashcardPort.ts">
<path fill="#ddfeff" stroke="black" d="M511,-406C511,-406 415,-406 415,-406 412,-406 409,-403 409,-400 409,-400 409,-394 409,-394 409,-391 412,-388 415,-388 415,-388 511,-388 511,-388 514,-388 517,-391 517,-394 517,-394 517,-400 517,-400 517,-403 514,-406 511,-406"/>
<text text-anchor="start" x="417" y="-394.8" font-family="Helvetica,sans-Serif" font-size="9.00">loadFlashcardPort.ts</text>
</a>
</g>
</g>
<!-- src/adapter/out/persistence/MockPersistenceAdapter.ts&#45;&gt;src/application/port/out/loadFlashcardPort.ts -->
<g id="edge7" class="edge">
<title>src/adapter/out/persistence/MockPersistenceAdapter.ts&#45;&gt;src/application/port/out/loadFlashcardPort.ts</title>
<path fill="none" stroke="#000000" stroke-width="2" stroke-opacity="0.200000" d="M291.43,-188.01C314.08,-204.05 359.33,-239.97 379,-283 387.53,-301.66 374,-359.12 387,-375 391.34,-380.31 396.9,-384.37 403.01,-387.49"/>
<polygon fill="#000000" fill-opacity="0.200000" stroke="#000000" stroke-width="2" stroke-opacity="0.200000" points="402.43,-389.53 408.76,-390.08 404.16,-385.7 402.43,-389.53"/>
</g>
<!-- src/application/port/out/loadCheatsheetPort.ts&#45;&gt;src/domain/generated/core.ts -->
<g id="edge15" class="edge">
<title>src/application/port/out/loadCheatsheetPort.ts&#45;&gt;src/domain/generated/core.ts</title>
<path fill="none" stroke="#000000" stroke-width="2" stroke-opacity="0.200000" d="M521.2,-424.91C530.62,-422.37 539.68,-418.31 547,-412 587.09,-377.41 595.11,-309.5 596.66,-279.21"/>
<polygon fill="#000000" fill-opacity="0.200000" stroke="#000000" stroke-width="2" stroke-opacity="0.200000" points="598.77,-279.09 596.91,-273.01 594.57,-278.92 598.77,-279.09"/>
</g>
<!-- src/application/port/out/loadFlashcardPort.ts&#45;&gt;src/domain/generated/core.ts -->
<g id="edge16" class="edge">
<title>src/application/port/out/loadFlashcardPort.ts&#45;&gt;src/domain/generated/core.ts</title>
<path fill="none" stroke="#000000" stroke-width="2" stroke-opacity="0.200000" d="M517.01,-390.4C527.82,-387.11 538.47,-382.23 547,-375 576.76,-349.76 589.6,-303.19 594.45,-279.18"/>
<polygon fill="#000000" fill-opacity="0.200000" stroke="#000000" stroke-width="2" stroke-opacity="0.200000" points="596.56,-279.33 595.61,-273.05 592.43,-278.55 596.56,-279.33"/>
</g>
<!-- src/adapter/out/persistence/MongodbPersistenceAdapter.ts -->
<g id="node13" class="node">
<title>src/adapter/out/persistence/MongodbPersistenceAdapter.ts</title>
<g id="a_node13"><a xlink:href="src/adapter/out/persistence/MongodbPersistenceAdapter.ts" xlink:title="MongodbPersistenceAdapter.ts">
<path fill="#ddfeff" stroke="black" d="M349,-158C349,-158 205,-158 205,-158 202,-158 199,-155 199,-152 199,-152 199,-146 199,-146 199,-143 202,-140 205,-140 205,-140 349,-140 349,-140 352,-140 355,-143 355,-146 355,-146 355,-152 355,-152 355,-155 352,-158 349,-158"/>
<text text-anchor="start" x="207" y="-146.8" font-family="Helvetica,sans-Serif" font-size="9.00">MongodbPersistenceAdapter.ts</text>
</a>
</g>
</g>
<!-- src/adapter/out/persistence/MongodbPersistenceAdapter.ts&#45;&gt;node_modules/mongodb -->
<g id="edge12" class="edge">
<title>src/adapter/out/persistence/MongodbPersistenceAdapter.ts&#45;&gt;node_modules/mongodb</title>
<path fill="none" stroke="#000000" stroke-opacity="0.200000" d="M355.1,-142.88C448.66,-135.46 602.41,-123.26 671.25,-117.8"/>
<polygon fill="#000000" fill-opacity="0.200000" stroke="#000000" stroke-opacity="0.200000" points="671.43,-119.89 677.25,-117.32 671.1,-115.7 671.43,-119.89"/>
</g>
<!-- src/adapter/out/persistence/MongodbPersistenceAdapter.ts&#45;&gt;src/domain/generated/core.ts -->
<g id="edge11" class="edge">
<title>src/adapter/out/persistence/MongodbPersistenceAdapter.ts&#45;&gt;src/domain/generated/core.ts</title>
<path fill="none" stroke="#000000" stroke-width="2" stroke-opacity="0.200000" d="M355.1,-151.45C363.78,-154.25 372,-158.28 379,-164 387.06,-170.58 378.93,-179.44 387,-186 442.75,-231.31 483.54,-175.32 547,-209 564.75,-218.42 579.41,-236.74 588.17,-249.64"/>
<polygon fill="#000000" fill-opacity="0.200000" stroke="#000000" stroke-width="2" stroke-opacity="0.200000" points="586.51,-250.93 591.55,-254.79 590.02,-248.62 586.51,-250.93"/>
</g>
<!-- src/adapter/out/persistence/MongodbPersistenceAdapter.ts&#45;&gt;src/application/port/out/loadCheatsheetPort.ts -->
<g id="edge9" class="edge">
<title>src/adapter/out/persistence/MongodbPersistenceAdapter.ts&#45;&gt;src/application/port/out/loadCheatsheetPort.ts</title>
<path fill="none" stroke="#000000" stroke-width="2" stroke-opacity="0.200000" d="M355.02,-148.76C364.15,-151.88 372.51,-156.72 379,-164 397.34,-184.58 369.18,-390.96 387,-412 390.45,-416.08 394.68,-419.24 399.34,-421.69"/>
<polygon fill="#000000" fill-opacity="0.200000" stroke="#000000" stroke-width="2" stroke-opacity="0.200000" points="398.66,-423.68 405,-424.23 400.39,-419.85 398.66,-423.68"/>
</g>
<!-- src/adapter/out/persistence/MongodbPersistenceAdapter.ts&#45;&gt;src/application/port/out/loadFlashcardPort.ts -->
<g id="edge10" class="edge">
<title>src/adapter/out/persistence/MongodbPersistenceAdapter.ts&#45;&gt;src/application/port/out/loadFlashcardPort.ts</title>
<path fill="none" stroke="#000000" stroke-width="2" stroke-opacity="0.200000" d="M355.48,-148.96C364.42,-152.08 372.61,-156.87 379,-164 394.66,-181.47 372.58,-356.49 387,-375 391.28,-380.49 396.85,-384.67 403.03,-387.83"/>
<polygon fill="#000000" fill-opacity="0.200000" stroke="#000000" stroke-width="2" stroke-opacity="0.200000" points="402.52,-389.91 408.86,-390.46 404.25,-386.08 402.52,-389.91"/>
</g>
<!-- src/application/service/CheatsheetService.ts -->
<g id="node14" class="node">
<title>src/application/service/CheatsheetService.ts</title>
<g id="a_node14"><a xlink:href="src/application/service/CheatsheetService.ts" xlink:title="CheatsheetService.ts">
<path fill="#ddfeff" stroke="black" d="M327,-342C327,-342 227,-342 227,-342 224,-342 221,-339 221,-336 221,-336 221,-330 221,-330 221,-327 224,-324 227,-324 227,-324 327,-324 327,-324 330,-324 333,-327 333,-330 333,-330 333,-336 333,-336 333,-339 330,-342 327,-342"/>
<text text-anchor="start" x="229" y="-330.8" font-family="Helvetica,sans-Serif" font-size="9.00">CheatsheetService.ts</text>
</a>
</g>
</g>
<!-- src/application/service/CheatsheetService.ts&#45;&gt;src/application/port/in/GetCheatsheetQuery.ts -->
<g id="edge17" class="edge">
<title>src/application/service/CheatsheetService.ts&#45;&gt;src/application/port/in/GetCheatsheetQuery.ts</title>
<path fill="none" stroke="#000000" stroke-width="2" stroke-opacity="0.200000" d="M333.21,-334.2C353.25,-334.64 376.07,-335.13 396.89,-335.58"/>
<polygon fill="#000000" fill-opacity="0.200000" stroke="#000000" stroke-width="2" stroke-opacity="0.200000" points="396.95,-337.69 402.99,-335.72 397.04,-333.49 396.95,-337.69"/>
</g>
<!-- src/application/service/CheatsheetService.ts&#45;&gt;src/application/port/out/loadCheatsheetPort.ts -->
<g id="edge18" class="edge">
<title>src/application/service/CheatsheetService.ts&#45;&gt;src/application/port/out/loadCheatsheetPort.ts</title>
<path fill="none" stroke="#000000" stroke-width="2" stroke-opacity="0.200000" d="M287.6,-342.23C305.56,-358.94 346.1,-394.11 387,-412 390.76,-413.64 394.71,-415.11 398.74,-416.42"/>
<polygon fill="#000000" fill-opacity="0.200000" stroke="#000000" stroke-width="2" stroke-opacity="0.200000" points="398.34,-418.49 404.69,-418.22 399.56,-414.47 398.34,-418.49"/>
</g>
<!-- src/application/service/FlashcardService.ts -->
<g id="node15" class="node">
<title>src/application/service/FlashcardService.ts</title>
<g id="a_node15"><a xlink:href="src/application/service/FlashcardService.ts" xlink:title="FlashcardService.ts">
<path fill="#ddfeff" stroke="black" d="M323,-312C323,-312 231,-312 231,-312 228,-312 225,-309 225,-306 225,-306 225,-300 225,-300 225,-297 228,-294 231,-294 231,-294 323,-294 323,-294 326,-294 329,-297 329,-300 329,-300 329,-306 329,-306 329,-309 326,-312 323,-312"/>
<text text-anchor="start" x="233" y="-300.8" font-family="Helvetica,sans-Serif" font-size="9.00">FlashcardService.ts</text>
</a>
</g>
</g>
<!-- src/application/service/FlashcardService.ts&#45;&gt;src/application/port/in/GetFlashcardsQuery.ts -->
<g id="edge19" class="edge">
<title>src/application/service/FlashcardService.ts&#45;&gt;src/application/port/in/GetFlashcardsQuery.ts</title>
<path fill="none" stroke="#000000" stroke-width="2" stroke-opacity="0.200000" d="M329.25,-304.11C350.54,-304.58 375.47,-305.12 397.95,-305.61"/>
<polygon fill="#000000" fill-opacity="0.200000" stroke="#000000" stroke-width="2" stroke-opacity="0.200000" points="398.17,-307.71 404.22,-305.74 398.26,-303.51 398.17,-307.71"/>
</g>
<!-- src/application/service/FlashcardService.ts&#45;&gt;src/application/port/out/loadFlashcardPort.ts -->
<g id="edge20" class="edge">
<title>src/application/service/FlashcardService.ts&#45;&gt;src/application/port/out/loadFlashcardPort.ts</title>
<path fill="none" stroke="#000000" stroke-width="2" stroke-opacity="0.200000" d="M329.07,-298.76C347.1,-300.03 366.08,-304.97 379,-318 397.02,-336.16 370.28,-355.64 387,-375 391.41,-380.11 396.95,-384.07 403,-387.12"/>
<polygon fill="#000000" fill-opacity="0.200000" stroke="#000000" stroke-width="2" stroke-opacity="0.200000" points="402.35,-389.13 408.68,-389.68 404.07,-385.3 402.35,-389.13"/>
</g>
<!-- src/config.mock.ts -->
<g id="node16" class="node">
<title>src/config.mock.ts</title>
<g id="a_node16"><a xlink:href="src/config.mock.ts" xlink:title="config.mock.ts">
<path fill="#ddfeff" stroke="black" d="M161,-188C161,-188 89,-188 89,-188 86,-188 83,-185 83,-182 83,-182 83,-176 83,-176 83,-173 86,-170 89,-170 89,-170 161,-170 161,-170 164,-170 167,-173 167,-176 167,-176 167,-182 167,-182 167,-185 164,-188 161,-188"/>
<text text-anchor="start" x="91" y="-176.8" font-family="Helvetica,sans-Serif" font-size="9.00">config.mock.ts</text>
</a>
</g>
</g>
<!-- src/config.mock.ts&#45;&gt;src/adapter/in/web/GraphQLController.ts -->
<g id="edge21" class="edge">
<title>src/config.mock.ts&#45;&gt;src/adapter/in/web/GraphQLController.ts</title>
<path fill="none" stroke="#000000" stroke-width="2" stroke-opacity="0.200000" d="M160.03,-169.84C162.62,-168.2 165,-166.27 167,-164 177.55,-152.03 166.23,-142.33 175,-129 193.68,-100.58 227.25,-79.26 250.54,-66.97"/>
<polygon fill="#000000" fill-opacity="0.200000" stroke="#000000" stroke-width="2" stroke-opacity="0.200000" points="251.56,-68.81 255.93,-64.19 249.63,-65.08 251.56,-68.81"/>
</g>
<!-- src/config.mock.ts&#45;&gt;src/adapter/out/persistence/MockPersistenceAdapter.ts -->
<g id="edge22" class="edge">
<title>src/config.mock.ts&#45;&gt;src/adapter/out/persistence/MockPersistenceAdapter.ts</title>
<path fill="none" stroke="#000000" stroke-width="2" stroke-opacity="0.200000" d="M167.39,-179C178.17,-179 190.12,-179 202.03,-179"/>
<polygon fill="#000000" fill-opacity="0.200000" stroke="#000000" stroke-width="2" stroke-opacity="0.200000" points="202.25,-181.1 208.25,-179 202.25,-176.9 202.25,-181.1"/>
</g>
<!-- src/config.mock.ts&#45;&gt;src/application/service/CheatsheetService.ts -->
<g id="edge23" class="edge">
<title>src/config.mock.ts&#45;&gt;src/application/service/CheatsheetService.ts</title>
<path fill="none" stroke="#000000" stroke-width="2" stroke-opacity="0.200000" d="M126.19,-188.26C127.26,-213.54 133.94,-284.14 175,-318 186.13,-327.18 200.39,-332.04 214.66,-334.4"/>
<polygon fill="#000000" fill-opacity="0.200000" stroke="#000000" stroke-width="2" stroke-opacity="0.200000" points="214.54,-336.5 220.77,-335.26 215.12,-332.34 214.54,-336.5"/>
</g>
<!-- src/config.mock.ts&#45;&gt;src/application/service/FlashcardService.ts -->
<g id="edge24" class="edge">
<title>src/config.mock.ts&#45;&gt;src/application/service/FlashcardService.ts</title>
<path fill="none" stroke="#000000" stroke-width="2" stroke-opacity="0.200000" d="M137.27,-188.32C163.68,-210.15 229.6,-264.65 260.08,-289.84"/>
<polygon fill="#000000" fill-opacity="0.200000" stroke="#000000" stroke-width="2" stroke-opacity="0.200000" points="259.04,-291.7 265,-293.91 261.72,-288.47 259.04,-291.7"/>
</g>
<!-- src/config.prod.ts -->
<g id="node17" class="node">
<title>src/config.prod.ts</title>
<g id="a_node17"><a xlink:href="src/config.prod.ts" xlink:title="config.prod.ts">
<path fill="#ddfeff" stroke="black" d="M159,-158C159,-158 91,-158 91,-158 88,-158 85,-155 85,-152 85,-152 85,-146 85,-146 85,-143 88,-140 91,-140 91,-140 159,-140 159,-140 162,-140 165,-143 165,-146 165,-146 165,-152 165,-152 165,-155 162,-158 159,-158"/>
<text text-anchor="start" x="93" y="-146.8" font-family="Helvetica,sans-Serif" font-size="9.00">config.prod.ts</text>
</a>
</g>
</g>
<!-- src/config.prod.ts&#45;&gt;src/adapter/in/web/GraphQLController.ts -->
<g id="edge25" class="edge">
<title>src/config.prod.ts&#45;&gt;src/adapter/in/web/GraphQLController.ts</title>
<path fill="none" stroke="#000000" stroke-width="2" stroke-opacity="0.200000" d="M140.38,-139.99C167.3,-123.12 225.35,-86.74 256.04,-67.51"/>
<polygon fill="#000000" fill-opacity="0.200000" stroke="#000000" stroke-width="2" stroke-opacity="0.200000" points="257.47,-69.09 261.44,-64.12 255.24,-65.53 257.47,-69.09"/>
</g>
<!-- src/config.prod.ts&#45;&gt;src/adapter/out/persistence/MongodbPersistenceAdapter.ts -->
<g id="edge26" class="edge">
<title>src/config.prod.ts&#45;&gt;src/adapter/out/persistence/MongodbPersistenceAdapter.ts</title>
<path fill="none" stroke="#000000" stroke-width="2" stroke-opacity="0.200000" d="M165.02,-149C173.65,-149 183.1,-149 192.75,-149"/>
<polygon fill="#000000" fill-opacity="0.200000" stroke="#000000" stroke-width="2" stroke-opacity="0.200000" points="192.77,-151.1 198.77,-149 192.77,-146.9 192.77,-151.1"/>
</g>
<!-- src/config.prod.ts&#45;&gt;src/application/service/CheatsheetService.ts -->
<g id="edge27" class="edge">
<title>src/config.prod.ts&#45;&gt;src/application/service/CheatsheetService.ts</title>
<path fill="none" stroke="#000000" stroke-width="2" stroke-opacity="0.200000" d="M160.84,-158.07C163.18,-159.72 165.29,-161.68 167,-164 177.18,-177.78 163.48,-305.32 175,-318 185.21,-329.23 199.89,-334.63 214.91,-336.84"/>
<polygon fill="#000000" fill-opacity="0.200000" stroke="#000000" stroke-width="2" stroke-opacity="0.200000" points="214.69,-338.93 220.9,-337.56 215.19,-334.76 214.69,-338.93"/>
</g>
<!-- src/config.prod.ts&#45;&gt;src/application/service/FlashcardService.ts -->
<g id="edge28" class="edge">
<title>src/config.prod.ts&#45;&gt;src/application/service/FlashcardService.ts</title>
<path fill="none" stroke="#000000" stroke-width="2" stroke-opacity="0.200000" d="M160.21,-158C162.76,-159.67 165.08,-161.65 167,-164 182.07,-182.45 163.42,-196.18 175,-217 193.45,-250.17 230,-276.27 253.7,-290.66"/>
<polygon fill="#000000" fill-opacity="0.200000" stroke="#000000" stroke-width="2" stroke-opacity="0.200000" points="252.9,-292.63 259.13,-293.89 255.05,-289.02 252.9,-292.63"/>
</g>
<!-- src/index.ts -->
<g id="node18" class="node">
<title>src/index.ts</title>
<g id="a_node18"><a xlink:href="src/index.ts" xlink:title="index.ts">
<path fill="#ddfeff" stroke="black" d="M64,-134C64,-134 22,-134 22,-134 19,-134 16,-131 16,-128 16,-128 16,-122 16,-122 16,-119 19,-116 22,-116 22,-116 64,-116 64,-116 67,-116 70,-119 70,-122 70,-122 70,-128 70,-128 70,-131 67,-134 64,-134"/>
<text text-anchor="start" x="24.5" y="-122.8" font-family="Helvetica,sans-Serif" font-size="9.00">index.ts</text>
</a>
</g>
</g>
<!-- src/index.ts&#45;&gt;node_modules/yargs -->
<g id="edge33" class="edge">
<title>src/index.ts&#45;&gt;node_modules/yargs</title>
<path fill="none" stroke="#000000" stroke-opacity="0.200000" d="M51.34,-115.7C58.68,-106.81 70.64,-93.39 83,-84 156.53,-28.12 183.65,-7 276,-7 276,-7 276,-7 464,-7 539.55,-7 627.98,-15.8 674.36,-21.09"/>
<polygon fill="#000000" fill-opacity="0.200000" stroke="#000000" stroke-opacity="0.200000" points="674.15,-23.18 680.35,-21.78 674.63,-19.01 674.15,-23.18"/>
</g>
<!-- src/index.ts&#45;&gt;src/adapter/in/web/GraphQLController.ts -->
<g id="edge30" class="edge">
<title>src/index.ts&#45;&gt;src/adapter/in/web/GraphQLController.ts</title>
<path fill="none" stroke="#000000" stroke-width="2" stroke-opacity="0.200000" d="M70.16,-117.11C111.76,-104.56 193.05,-80.03 240.07,-65.84"/>
<polygon fill="#000000" fill-opacity="0.200000" stroke="#000000" stroke-width="2" stroke-opacity="0.200000" points="240.78,-67.82 245.91,-64.08 239.56,-63.8 240.78,-67.82"/>
</g>
<!-- src/index.ts&#45;&gt;src/config.mock.ts -->
<g id="edge31" class="edge">
<title>src/index.ts&#45;&gt;src/config.mock.ts</title>
<path fill="none" stroke="#000000" stroke-width="2" stroke-opacity="0.200000" d="M51.16,-134.19C58.38,-142.91 70.25,-155.86 83,-164 84.73,-165.1 86.54,-166.14 88.41,-167.11"/>
<polygon fill="#000000" fill-opacity="0.200000" stroke="#000000" stroke-width="2" stroke-opacity="0.200000" points="87.83,-169.15 94.15,-169.83 89.63,-165.36 87.83,-169.15"/>
</g>
<!-- src/index.ts&#45;&gt;src/config.prod.ts -->
<g id="edge32" class="edge">
<title>src/index.ts&#45;&gt;src/config.prod.ts</title>
<path fill="none" stroke="#000000" stroke-width="2" stroke-opacity="0.200000" d="M70.19,-132.86C75.87,-134.56 81.96,-136.39 87.94,-138.18"/>
<polygon fill="#000000" fill-opacity="0.200000" stroke="#000000" stroke-width="2" stroke-opacity="0.200000" points="87.51,-140.24 93.86,-139.96 88.72,-136.22 87.51,-140.24"/>
</g>
</g>
</svg>
