<?xml version="1.0" encoding="UTF-8" standalone="no"?>
<!DOCTYPE svg PUBLIC "-//W3C//DTD SVG 1.1//EN"
 "http://www.w3.org/Graphics/SVG/1.1/DTD/svg11.dtd">
<!-- Generated by graphviz version 2.43.0 (0)
 -->
<!-- Title: dependency&#45;cruiser output Pages: 1 -->
<svg width="774pt" height="594pt"
 viewBox="0.00 0.00 774.00 594.00" xmlns="http://www.w3.org/2000/svg" xmlns:xlink="http://www.w3.org/1999/xlink">
<g id="graph0" class="graph" transform="scale(1 1) rotate(0) translate(4 590)">
<title>dependency&#45;cruiser output</title>
<polygon fill="white" stroke="transparent" points="-4,4 -4,-590 770,-590 770,4 -4,4"/>
<g id="clust1" class="cluster">
<title>cluster_node_modules</title>
<path fill="#ffffff" stroke="black" stroke-width="2" d="M669,-8C669,-8 746,-8 746,-8 752,-8 758,-14 758,-20 758,-20 758,-198 758,-198 758,-204 752,-210 746,-210 746,-210 669,-210 669,-210 663,-210 657,-204 657,-198 657,-198 657,-20 657,-20 657,-14 663,-8 669,-8"/>
<text text-anchor="middle" x="707.5" y="-198.8" font-family="Helvetica,sans-Serif" font-weight="bold" font-size="9.00">node_modules</text>
</g>
<g id="clust2" class="cluster">
<title>cluster_src</title>
<path fill="#ffffff" stroke="black" stroke-width="2" d="M20,-52C20,-52 637,-52 637,-52 643,-52 649,-58 649,-64 649,-64 649,-566 649,-566 649,-572 643,-578 637,-578 637,-578 20,-578 20,-578 14,-578 8,-572 8,-566 8,-566 8,-64 8,-64 8,-58 14,-52 20,-52"/>
<text text-anchor="middle" x="328.5" y="-566.8" font-family="Helvetica,sans-Serif" font-weight="bold" font-size="9.00">src</text>
</g>
<g id="clust3" class="cluster">
<title>cluster_src/adapter</title>
<path fill="#ffffff" stroke="black" stroke-width="2" d="M187,-60C187,-60 367,-60 367,-60 373,-60 379,-66 379,-72 379,-72 379,-292 379,-292 379,-298 373,-304 367,-304 367,-304 187,-304 187,-304 181,-304 175,-298 175,-292 175,-292 175,-72 175,-72 175,-66 181,-60 187,-60"/>
<text text-anchor="middle" x="277" y="-292.8" font-family="Helvetica,sans-Serif" font-weight="bold" font-size="9.00">adapter</text>
</g>
<g id="clust4" class="cluster">
<title>cluster_src/adapter/in</title>
<path fill="#ffffff" stroke="black" stroke-width="2" d="M218,-68C218,-68 336,-68 336,-68 342,-68 348,-74 348,-80 348,-80 348,-142 348,-142 348,-148 342,-154 336,-154 336,-154 218,-154 218,-154 212,-154 206,-148 206,-142 206,-142 206,-80 206,-80 206,-74 212,-68 218,-68"/>
<text text-anchor="middle" x="277" y="-142.8" font-family="Helvetica,sans-Serif" font-weight="bold" font-size="9.00">in</text>
</g>
<g id="clust5" class="cluster">
<title>cluster_src/adapter/in/web</title>
<path fill="#ffffff" stroke="black" stroke-width="2" d="M226,-76C226,-76 328,-76 328,-76 334,-76 340,-82 340,-88 340,-88 340,-116 340,-116 340,-122 334,-128 328,-128 328,-128 226,-128 226,-128 220,-128 214,-122 214,-116 214,-116 214,-88 214,-88 214,-82 220,-76 226,-76"/>
<text text-anchor="middle" x="277" y="-116.8" font-family="Helvetica,sans-Serif" font-weight="bold" font-size="9.00">web</text>
</g>
<g id="clust6" class="cluster">
<title>cluster_src/adapter/out</title>
<path fill="#ffffff" stroke="black" stroke-width="2" d="M195,-162C195,-162 359,-162 359,-162 365,-162 371,-168 371,-174 371,-174 371,-266 371,-266 371,-272 365,-278 359,-278 359,-278 195,-278 195,-278 189,-278 183,-272 183,-266 183,-266 183,-174 183,-174 183,-168 189,-162 195,-162"/>
<text text-anchor="middle" x="277" y="-266.8" font-family="Helvetica,sans-Serif" font-weight="bold" font-size="9.00">out</text>
</g>
<g id="clust7" class="cluster">
<title>cluster_src/adapter/out/persistence</title>
<path fill="#ffffff" stroke="black" stroke-width="2" d="M203,-170C203,-170 351,-170 351,-170 357,-170 363,-176 363,-182 363,-182 363,-240 363,-240 363,-246 357,-252 351,-252 351,-252 203,-252 203,-252 197,-252 191,-246 191,-240 191,-240 191,-182 191,-182 191,-176 197,-170 203,-170"/>
<text text-anchor="middle" x="277" y="-240.8" font-family="Helvetica,sans-Serif" font-weight="bold" font-size="9.00">persistence</text>
</g>
<g id="clust8" class="cluster">
<title>cluster_src/application</title>
<path fill="#ffffff" stroke="black" stroke-width="2" d="M217,-312C217,-312 535,-312 535,-312 541,-312 547,-318 547,-324 547,-324 547,-540 547,-540 547,-546 541,-552 535,-552 535,-552 217,-552 217,-552 211,-552 205,-546 205,-540 205,-540 205,-324 205,-324 205,-318 211,-312 217,-312"/>
<text text-anchor="middle" x="376" y="-540.8" font-family="Helvetica,sans-Serif" font-weight="bold" font-size="9.00">application</text>
</g>
<g id="clust9" class="cluster">
<title>cluster_src/application/port</title>
<path fill="#ffffff" stroke="black" stroke-width="2" d="M399,-320C399,-320 527,-320 527,-320 533,-320 539,-326 539,-332 539,-332 539,-514 539,-514 539,-520 533,-526 527,-526 527,-526 399,-526 399,-526 393,-526 387,-520 387,-514 387,-514 387,-332 387,-332 387,-326 393,-320 399,-320"/>
<text text-anchor="middle" x="463" y="-514.8" font-family="Helvetica,sans-Serif" font-weight="bold" font-size="9.00">port</text>
</g>
<g id="clust10" class="cluster">
<title>cluster_src/application/port/in</title>
<path fill="#ffffff" stroke="black" stroke-width="2" d="M407,-328C407,-328 519,-328 519,-328 525,-328 531,-334 531,-340 531,-340 531,-398 531,-398 531,-404 525,-410 519,-410 519,-410 407,-410 407,-410 401,-410 395,-404 395,-398 395,-398 395,-340 395,-340 395,-334 401,-328 407,-328"/>
<text text-anchor="middle" x="463" y="-398.8" font-family="Helvetica,sans-Serif" font-weight="bold" font-size="9.00">in</text>
</g>
<g id="clust11" class="cluster">
<title>cluster_src/application/port/out</title>
<path fill="#ffffff" stroke="black" stroke-width="2" d="M409,-418C409,-418 517,-418 517,-418 523,-418 529,-424 529,-430 529,-430 529,-488 529,-488 529,-494 523,-500 517,-500 517,-500 409,-500 409,-500 403,-500 397,-494 397,-488 397,-488 397,-430 397,-430 397,-424 403,-418 409,-418"/>
<text text-anchor="middle" x="463" y="-488.8" font-family="Helvetica,sans-Serif" font-weight="bold" font-size="9.00">out</text>
</g>
<g id="clust12" class="cluster">
<title>cluster_src/application/service</title>
<path fill="#ffffff" stroke="black" stroke-width="2" d="M225,-324C225,-324 329,-324 329,-324 335,-324 341,-330 341,-336 341,-336 341,-394 341,-394 341,-400 335,-406 329,-406 329,-406 225,-406 225,-406 219,-406 213,-400 213,-394 213,-394 213,-336 213,-336 213,-330 219,-324 225,-324"/>
<text text-anchor="middle" x="277" y="-394.8" font-family="Helvetica,sans-Serif" font-weight="bold" font-size="9.00">service</text>
</g>
<g id="clust13" class="cluster">
<title>cluster_src/domain</title>
<path fill="#ffffff" stroke="black" stroke-width="2" d="M567,-277C567,-277 629,-277 629,-277 635,-277 641,-283 641,-289 641,-289 641,-351 641,-351 641,-357 635,-363 629,-363 629,-363 567,-363 567,-363 561,-363 555,-357 555,-351 555,-351 555,-289 555,-289 555,-283 561,-277 567,-277"/>
<text text-anchor="middle" x="598" y="-351.8" font-family="Helvetica,sans-Serif" font-weight="bold" font-size="9.00">domain</text>
</g>
<g id="clust14" class="cluster">
<title>cluster_src/domain/generated</title>
<path fill="#ffffff" stroke="black" stroke-width="2" d="M575,-285C575,-285 621,-285 621,-285 627,-285 633,-291 633,-297 633,-297 633,-325 633,-325 633,-331 627,-337 621,-337 621,-337 575,-337 575,-337 569,-337 563,-331 563,-325 563,-325 563,-297 563,-297 563,-291 569,-285 575,-285"/>
<text text-anchor="middle" x="598" y="-325.8" font-family="Helvetica,sans-Serif" font-weight="bold" font-size="9.00">generated</text>
</g>
<!-- node_modules/@graphql&#45;tools -->
<g id="node1" class="node">
<title>node_modules/@graphql&#45;tools</title>
<g id="a_node1"><a xlink:href="node_modules/@graphql-tools" xlink:title="@graphql&#45;tools">
<polygon fill="#c40b0a" fill-opacity="0.101961" stroke="black" points="750,-94 667,-94 665,-92 665,-76 748,-76 750,-78 750,-94"/>
<polyline fill="none" stroke="black" points="748,-92 665,-92 "/>
<polyline fill="none" stroke="black" points="748,-92 748,-76 "/>
<polyline fill="none" stroke="black" points="748,-92 750,-94 "/>
<text text-anchor="start" x="673" y="-82.8" font-family="Helvetica,sans-Serif" font-size="9.00" fill="#c40b0a">@graphql&#45;tools</text>
</a>
</g>
</g>
<!-- node_modules/apollo&#45;server -->
<g id="node2" class="node">
<title>node_modules/apollo&#45;server</title>
<g id="a_node2"><a xlink:href="node_modules/apollo-server" xlink:title="apollo&#45;server">
<polygon fill="#c40b0a" fill-opacity="0.101961" stroke="black" points="744.5,-124 672.5,-124 670.5,-122 670.5,-106 742.5,-106 744.5,-108 744.5,-124"/>
<polyline fill="none" stroke="black" points="742.5,-122 670.5,-122 "/>
<polyline fill="none" stroke="black" points="742.5,-122 742.5,-106 "/>
<polyline fill="none" stroke="black" points="742.5,-122 744.5,-124 "/>
<text text-anchor="start" x="678.5" y="-112.8" font-family="Helvetica,sans-Serif" font-size="9.00" fill="#c40b0a">apollo&#45;server</text>
</a>
</g>
</g>
<!-- node_modules/dotenv -->
<g id="node3" class="node">
<title>node_modules/dotenv</title>
<g id="a_node3"><a xlink:href="node_modules/dotenv" xlink:title="dotenv">
<polygon fill="#c40b0a" fill-opacity="0.101961" stroke="black" points="734.5,-34 682.5,-34 680.5,-32 680.5,-16 732.5,-16 734.5,-18 734.5,-34"/>
<polyline fill="none" stroke="black" points="732.5,-32 680.5,-32 "/>
<polyline fill="none" stroke="black" points="732.5,-32 732.5,-16 "/>
<polyline fill="none" stroke="black" points="732.5,-32 734.5,-34 "/>
<text text-anchor="start" x="691.5" y="-22.8" font-family="Helvetica,sans-Serif" font-size="9.00" fill="#c40b0a">dotenv</text>
</a>
</g>
</g>
<!-- node_modules/graphql -->
<g id="node4" class="node">
<title>node_modules/graphql</title>
<g id="a_node4"><a xlink:href="node_modules/graphql" xlink:title="graphql">
<polygon fill="#c40b0a" fill-opacity="0.101961" stroke="black" points="734.5,-184 682.5,-184 680.5,-182 680.5,-166 732.5,-166 734.5,-168 734.5,-184"/>
<polyline fill="none" stroke="black" points="732.5,-182 680.5,-182 "/>
<polyline fill="none" stroke="black" points="732.5,-182 732.5,-166 "/>
<polyline fill="none" stroke="black" points="732.5,-182 734.5,-184 "/>
<text text-anchor="start" x="689.5" y="-172.8" font-family="Helvetica,sans-Serif" font-size="9.00" fill="#c40b0a">graphql</text>
</a>
</g>
</g>
<!-- node_modules/mongodb -->
<g id="node5" class="node">
<title>node_modules/mongodb</title>
<g id="a_node5"><a xlink:href="node_modules/mongodb" xlink:title="mongodb">
<polygon fill="#c40b0a" fill-opacity="0.101961" stroke="black" points="737.5,-154 679.5,-154 677.5,-152 677.5,-136 735.5,-136 737.5,-138 737.5,-154"/>
<polyline fill="none" stroke="black" points="735.5,-152 677.5,-152 "/>
<polyline fill="none" stroke="black" points="735.5,-152 735.5,-136 "/>
<polyline fill="none" stroke="black" points="735.5,-152 737.5,-154 "/>
<text text-anchor="start" x="685.5" y="-142.8" font-family="Helvetica,sans-Serif" font-size="9.00" fill="#c40b0a">mongodb</text>
</a>
</g>
</g>
<!-- node_modules/yargs -->
<g id="node6" class="node">
<title>node_modules/yargs</title>
<g id="a_node6"><a xlink:href="node_modules/yargs" xlink:title="yargs">
<polygon fill="#c40b0a" fill-opacity="0.101961" stroke="black" points="734.5,-64 682.5,-64 680.5,-62 680.5,-46 732.5,-46 734.5,-48 734.5,-64"/>
<polyline fill="none" stroke="black" points="732.5,-62 680.5,-62 "/>
<polyline fill="none" stroke="black" points="732.5,-62 732.5,-46 "/>
<polyline fill="none" stroke="black" points="732.5,-62 734.5,-64 "/>
<text text-anchor="start" x="695" y="-52.8" font-family="Helvetica,sans-Serif" font-size="9.00" fill="#c40b0a">yargs</text>
</a>
</g>
</g>
<!-- src/adapter/in/web/GraphQLController.ts -->
<g id="node7" class="node">
<title>src/adapter/in/web/GraphQLController.ts</title>
<g id="a_node7"><a xlink:href="src/adapter/in/web/GraphQLController.ts" xlink:title="GraphQLController.ts">
<path fill="#ddfeff" stroke="black" d="M326,-102C326,-102 228,-102 228,-102 225,-102 222,-99 222,-96 222,-96 222,-90 222,-90 222,-87 225,-84 228,-84 228,-84 326,-84 326,-84 329,-84 332,-87 332,-90 332,-90 332,-96 332,-96 332,-99 329,-102 326,-102"/>
<text text-anchor="start" x="230" y="-90.8" font-family="Helvetica,sans-Serif" font-size="9.00">GraphQLController.ts</text>
</a>
</g>
</g>
<!-- src/adapter/in/web/GraphQLController.ts&#45;&gt;node_modules/@graphql&#45;tools -->
<g id="edge4" class="edge">
<title>src/adapter/in/web/GraphQLController.ts&#45;&gt;node_modules/@graphql&#45;tools</title>
<path fill="none" stroke="#000000" stroke-opacity="0.200000" d="M332.27,-91.99C416.77,-90.41 578.41,-87.39 658.74,-85.89"/>
<polygon fill="#000000" fill-opacity="0.200000" stroke="#000000" stroke-opacity="0.200000" points="658.89,-87.99 664.85,-85.78 658.81,-83.79 658.89,-87.99"/>
</g>
<!-- src/adapter/in/web/GraphQLController.ts&#45;&gt;node_modules/apollo&#45;server -->
<g id="edge5" class="edge">
<title>src/adapter/in/web/GraphQLController.ts&#45;&gt;node_modules/apollo&#45;server</title>
<path fill="none" stroke="#000000" stroke-opacity="0.200000" d="M332.05,-96.03C349.58,-97 369.11,-98.06 387,-99 486.2,-104.21 602.74,-109.95 663.97,-112.94"/>
<polygon fill="#000000" fill-opacity="0.200000" stroke="#000000" stroke-opacity="0.200000" points="663.99,-115.04 670.08,-113.24 664.19,-110.85 663.99,-115.04"/>
</g>
<!-- src/application/port/in/GetCheatsheetQuery.ts -->
<g id="node8" class="node">
<title>src/application/port/in/GetCheatsheetQuery.ts</title>
<g id="a_node8"><a xlink:href="src/application/port/in/GetCheatsheetQuery.ts" xlink:title="GetCheatsheetQuery.ts">
<path fill="#ddfeff" stroke="black" d="M517,-354C517,-354 409,-354 409,-354 406,-354 403,-351 403,-348 403,-348 403,-342 403,-342 403,-339 406,-336 409,-336 409,-336 517,-336 517,-336 520,-336 523,-339 523,-342 523,-342 523,-348 523,-348 523,-351 520,-354 517,-354"/>
<text text-anchor="start" x="411" y="-342.8" font-family="Helvetica,sans-Serif" font-size="9.00">GetCheatsheetQuery.ts</text>
</a>
</g>
</g>
<!-- src/adapter/in/web/GraphQLController.ts&#45;&gt;src/application/port/in/GetCheatsheetQuery.ts -->
<g id="edge1" class="edge">
<title>src/adapter/in/web/GraphQLController.ts&#45;&gt;src/application/port/in/GetCheatsheetQuery.ts</title>
<path fill="none" stroke="#000000" stroke-width="2" stroke-opacity="0.200000" d="M298.88,-102.15C322.48,-113.67 360.05,-135.78 379,-167 391.13,-186.99 379.1,-196.99 387,-219 402.77,-262.92 434.41,-308.54 451.11,-330.91"/>
<polygon fill="#000000" fill-opacity="0.200000" stroke="#000000" stroke-width="2" stroke-opacity="0.200000" points="449.53,-332.31 454.82,-335.83 452.88,-329.78 449.53,-332.31"/>
</g>
<!-- src/application/port/in/GetFlashcardsQuery.ts -->
<g id="node9" class="node">
<title>src/application/port/in/GetFlashcardsQuery.ts</title>
<g id="a_node9"><a xlink:href="src/application/port/in/GetFlashcardsQuery.ts" xlink:title="GetFlashcardsQuery.ts">
<path fill="#ddfeff" stroke="black" d="M515.5,-384C515.5,-384 410.5,-384 410.5,-384 407.5,-384 404.5,-381 404.5,-378 404.5,-378 404.5,-372 404.5,-372 404.5,-369 407.5,-366 410.5,-366 410.5,-366 515.5,-366 515.5,-366 518.5,-366 521.5,-369 521.5,-372 521.5,-372 521.5,-378 521.5,-378 521.5,-381 518.5,-384 515.5,-384"/>
<text text-anchor="start" x="412.5" y="-372.8" font-family="Helvetica,sans-Serif" font-size="9.00">GetFlashcardsQuery.ts</text>
</a>
</g>
</g>
<!-- src/adapter/in/web/GraphQLController.ts&#45;&gt;src/application/port/in/GetFlashcardsQuery.ts -->
<g id="edge2" class="edge">
<title>src/adapter/in/web/GraphQLController.ts&#45;&gt;src/application/port/in/GetFlashcardsQuery.ts</title>
<path fill="none" stroke="#000000" stroke-width="2" stroke-opacity="0.200000" d="M300.38,-102.2C324.59,-113.5 362.02,-135.16 379,-167 389.1,-185.94 373.05,-343.69 387,-360 390.28,-363.83 394.23,-366.86 398.59,-369.23"/>
<polygon fill="#000000" fill-opacity="0.200000" stroke="#000000" stroke-width="2" stroke-opacity="0.200000" points="397.98,-371.26 404.31,-371.9 399.76,-367.46 397.98,-371.26"/>
</g>
<!-- src/domain/generated/core.ts -->
<g id="node10" class="node">
<title>src/domain/generated/core.ts</title>
<g id="a_node10"><a xlink:href="src/domain/generated/core.ts" xlink:title="core.ts">
<path fill="#ddfeff" stroke="black" d="M619,-311C619,-311 577,-311 577,-311 574,-311 571,-308 571,-305 571,-305 571,-299 571,-299 571,-296 574,-293 577,-293 577,-293 619,-293 619,-293 622,-293 625,-296 625,-299 625,-299 625,-305 625,-305 625,-308 622,-311 619,-311"/>
<text text-anchor="start" x="582.5" y="-299.8" font-family="Helvetica,sans-Serif" font-size="9.00">core.ts</text>
</a>
</g>
</g>
<!-- src/adapter/in/web/GraphQLController.ts&#45;&gt;src/domain/generated/core.ts -->
<g id="edge3" class="edge">
<title>src/adapter/in/web/GraphQLController.ts&#45;&gt;src/domain/generated/core.ts</title>
<path fill="none" stroke="#000000" stroke-width="2" stroke-opacity="0.200000" d="M311.76,-102.02C366.52,-118.04 475.75,-155.96 547,-220 568.28,-239.13 583.5,-269.46 591.22,-287.38"/>
<polygon fill="#000000" fill-opacity="0.200000" stroke="#000000" stroke-width="2" stroke-opacity="0.200000" points="589.29,-288.22 593.55,-292.94 593.17,-286.6 589.29,-288.22"/>
</g>
<!-- src/application/port/in/GetCheatsheetQuery.ts&#45;&gt;src/domain/generated/core.ts -->
<g id="edge13" class="edge">
<title>src/application/port/in/GetCheatsheetQuery.ts&#45;&gt;src/domain/generated/core.ts</title>
<path fill="none" stroke="#000000" stroke-width="2" stroke-opacity="0.200000" d="M491.88,-335.99C513.28,-329.07 542.84,-319.51 565.16,-312.29"/>
<polygon fill="#000000" fill-opacity="0.200000" stroke="#000000" stroke-width="2" stroke-opacity="0.200000" points="565.9,-314.26 570.96,-310.42 564.61,-310.27 565.9,-314.26"/>
</g>
<!-- src/application/port/in/GetFlashcardsQuery.ts&#45;&gt;src/domain/generated/core.ts -->
<g id="edge14" class="edge">
<title>src/application/port/in/GetFlashcardsQuery.ts&#45;&gt;src/domain/generated/core.ts</title>
<path fill="none" stroke="#000000" stroke-width="2" stroke-opacity="0.200000" d="M521.61,-369.86C530.47,-367.6 539.24,-364.43 547,-360 565.18,-349.61 579.92,-330.05 588.56,-316.54"/>
<polygon fill="#000000" fill-opacity="0.200000" stroke="#000000" stroke-width="2" stroke-opacity="0.200000" points="590.52,-317.37 591.89,-311.16 586.95,-315.16 590.52,-317.37"/>
</g>
<!-- src/domain/generated/core.ts&#45;&gt;node_modules/graphql -->
<g id="edge29" class="edge">
<title>src/domain/generated/core.ts&#45;&gt;node_modules/graphql</title>
<path fill="none" stroke="#000000" stroke-opacity="0.200000" d="M606.73,-292.87C625.33,-270.9 672.64,-215 694.77,-188.86"/>
<polygon fill="#000000" fill-opacity="0.200000" stroke="#000000" stroke-opacity="0.200000" points="696.57,-189.99 698.84,-184.05 693.36,-187.27 696.57,-189.99"/>
</g>
<!-- src/adapter/out/persistence/MockPersistenceAdapter.ts -->
<g id="node11" class="node">
<title>src/adapter/out/persistence/MockPersistenceAdapter.ts</title>
<g id="a_node11"><a xlink:href="src/adapter/out/persistence/MockPersistenceAdapter.ts" xlink:title="MockPersistenceAdapter.ts">
<path fill="#ddfeff" stroke="black" d="M339.5,-226C339.5,-226 214.5,-226 214.5,-226 211.5,-226 208.5,-223 208.5,-220 208.5,-220 208.5,-214 208.5,-214 208.5,-211 211.5,-208 214.5,-208 214.5,-208 339.5,-208 339.5,-208 342.5,-208 345.5,-211 345.5,-214 345.5,-214 345.5,-220 345.5,-220 345.5,-223 342.5,-226 339.5,-226"/>
<text text-anchor="start" x="216.5" y="-214.8" font-family="Helvetica,sans-Serif" font-size="9.00">MockPersistenceAdapter.ts</text>
</a>
</g>
</g>
<!-- src/adapter/out/persistence/MockPersistenceAdapter.ts&#45;&gt;src/domain/generated/core.ts -->
<g id="edge8" class="edge">
<title>src/adapter/out/persistence/MockPersistenceAdapter.ts&#45;&gt;src/domain/generated/core.ts</title>
<path fill="none" stroke="#000000" stroke-width="2" stroke-opacity="0.200000" d="M311.84,-226.02C373.69,-242.5 504.21,-277.28 564.82,-293.42"/>
<polygon fill="#000000" fill-opacity="0.200000" stroke="#000000" stroke-width="2" stroke-opacity="0.200000" points="564.47,-295.51 570.81,-295.02 565.55,-291.45 564.47,-295.51"/>
</g>
<!-- src/application/port/out/loadCheatsheetPort.ts -->
<g id="node12" class="node">
<title>src/application/port/out/loadCheatsheetPort.ts</title>
<g id="a_node12"><a xlink:href="src/application/port/out/loadCheatsheetPort.ts" xlink:title="loadCheatsheetPort.ts">
<path fill="#ddfeff" stroke="black" d="M515,-444C515,-444 411,-444 411,-444 408,-444 405,-441 405,-438 405,-438 405,-432 405,-432 405,-429 408,-426 411,-426 411,-426 515,-426 515,-426 518,-426 521,-429 521,-432 521,-432 521,-438 521,-438 521,-441 518,-444 515,-444"/>
<text text-anchor="start" x="413" y="-432.8" font-family="Helvetica,sans-Serif" font-size="9.00">loadCheatsheetPort.ts</text>
</a>
</g>
</g>
<!-- src/adapter/out/persistence/MockPersistenceAdapter.ts&#45;&gt;src/application/port/out/loadCheatsheetPort.ts -->
<g id="edge6" class="edge">
<title>src/adapter/out/persistence/MockPersistenceAdapter.ts&#45;&gt;src/application/port/out/loadCheatsheetPort.ts</title>
<path fill="none" stroke="#000000" stroke-width="2" stroke-opacity="0.200000" d="M291.43,-226.01C314.08,-242.05 359.33,-277.97 379,-321 387.53,-339.66 374,-397.12 387,-413 390.4,-417.15 394.54,-420.54 399.1,-423.31"/>
<polygon fill="#000000" fill-opacity="0.200000" stroke="#000000" stroke-width="2" stroke-opacity="0.200000" points="398.36,-425.3 404.64,-426.29 400.35,-421.6 398.36,-425.3"/>
</g>
<!-- src/application/port/out/loadFlashcardPort.ts -->
<g id="node13" class="node">
<title>src/application/port/out/loadFlashcardPort.ts</title>
<g id="a_node13"><a xlink:href="src/application/port/out/loadFlashcardPort.ts" xlink:title="loadFlashcardPort.ts">
<path fill="#ddfeff" stroke="black" d="M511,-474C511,-474 415,-474 415,-474 412,-474 409,-471 409,-468 409,-468 409,-462 409,-462 409,-459 412,-456 415,-456 415,-456 511,-456 511,-456 514,-456 517,-459 517,-462 517,-462 517,-468 517,-468 517,-471 514,-474 511,-474"/>
<text text-anchor="start" x="417" y="-462.8" font-family="Helvetica,sans-Serif" font-size="9.00">loadFlashcardPort.ts</text>
</a>
</g>
</g>
<!-- src/adapter/out/persistence/MockPersistenceAdapter.ts&#45;&gt;src/application/port/out/loadFlashcardPort.ts -->
<g id="edge7" class="edge">
<title>src/adapter/out/persistence/MockPersistenceAdapter.ts&#45;&gt;src/application/port/out/loadFlashcardPort.ts</title>
<path fill="none" stroke="#000000" stroke-width="2" stroke-opacity="0.200000" d="M291.91,-226.21C314.85,-242.3 359.97,-277.96 379,-321 390.62,-347.27 368.11,-428.36 387,-450 391.41,-455.05 397.01,-458.7 403.14,-461.29"/>
<polygon fill="#000000" fill-opacity="0.200000" stroke="#000000" stroke-width="2" stroke-opacity="0.200000" points="402.55,-463.31 408.91,-463.39 403.99,-459.36 402.55,-463.31"/>
</g>
<!-- src/application/port/out/loadCheatsheetPort.ts&#45;&gt;src/domain/generated/core.ts -->
<g id="edge15" class="edge">
<title>src/application/port/out/loadCheatsheetPort.ts&#45;&gt;src/domain/generated/core.ts</title>
<path fill="none" stroke="#000000" stroke-width="2" stroke-opacity="0.200000" d="M521.32,-427C530.62,-423.77 539.61,-419.27 547,-413 576.76,-387.76 589.6,-341.19 594.45,-317.18"/>
<polygon fill="#000000" fill-opacity="0.200000" stroke="#000000" stroke-width="2" stroke-opacity="0.200000" points="596.56,-317.33 595.61,-311.05 592.43,-316.55 596.56,-317.33"/>
</g>
<!-- src/application/port/out/loadFlashcardPort.ts&#45;&gt;src/domain/generated/core.ts -->
<g id="edge16" class="edge">
<title>src/application/port/out/loadFlashcardPort.ts&#45;&gt;src/domain/generated/core.ts</title>
<path fill="none" stroke="#000000" stroke-width="2" stroke-opacity="0.200000" d="M517.33,-463.87C528.12,-461.43 538.68,-457.17 547,-450 587.09,-415.41 595.11,-347.5 596.66,-317.21"/>
<polygon fill="#000000" fill-opacity="0.200000" stroke="#000000" stroke-width="2" stroke-opacity="0.200000" points="598.77,-317.09 596.91,-311.01 594.57,-316.92 598.77,-317.09"/>
</g>
<!-- src/adapter/out/persistence/MongodbPersistenceAdapter.ts -->
<g id="node14" class="node">
<title>src/adapter/out/persistence/MongodbPersistenceAdapter.ts</title>
<g id="a_node14"><a xlink:href="src/adapter/out/persistence/MongodbPersistenceAdapter.ts" xlink:title="MongodbPersistenceAdapter.ts">
<path fill="#ddfeff" stroke="black" d="M349,-196C349,-196 205,-196 205,-196 202,-196 199,-193 199,-190 199,-190 199,-184 199,-184 199,-181 202,-178 205,-178 205,-178 349,-178 349,-178 352,-178 355,-181 355,-184 355,-184 355,-190 355,-190 355,-193 352,-196 349,-196"/>
<text text-anchor="start" x="207" y="-184.8" font-family="Helvetica,sans-Serif" font-size="9.00">MongodbPersistenceAdapter.ts</text>
</a>
</g>
</g>
<!-- src/adapter/out/persistence/MongodbPersistenceAdapter.ts&#45;&gt;node_modules/mongodb -->
<g id="edge12" class="edge">
<title>src/adapter/out/persistence/MongodbPersistenceAdapter.ts&#45;&gt;node_modules/mongodb</title>
<path fill="none" stroke="#000000" stroke-opacity="0.200000" d="M355.1,-179.44C448.66,-170.27 602.41,-155.2 671.25,-148.46"/>
<polygon fill="#000000" fill-opacity="0.200000" stroke="#000000" stroke-opacity="0.200000" points="671.48,-150.54 677.25,-147.87 671.07,-146.36 671.48,-150.54"/>
</g>
<!-- src/adapter/out/persistence/MongodbPersistenceAdapter.ts&#45;&gt;src/domain/generated/core.ts -->
<g id="edge11" class="edge">
<title>src/adapter/out/persistence/MongodbPersistenceAdapter.ts&#45;&gt;src/domain/generated/core.ts</title>
<path fill="none" stroke="#000000" stroke-width="2" stroke-opacity="0.200000" d="M355.13,-190.24C363.7,-192.92 371.89,-196.71 379,-202 385.7,-206.98 380.33,-213.97 387,-219 444.53,-262.37 483.98,-210.09 547,-245 565.14,-255.05 579.88,-274.31 588.54,-287.64"/>
<polygon fill="#000000" fill-opacity="0.200000" stroke="#000000" stroke-width="2" stroke-opacity="0.200000" points="586.91,-288.98 591.88,-292.95 590.46,-286.75 586.91,-288.98"/>
</g>
<!-- src/adapter/out/persistence/MongodbPersistenceAdapter.ts&#45;&gt;src/application/port/out/loadCheatsheetPort.ts -->
<g id="edge9" class="edge">
<title>src/adapter/out/persistence/MongodbPersistenceAdapter.ts&#45;&gt;src/application/port/out/loadCheatsheetPort.ts</title>
<path fill="none" stroke="#000000" stroke-width="2" stroke-opacity="0.200000" d="M355.48,-186.96C364.42,-190.08 372.61,-194.87 379,-202 394.66,-219.47 372.58,-394.49 387,-413 390.43,-417.4 394.69,-420.96 399.43,-423.83"/>
<polygon fill="#000000" fill-opacity="0.200000" stroke="#000000" stroke-width="2" stroke-opacity="0.200000" points="398.47,-425.69 404.75,-426.68 400.45,-421.99 398.47,-425.69"/>
</g>
<!-- src/adapter/out/persistence/MongodbPersistenceAdapter.ts&#45;&gt;src/application/port/out/loadFlashcardPort.ts -->
<g id="edge10" class="edge">
<title>src/adapter/out/persistence/MongodbPersistenceAdapter.ts&#45;&gt;src/application/port/out/loadFlashcardPort.ts</title>
<path fill="none" stroke="#000000" stroke-width="2" stroke-opacity="0.200000" d="M355.02,-186.76C364.15,-189.88 372.51,-194.72 379,-202 397.34,-222.58 369.18,-428.96 387,-450 391.34,-455.12 396.88,-458.8 402.99,-461.42"/>
<polygon fill="#000000" fill-opacity="0.200000" stroke="#000000" stroke-width="2" stroke-opacity="0.200000" points="402.39,-463.43 408.75,-463.53 403.84,-459.49 402.39,-463.43"/>
</g>
<!-- src/application/service/CheatsheetService.ts -->
<g id="node15" class="node">
<title>src/application/service/CheatsheetService.ts</title>
<g id="a_node15"><a xlink:href="src/application/service/CheatsheetService.ts" xlink:title="CheatsheetService.ts">
<path fill="#ddfeff" stroke="black" d="M327,-350C327,-350 227,-350 227,-350 224,-350 221,-347 221,-344 221,-344 221,-338 221,-338 221,-335 224,-332 227,-332 227,-332 327,-332 327,-332 330,-332 333,-335 333,-338 333,-338 333,-344 333,-344 333,-347 330,-350 327,-350"/>
<text text-anchor="start" x="229" y="-338.8" font-family="Helvetica,sans-Serif" font-size="9.00">CheatsheetService.ts</text>
</a>
</g>
</g>
<!-- src/application/service/CheatsheetService.ts&#45;&gt;src/application/port/in/GetCheatsheetQuery.ts -->
<g id="edge17" class="edge">
<title>src/application/service/CheatsheetService.ts&#45;&gt;src/application/port/in/GetCheatsheetQuery.ts</title>
<path fill="none" stroke="#000000" stroke-width="2" stroke-opacity="0.200000" d="M333.21,-342.2C353.25,-342.64 376.07,-343.13 396.89,-343.58"/>
<polygon fill="#000000" fill-opacity="0.200000" stroke="#000000" stroke-width="2" stroke-opacity="0.200000" points="396.95,-345.69 402.99,-343.72 397.04,-341.49 396.95,-345.69"/>
</g>
<!-- src/application/service/CheatsheetService.ts&#45;&gt;src/application/port/out/loadCheatsheetPort.ts -->
<g id="edge18" class="edge">
<title>src/application/service/CheatsheetService.ts&#45;&gt;src/application/port/out/loadCheatsheetPort.ts</title>
<path fill="none" stroke="#000000" stroke-width="2" stroke-opacity="0.200000" d="M333.26,-337.12C349.99,-338.84 367.08,-343.98 379,-356 397.02,-374.16 370.28,-393.64 387,-413 390.51,-417.06 394.72,-420.39 399.33,-423.12"/>
<polygon fill="#000000" fill-opacity="0.200000" stroke="#000000" stroke-width="2" stroke-opacity="0.200000" points="398.63,-425.12 404.92,-426.06 400.59,-421.4 398.63,-425.12"/>
</g>
<!-- src/application/service/FlashcardService.ts -->
<g id="node16" class="node">
<title>src/application/service/FlashcardService.ts</title>
<g id="a_node16"><a xlink:href="src/application/service/FlashcardService.ts" xlink:title="FlashcardService.ts">
<path fill="#ddfeff" stroke="black" d="M323,-380C323,-380 231,-380 231,-380 228,-380 225,-377 225,-374 225,-374 225,-368 225,-368 225,-365 228,-362 231,-362 231,-362 323,-362 323,-362 326,-362 329,-365 329,-368 329,-368 329,-374 329,-374 329,-377 326,-380 323,-380"/>
<text text-anchor="start" x="233" y="-368.8" font-family="Helvetica,sans-Serif" font-size="9.00">FlashcardService.ts</text>
</a>
</g>
</g>
<!-- src/application/service/FlashcardService.ts&#45;&gt;src/application/port/in/GetFlashcardsQuery.ts -->
<g id="edge19" class="edge">
<title>src/application/service/FlashcardService.ts&#45;&gt;src/application/port/in/GetFlashcardsQuery.ts</title>
<path fill="none" stroke="#000000" stroke-width="2" stroke-opacity="0.200000" d="M329.25,-372.11C350.54,-372.58 375.47,-373.12 397.95,-373.61"/>
<polygon fill="#000000" fill-opacity="0.200000" stroke="#000000" stroke-width="2" stroke-opacity="0.200000" points="398.17,-375.71 404.22,-373.74 398.26,-371.51 398.17,-375.71"/>
</g>
<!-- src/application/service/FlashcardService.ts&#45;&gt;src/application/port/out/loadFlashcardPort.ts -->
<g id="edge20" class="edge">
<title>src/application/service/FlashcardService.ts&#45;&gt;src/application/port/out/loadFlashcardPort.ts</title>
<path fill="none" stroke="#000000" stroke-width="2" stroke-opacity="0.200000" d="M287.6,-380.23C305.56,-396.94 346.1,-432.11 387,-450 392,-452.19 397.33,-454.06 402.76,-455.66"/>
<polygon fill="#000000" fill-opacity="0.200000" stroke="#000000" stroke-width="2" stroke-opacity="0.200000" points="402.33,-457.72 408.67,-457.3 403.45,-453.67 402.33,-457.72"/>
</g>
<!-- src/config.mock.ts -->
<g id="node17" class="node">
<title>src/config.mock.ts</title>
<g id="a_node17"><a xlink:href="src/config.mock.ts" xlink:title="config.mock.ts">
<path fill="#ddfeff" stroke="black" d="M161,-226C161,-226 89,-226 89,-226 86,-226 83,-223 83,-220 83,-220 83,-214 83,-214 83,-211 86,-208 89,-208 89,-208 161,-208 161,-208 164,-208 167,-211 167,-214 167,-214 167,-220 167,-220 167,-223 164,-226 161,-226"/>
<text text-anchor="start" x="91" y="-214.8" font-family="Helvetica,sans-Serif" font-size="9.00">config.mock.ts</text>
</a>
</g>
</g>
<!-- src/config.mock.ts&#45;&gt;src/adapter/in/web/GraphQLController.ts -->
<g id="edge21" class="edge">
<title>src/config.mock.ts&#45;&gt;src/adapter/in/web/GraphQLController.ts</title>
<path fill="none" stroke="#000000" stroke-width="2" stroke-opacity="0.200000" d="M160.03,-207.84C162.62,-206.2 165,-204.27 167,-202 177.55,-190.03 166.23,-180.33 175,-167 193.68,-138.58 227.25,-117.26 250.54,-104.97"/>
<polygon fill="#000000" fill-opacity="0.200000" stroke="#000000" stroke-width="2" stroke-opacity="0.200000" points="251.56,-106.81 255.93,-102.19 249.63,-103.08 251.56,-106.81"/>
</g>
<!-- src/config.mock.ts&#45;&gt;src/adapter/out/persistence/MockPersistenceAdapter.ts -->
<g id="edge22" class="edge">
<title>src/config.mock.ts&#45;&gt;src/adapter/out/persistence/MockPersistenceAdapter.ts</title>
<path fill="none" stroke="#000000" stroke-width="2" stroke-opacity="0.200000" d="M167.39,-217C178.17,-217 190.12,-217 202.03,-217"/>
<polygon fill="#000000" fill-opacity="0.200000" stroke="#000000" stroke-width="2" stroke-opacity="0.200000" points="202.25,-219.1 208.25,-217 202.25,-214.9 202.25,-219.1"/>
</g>
<!-- src/config.mock.ts&#45;&gt;src/application/service/CheatsheetService.ts -->
<g id="edge23" class="edge">
<title>src/config.mock.ts&#45;&gt;src/application/service/CheatsheetService.ts</title>
<path fill="none" stroke="#000000" stroke-width="2" stroke-opacity="0.200000" d="M137.27,-226.32C163.68,-248.15 229.6,-302.65 260.08,-327.84"/>
<polygon fill="#000000" fill-opacity="0.200000" stroke="#000000" stroke-width="2" stroke-opacity="0.200000" points="259.04,-329.7 265,-331.91 261.72,-326.47 259.04,-329.7"/>
</g>
<!-- src/config.mock.ts&#45;&gt;src/application/service/FlashcardService.ts -->
<g id="edge24" class="edge">
<title>src/config.mock.ts&#45;&gt;src/application/service/FlashcardService.ts</title>
<path fill="none" stroke="#000000" stroke-width="2" stroke-opacity="0.200000" d="M126.19,-226.26C127.26,-251.54 133.94,-322.14 175,-356 187.19,-366.06 203.15,-370.93 218.76,-373.01"/>
<polygon fill="#000000" fill-opacity="0.200000" stroke="#000000" stroke-width="2" stroke-opacity="0.200000" points="218.75,-375.12 224.95,-373.69 219.22,-370.94 218.75,-375.12"/>
</g>
<!-- src/config.prod.ts -->
<g id="node18" class="node">
<title>src/config.prod.ts</title>
<g id="a_node18"><a xlink:href="src/config.prod.ts" xlink:title="config.prod.ts">
<path fill="#ddfeff" stroke="black" d="M159,-196C159,-196 91,-196 91,-196 88,-196 85,-193 85,-190 85,-190 85,-184 85,-184 85,-181 88,-178 91,-178 91,-178 159,-178 159,-178 162,-178 165,-181 165,-184 165,-184 165,-190 165,-190 165,-193 162,-196 159,-196"/>
<text text-anchor="start" x="93" y="-184.8" font-family="Helvetica,sans-Serif" font-size="9.00">config.prod.ts</text>
</a>
</g>
</g>
<!-- src/config.prod.ts&#45;&gt;src/adapter/in/web/GraphQLController.ts -->
<g id="edge25" class="edge">
<title>src/config.prod.ts&#45;&gt;src/adapter/in/web/GraphQLController.ts</title>
<path fill="none" stroke="#000000" stroke-width="2" stroke-opacity="0.200000" d="M140.38,-177.99C167.3,-161.12 225.35,-124.74 256.04,-105.51"/>
<polygon fill="#000000" fill-opacity="0.200000" stroke="#000000" stroke-width="2" stroke-opacity="0.200000" points="257.47,-107.09 261.44,-102.12 255.24,-103.53 257.47,-107.09"/>
</g>
<!-- src/config.prod.ts&#45;&gt;src/adapter/out/persistence/MongodbPersistenceAdapter.ts -->
<g id="edge26" class="edge">
<title>src/config.prod.ts&#45;&gt;src/adapter/out/persistence/MongodbPersistenceAdapter.ts</title>
<path fill="none" stroke="#000000" stroke-width="2" stroke-opacity="0.200000" d="M165.02,-187C173.65,-187 183.1,-187 192.75,-187"/>
<polygon fill="#000000" fill-opacity="0.200000" stroke="#000000" stroke-width="2" stroke-opacity="0.200000" points="192.77,-189.1 198.77,-187 192.77,-184.9 192.77,-189.1"/>
</g>
<!-- src/config.prod.ts&#45;&gt;src/application/service/CheatsheetService.ts -->
<g id="edge27" class="edge">
<title>src/config.prod.ts&#45;&gt;src/application/service/CheatsheetService.ts</title>
<path fill="none" stroke="#000000" stroke-width="2" stroke-opacity="0.200000" d="M160.21,-196C162.76,-197.67 165.08,-199.65 167,-202 182.07,-220.45 163.42,-234.18 175,-255 193.45,-288.17 230,-314.27 253.7,-328.66"/>
<polygon fill="#000000" fill-opacity="0.200000" stroke="#000000" stroke-width="2" stroke-opacity="0.200000" points="252.9,-330.63 259.13,-331.89 255.05,-327.02 252.9,-330.63"/>
</g>
<!-- src/config.prod.ts&#45;&gt;src/application/service/FlashcardService.ts -->
<g id="edge28" class="edge">
<title>src/config.prod.ts&#45;&gt;src/application/service/FlashcardService.ts</title>
<path fill="none" stroke="#000000" stroke-width="2" stroke-opacity="0.200000" d="M160.84,-196.07C163.18,-197.72 165.29,-199.68 167,-202 177.18,-215.78 163.48,-343.32 175,-356 186.1,-368.21 202.47,-373.52 218.83,-375.34"/>
<polygon fill="#000000" fill-opacity="0.200000" stroke="#000000" stroke-width="2" stroke-opacity="0.200000" points="218.68,-377.44 224.84,-375.86 219.04,-373.25 218.68,-377.44"/>
</g>
<!-- src/index.ts -->
<g id="node19" class="node">
<title>src/index.ts</title>
<g id="a_node19"><a xlink:href="src/index.ts" xlink:title="index.ts">
<path fill="#ddfeff" stroke="black" d="M64,-102C64,-102 22,-102 22,-102 19,-102 16,-99 16,-96 16,-96 16,-90 16,-90 16,-87 19,-84 22,-84 22,-84 64,-84 64,-84 67,-84 70,-87 70,-90 70,-90 70,-96 70,-96 70,-99 67,-102 64,-102"/>
<text text-anchor="start" x="24.5" y="-90.8" font-family="Helvetica,sans-Serif" font-size="9.00">index.ts</text>
</a>
</g>
</g>
<!-- src/index.ts&#45;&gt;node_modules/dotenv -->
<g id="edge33" class="edge">
<title>src/index.ts&#45;&gt;node_modules/dotenv</title>
<path fill="none" stroke="#000000" stroke-opacity="0.200000" d="M50.35,-84C57.29,-74.9 69.26,-61.2 83,-54 160.23,-13.56 188.82,-19 276,-19 276,-19 276,-19 464,-19 539.37,-19 627.87,-21.93 674.31,-23.7"/>
<polygon fill="#000000" fill-opacity="0.200000" stroke="#000000" stroke-opacity="0.200000" points="674.23,-25.8 680.31,-23.93 674.39,-21.6 674.23,-25.8"/>
</g>
<!-- src/index.ts&#45;&gt;node_modules/yargs -->
<g id="edge34" class="edge">
<title>src/index.ts&#45;&gt;node_modules/yargs</title>
<path fill="none" stroke="#000000" stroke-opacity="0.200000" d="M70.08,-83.97C112.63,-70.07 199.91,-45 276,-45 276,-45 276,-45 464,-45 539.41,-45 627.9,-49.89 674.32,-52.83"/>
<polygon fill="#000000" fill-opacity="0.200000" stroke="#000000" stroke-opacity="0.200000" points="674.2,-54.92 680.32,-53.21 674.47,-50.73 674.2,-54.92"/>
</g>
<!-- src/index.ts&#45;&gt;src/adapter/in/web/GraphQLController.ts -->
<g id="edge30" class="edge">
<title>src/index.ts&#45;&gt;src/adapter/in/web/GraphQLController.ts</title>
<path fill="none" stroke="#000000" stroke-width="2" stroke-opacity="0.200000" d="M70.16,-93C105.21,-93 168.44,-93 215.6,-93"/>
<polygon fill="#000000" fill-opacity="0.200000" stroke="#000000" stroke-width="2" stroke-opacity="0.200000" points="215.85,-95.1 221.85,-93 215.85,-90.9 215.85,-95.1"/>
</g>
<!-- src/index.ts&#45;&gt;src/config.mock.ts -->
<g id="edge31" class="edge">
<title>src/index.ts&#45;&gt;src/config.mock.ts</title>
<path fill="none" stroke="#000000" stroke-width="2" stroke-opacity="0.200000" d="M44.72,-102.27C46.81,-122.99 54.68,-173.48 83,-202 83.84,-202.85 84.73,-203.65 85.67,-204.4"/>
<polygon fill="#000000" fill-opacity="0.200000" stroke="#000000" stroke-width="2" stroke-opacity="0.200000" points="84.51,-206.16 90.65,-207.81 86.89,-202.69 84.51,-206.16"/>
</g>
<!-- src/index.ts&#45;&gt;src/config.prod.ts -->
<g id="edge32" class="edge">
<title>src/index.ts&#45;&gt;src/config.prod.ts</title>
<path fill="none" stroke="#000000" stroke-width="2" stroke-opacity="0.200000" d="M51.67,-102.01C65.73,-118.53 95.71,-153.76 112.32,-173.27"/>
<polygon fill="#000000" fill-opacity="0.200000" stroke="#000000" stroke-width="2" stroke-opacity="0.200000" points="110.75,-174.67 116.23,-177.88 113.95,-171.95 110.75,-174.67"/>
</g>
</g>
</svg>
