<?xml version="1.0" encoding="UTF-8" standalone="no"?>
<!DOCTYPE svg PUBLIC "-//W3C//DTD SVG 1.1//EN"
 "http://www.w3.org/Graphics/SVG/1.1/DTD/svg11.dtd">
<!-- Generated by graphviz version 2.43.0 (0)
 -->
<!-- Title: dependency&#45;cruiser output Pages: 1 -->
<svg width="633pt" height="460pt"
 viewBox="0.00 0.00 633.00 460.00" xmlns="http://www.w3.org/2000/svg" xmlns:xlink="http://www.w3.org/1999/xlink">
<g id="graph0" class="graph" transform="scale(1 1) rotate(0) translate(4 456)">
<title>dependency&#45;cruiser output</title>
<polygon fill="white" stroke="transparent" points="-4,4 -4,-456 629,-456 629,4 -4,4"/>
<g id="clust1" class="cluster">
<title>cluster_node_modules</title>
<path fill="#ffffff" stroke="black" stroke-width="2" d="M528,-32C528,-32 605,-32 605,-32 611,-32 617,-38 617,-44 617,-44 617,-132 617,-132 617,-138 611,-144 605,-144 605,-144 528,-144 528,-144 522,-144 516,-138 516,-132 516,-132 516,-44 516,-44 516,-38 522,-32 528,-32"/>
<text text-anchor="middle" x="566.5" y="-132.8" font-family="Helvetica,sans-Serif" font-weight="bold" font-size="9.00">node_modules</text>
</g>
<g id="clust2" class="cluster">
<title>cluster_src</title>
<path fill="#ffffff" stroke="black" stroke-width="2" d="M20,-8C20,-8 496,-8 496,-8 502,-8 508,-14 508,-20 508,-20 508,-432 508,-432 508,-438 502,-444 496,-444 496,-444 20,-444 20,-444 14,-444 8,-438 8,-432 8,-432 8,-20 8,-20 8,-14 14,-8 20,-8"/>
<text text-anchor="middle" x="258" y="-432.8" font-family="Helvetica,sans-Serif" font-weight="bold" font-size="9.00">src</text>
</g>
<g id="clust3" class="cluster">
<title>cluster_src/adapter</title>
<path fill="#ffffff" stroke="black" stroke-width="2" d="M90,-16C90,-16 251,-16 251,-16 257,-16 263,-22 263,-28 263,-28 263,-218 263,-218 263,-224 257,-230 251,-230 251,-230 90,-230 90,-230 84,-230 78,-224 78,-218 78,-218 78,-28 78,-28 78,-22 84,-16 90,-16"/>
<text text-anchor="middle" x="170.5" y="-218.8" font-family="Helvetica,sans-Serif" font-weight="bold" font-size="9.00">adapter</text>
</g>
<g id="clust4" class="cluster">
<title>cluster_src/adapter/in</title>
<path fill="#ffffff" stroke="black" stroke-width="2" d="M111.5,-24C111.5,-24 229.5,-24 229.5,-24 235.5,-24 241.5,-30 241.5,-36 241.5,-36 241.5,-98 241.5,-98 241.5,-104 235.5,-110 229.5,-110 229.5,-110 111.5,-110 111.5,-110 105.5,-110 99.5,-104 99.5,-98 99.5,-98 99.5,-36 99.5,-36 99.5,-30 105.5,-24 111.5,-24"/>
<text text-anchor="middle" x="170.5" y="-98.8" font-family="Helvetica,sans-Serif" font-weight="bold" font-size="9.00">in</text>
</g>
<g id="clust5" class="cluster">
<title>cluster_src/adapter/in/web</title>
<path fill="#ffffff" stroke="black" stroke-width="2" d="M119.5,-32C119.5,-32 221.5,-32 221.5,-32 227.5,-32 233.5,-38 233.5,-44 233.5,-44 233.5,-72 233.5,-72 233.5,-78 227.5,-84 221.5,-84 221.5,-84 119.5,-84 119.5,-84 113.5,-84 107.5,-78 107.5,-72 107.5,-72 107.5,-44 107.5,-44 107.5,-38 113.5,-32 119.5,-32"/>
<text text-anchor="middle" x="170.5" y="-72.8" font-family="Helvetica,sans-Serif" font-weight="bold" font-size="9.00">web</text>
</g>
<g id="clust6" class="cluster">
<title>cluster_src/adapter/out</title>
<path fill="#ffffff" stroke="black" stroke-width="2" d="M98,-118C98,-118 243,-118 243,-118 249,-118 255,-124 255,-130 255,-130 255,-192 255,-192 255,-198 249,-204 243,-204 243,-204 98,-204 98,-204 92,-204 86,-198 86,-192 86,-192 86,-130 86,-130 86,-124 92,-118 98,-118"/>
<text text-anchor="middle" x="170.5" y="-192.8" font-family="Helvetica,sans-Serif" font-weight="bold" font-size="9.00">out</text>
</g>
<g id="clust7" class="cluster">
<title>cluster_src/adapter/out/persistence</title>
<path fill="#ffffff" stroke="black" stroke-width="2" d="M106,-126C106,-126 235,-126 235,-126 241,-126 247,-132 247,-138 247,-138 247,-166 247,-166 247,-172 241,-178 235,-178 235,-178 106,-178 106,-178 100,-178 94,-172 94,-166 94,-166 94,-138 94,-138 94,-132 100,-126 106,-126"/>
<text text-anchor="middle" x="170.5" y="-166.8" font-family="Helvetica,sans-Serif" font-weight="bold" font-size="9.00">persistence</text>
</g>
<g id="clust8" class="cluster">
<title>cluster_src/application</title>
<path fill="#ffffff" stroke="black" stroke-width="2" d="M115,-238C115,-238 394,-238 394,-238 400,-238 406,-244 406,-250 406,-250 406,-406 406,-406 406,-412 400,-418 394,-418 394,-418 115,-418 115,-418 109,-418 103,-412 103,-406 103,-406 103,-250 103,-250 103,-244 109,-238 115,-238"/>
<text text-anchor="middle" x="254.5" y="-406.8" font-family="Helvetica,sans-Serif" font-weight="bold" font-size="9.00">application</text>
</g>
<g id="clust9" class="cluster">
<title>cluster_src/application/port</title>
<path fill="#ffffff" stroke="black" stroke-width="2" d="M283,-246C283,-246 386,-246 386,-246 392,-246 398,-252 398,-258 398,-258 398,-380 398,-380 398,-386 392,-392 386,-392 386,-392 283,-392 283,-392 277,-392 271,-386 271,-380 271,-380 271,-258 271,-258 271,-252 277,-246 283,-246"/>
<text text-anchor="middle" x="334.5" y="-380.8" font-family="Helvetica,sans-Serif" font-weight="bold" font-size="9.00">port</text>
</g>
<g id="clust10" class="cluster">
<title>cluster_src/application/port/in</title>
<path fill="#ffffff" stroke="black" stroke-width="2" d="M291,-254C291,-254 378,-254 378,-254 384,-254 390,-260 390,-266 390,-266 390,-294 390,-294 390,-300 384,-306 378,-306 378,-306 291,-306 291,-306 285,-306 279,-300 279,-294 279,-294 279,-266 279,-266 279,-260 285,-254 291,-254"/>
<text text-anchor="middle" x="334.5" y="-294.8" font-family="Helvetica,sans-Serif" font-weight="bold" font-size="9.00">in</text>
</g>
<g id="clust11" class="cluster">
<title>cluster_src/application/port/out</title>
<path fill="#ffffff" stroke="black" stroke-width="2" d="M295.5,-314C295.5,-314 373.5,-314 373.5,-314 379.5,-314 385.5,-320 385.5,-326 385.5,-326 385.5,-354 385.5,-354 385.5,-360 379.5,-366 373.5,-366 373.5,-366 295.5,-366 295.5,-366 289.5,-366 283.5,-360 283.5,-354 283.5,-354 283.5,-326 283.5,-326 283.5,-320 289.5,-314 295.5,-314"/>
<text text-anchor="middle" x="334.5" y="-354.8" font-family="Helvetica,sans-Serif" font-weight="bold" font-size="9.00">out</text>
</g>
<g id="clust12" class="cluster">
<title>cluster_src/application/service</title>
<path fill="#ffffff" stroke="black" stroke-width="2" d="M123,-254C123,-254 218,-254 218,-254 224,-254 230,-260 230,-266 230,-266 230,-294 230,-294 230,-300 224,-306 218,-306 218,-306 123,-306 123,-306 117,-306 111,-300 111,-294 111,-294 111,-266 111,-266 111,-260 117,-254 123,-254"/>
<text text-anchor="middle" x="170.5" y="-294.8" font-family="Helvetica,sans-Serif" font-weight="bold" font-size="9.00">service</text>
</g>
<g id="clust13" class="cluster">
<title>cluster_src/domain</title>
<path fill="#ffffff" stroke="black" stroke-width="2" d="M426,-118C426,-118 488,-118 488,-118 494,-118 500,-124 500,-130 500,-130 500,-192 500,-192 500,-198 494,-204 488,-204 488,-204 426,-204 426,-204 420,-204 414,-198 414,-192 414,-192 414,-130 414,-130 414,-124 420,-118 426,-118"/>
<text text-anchor="middle" x="457" y="-192.8" font-family="Helvetica,sans-Serif" font-weight="bold" font-size="9.00">domain</text>
</g>
<g id="clust14" class="cluster">
<title>cluster_src/domain/generated</title>
<path fill="#ffffff" stroke="black" stroke-width="2" d="M434,-126C434,-126 480,-126 480,-126 486,-126 492,-132 492,-138 492,-138 492,-166 492,-166 492,-172 486,-178 480,-178 480,-178 434,-178 434,-178 428,-178 422,-172 422,-166 422,-166 422,-138 422,-138 422,-132 428,-126 434,-126"/>
<text text-anchor="middle" x="457" y="-166.8" font-family="Helvetica,sans-Serif" font-weight="bold" font-size="9.00">generated</text>
</g>
<!-- node_modules/@graphql&#45;tools -->
<g id="node1" class="node">
<title>node_modules/@graphql&#45;tools</title>
<g id="a_node1"><a xlink:href="node_modules/@graphql-tools" xlink:title="@graphql&#45;tools">
<polygon fill="#c40b0a" fill-opacity="0.101961" stroke="black" points="609,-88 526,-88 524,-86 524,-70 607,-70 609,-72 609,-88"/>
<polyline fill="none" stroke="black" points="607,-86 524,-86 "/>
<polyline fill="none" stroke="black" points="607,-86 607,-70 "/>
<polyline fill="none" stroke="black" points="607,-86 609,-88 "/>
<text text-anchor="start" x="532" y="-76.8" font-family="Helvetica,sans-Serif" font-size="9.00" fill="#c40b0a">@graphql&#45;tools</text>
</a>
</g>
</g>
<!-- node_modules/apollo&#45;server -->
<g id="node2" class="node">
<title>node_modules/apollo&#45;server</title>
<g id="a_node2"><a xlink:href="node_modules/apollo-server" xlink:title="apollo&#45;server">
<polygon fill="#c40b0a" fill-opacity="0.101961" stroke="black" points="603.5,-58 531.5,-58 529.5,-56 529.5,-40 601.5,-40 603.5,-42 603.5,-58"/>
<polyline fill="none" stroke="black" points="601.5,-56 529.5,-56 "/>
<polyline fill="none" stroke="black" points="601.5,-56 601.5,-40 "/>
<polyline fill="none" stroke="black" points="601.5,-56 603.5,-58 "/>
<text text-anchor="start" x="537.5" y="-46.8" font-family="Helvetica,sans-Serif" font-size="9.00" fill="#c40b0a">apollo&#45;server</text>
</a>
</g>
</g>
<!-- node_modules/graphql -->
<g id="node3" class="node">
<title>node_modules/graphql</title>
<g id="a_node3"><a xlink:href="node_modules/graphql" xlink:title="graphql">
<polygon fill="#c40b0a" fill-opacity="0.101961" stroke="black" points="593.5,-118 541.5,-118 539.5,-116 539.5,-100 591.5,-100 593.5,-102 593.5,-118"/>
<polyline fill="none" stroke="black" points="591.5,-116 539.5,-116 "/>
<polyline fill="none" stroke="black" points="591.5,-116 591.5,-100 "/>
<polyline fill="none" stroke="black" points="591.5,-116 593.5,-118 "/>
<text text-anchor="start" x="548.5" y="-106.8" font-family="Helvetica,sans-Serif" font-size="9.00" fill="#c40b0a">graphql</text>
</a>
</g>
</g>
<!-- src/adapter/in/web/GraphQLController.ts -->
<g id="node4" class="node">
<title>src/adapter/in/web/GraphQLController.ts</title>
<g id="a_node4"><a xlink:href="src/adapter/in/web/GraphQLController.ts" xlink:title="GraphQLController.ts">
<path fill="#ddfeff" stroke="black" d="M219.5,-58C219.5,-58 121.5,-58 121.5,-58 118.5,-58 115.5,-55 115.5,-52 115.5,-52 115.5,-46 115.5,-46 115.5,-43 118.5,-40 121.5,-40 121.5,-40 219.5,-40 219.5,-40 222.5,-40 225.5,-43 225.5,-46 225.5,-46 225.5,-52 225.5,-52 225.5,-55 222.5,-58 219.5,-58"/>
<text text-anchor="start" x="123.5" y="-46.8" font-family="Helvetica,sans-Serif" font-size="9.00">GraphQLController.ts</text>
</a>
</g>
</g>
<!-- src/adapter/in/web/GraphQLController.ts&#45;&gt;node_modules/@graphql&#45;tools -->
<g id="edge3" class="edge">
<title>src/adapter/in/web/GraphQLController.ts&#45;&gt;node_modules/@graphql&#45;tools</title>
<path fill="none" stroke="#000000" stroke-opacity="0.200000" d="M225.69,-54.77C240.39,-56.24 256.29,-57.76 271,-59 357.72,-66.3 458.97,-72.72 517.32,-76.21"/>
<polygon fill="#000000" fill-opacity="0.200000" stroke="#000000" stroke-opacity="0.200000" points="517.41,-78.32 523.53,-76.58 517.66,-74.12 517.41,-78.32"/>
</g>
<!-- src/adapter/in/web/GraphQLController.ts&#45;&gt;node_modules/apollo&#45;server -->
<g id="edge4" class="edge">
<title>src/adapter/in/web/GraphQLController.ts&#45;&gt;node_modules/apollo&#45;server</title>
<path fill="none" stroke="#000000" stroke-opacity="0.200000" d="M225.87,-49C305.17,-49 450.94,-49 522.95,-49"/>
<polygon fill="#000000" fill-opacity="0.200000" stroke="#000000" stroke-opacity="0.200000" points="523.26,-51.1 529.26,-49 523.26,-46.9 523.26,-51.1"/>
</g>
<!-- src/application/port/in/GetBooksQuery.ts -->
<g id="node5" class="node">
<title>src/application/port/in/GetBooksQuery.ts</title>
<g id="a_node5"><a xlink:href="src/application/port/in/GetBooksQuery.ts" xlink:title="GetBooksQuery.ts">
<path fill="#ddfeff" stroke="black" d="M376,-280C376,-280 293,-280 293,-280 290,-280 287,-277 287,-274 287,-274 287,-268 287,-268 287,-265 290,-262 293,-262 293,-262 376,-262 376,-262 379,-262 382,-265 382,-268 382,-268 382,-274 382,-274 382,-277 379,-280 376,-280"/>
<text text-anchor="start" x="295" y="-268.8" font-family="Helvetica,sans-Serif" font-size="9.00">GetBooksQuery.ts</text>
</a>
</g>
</g>
<!-- src/adapter/in/web/GraphQLController.ts&#45;&gt;src/application/port/in/GetBooksQuery.ts -->
<g id="edge1" class="edge">
<title>src/adapter/in/web/GraphQLController.ts&#45;&gt;src/application/port/in/GetBooksQuery.ts</title>
<path fill="none" stroke="#000000" stroke-width="2" stroke-opacity="0.200000" d="M186.54,-58.1C206.23,-70.65 240.86,-94.92 263,-123 296.91,-166.01 319.68,-227.99 328.89,-256.12"/>
<polygon fill="#000000" fill-opacity="0.200000" stroke="#000000" stroke-width="2" stroke-opacity="0.200000" points="326.91,-256.82 330.75,-261.89 330.91,-255.54 326.91,-256.82"/>
</g>
<!-- src/domain/generated/books.ts -->
<g id="node6" class="node">
<title>src/domain/generated/books.ts</title>
<g id="a_node6"><a xlink:href="src/domain/generated/books.ts" xlink:title="books.ts">
<path fill="#ddfeff" stroke="black" d="M478,-152C478,-152 436,-152 436,-152 433,-152 430,-149 430,-146 430,-146 430,-140 430,-140 430,-137 433,-134 436,-134 436,-134 478,-134 478,-134 481,-134 484,-137 484,-140 484,-140 484,-146 484,-146 484,-149 481,-152 478,-152"/>
<text text-anchor="start" x="438" y="-140.8" font-family="Helvetica,sans-Serif" font-size="9.00">books.ts</text>
</a>
</g>
</g>
<!-- src/adapter/in/web/GraphQLController.ts&#45;&gt;src/domain/generated/books.ts -->
<g id="edge2" class="edge">
<title>src/adapter/in/web/GraphQLController.ts&#45;&gt;src/domain/generated/books.ts</title>
<path fill="none" stroke="#000000" stroke-width="2" stroke-opacity="0.200000" d="M193.86,-58.06C213.92,-66.06 244.23,-77.85 271,-87 323.98,-105.11 386.48,-123.4 423.59,-133.94"/>
<polygon fill="#000000" fill-opacity="0.200000" stroke="#000000" stroke-width="2" stroke-opacity="0.200000" points="423.43,-136.08 429.77,-135.7 424.57,-132.04 423.43,-136.08"/>
</g>
<!-- src/application/port/in/GetBooksQuery.ts&#45;&gt;src/domain/generated/books.ts -->
<g id="edge7" class="edge">
<title>src/application/port/in/GetBooksQuery.ts&#45;&gt;src/domain/generated/books.ts</title>
<path fill="none" stroke="#000000" stroke-width="2" stroke-opacity="0.200000" d="M344.17,-261.79C365.1,-239.56 418.49,-182.84 443.16,-156.64"/>
<polygon fill="#000000" fill-opacity="0.200000" stroke="#000000" stroke-width="2" stroke-opacity="0.200000" points="444.83,-157.93 447.41,-152.12 441.77,-155.05 444.83,-157.93"/>
</g>
<!-- src/domain/generated/books.ts&#45;&gt;node_modules/graphql -->
<g id="edge11" class="edge">
<title>src/domain/generated/books.ts&#45;&gt;node_modules/graphql</title>
<path fill="none" stroke="#000000" stroke-opacity="0.200000" d="M484.02,-134.77C498.83,-130.09 517.51,-124.18 533.25,-119.2"/>
<polygon fill="#000000" fill-opacity="0.200000" stroke="#000000" stroke-opacity="0.200000" points="534.26,-121.08 539.34,-117.27 532.99,-117.08 534.26,-121.08"/>
</g>
<!-- src/adapter/out/persistence/MockPersistenceAdapter.ts -->
<g id="node7" class="node">
<title>src/adapter/out/persistence/MockPersistenceAdapter.ts</title>
<g id="a_node7"><a xlink:href="src/adapter/out/persistence/MockPersistenceAdapter.ts" xlink:title="MockPersistenceAdapter.ts">
<path fill="#ddfeff" stroke="black" d="M233,-152C233,-152 108,-152 108,-152 105,-152 102,-149 102,-146 102,-146 102,-140 102,-140 102,-137 105,-134 108,-134 108,-134 233,-134 233,-134 236,-134 239,-137 239,-140 239,-140 239,-146 239,-146 239,-149 236,-152 233,-152"/>
<text text-anchor="start" x="110" y="-140.8" font-family="Helvetica,sans-Serif" font-size="9.00">MockPersistenceAdapter.ts</text>
</a>
</g>
</g>
<!-- src/adapter/out/persistence/MockPersistenceAdapter.ts&#45;&gt;src/domain/generated/books.ts -->
<g id="edge6" class="edge">
<title>src/adapter/out/persistence/MockPersistenceAdapter.ts&#45;&gt;src/domain/generated/books.ts</title>
<path fill="none" stroke="#000000" stroke-width="2" stroke-opacity="0.200000" d="M239.28,-143C297.68,-143 379.38,-143 423.93,-143"/>
<polygon fill="#000000" fill-opacity="0.200000" stroke="#000000" stroke-width="2" stroke-opacity="0.200000" points="423.96,-145.1 429.96,-143 423.96,-140.9 423.96,-145.1"/>
</g>
<!-- src/application/port/out/loadBookPort.ts -->
<g id="node8" class="node">
<title>src/application/port/out/loadBookPort.ts</title>
<g id="a_node8"><a xlink:href="src/application/port/out/loadBookPort.ts" xlink:title="loadBookPort.ts">
<path fill="#ddfeff" stroke="black" d="M371.5,-340C371.5,-340 297.5,-340 297.5,-340 294.5,-340 291.5,-337 291.5,-334 291.5,-334 291.5,-328 291.5,-328 291.5,-325 294.5,-322 297.5,-322 297.5,-322 371.5,-322 371.5,-322 374.5,-322 377.5,-325 377.5,-328 377.5,-328 377.5,-334 377.5,-334 377.5,-337 374.5,-340 371.5,-340"/>
<text text-anchor="start" x="299.5" y="-328.8" font-family="Helvetica,sans-Serif" font-size="9.00">loadBookPort.ts</text>
</a>
</g>
</g>
<!-- src/adapter/out/persistence/MockPersistenceAdapter.ts&#45;&gt;src/application/port/out/loadBookPort.ts -->
<g id="edge5" class="edge">
<title>src/adapter/out/persistence/MockPersistenceAdapter.ts&#45;&gt;src/application/port/out/loadBookPort.ts</title>
<path fill="none" stroke="#000000" stroke-width="2" stroke-opacity="0.200000" d="M182.5,-152.06C202.35,-169.12 243.86,-208.14 263,-251 273.61,-274.76 254.54,-288.84 271,-309 274.98,-313.88 280.12,-317.68 285.74,-320.63"/>
<polygon fill="#000000" fill-opacity="0.200000" stroke="#000000" stroke-width="2" stroke-opacity="0.200000" points="285.16,-322.68 291.49,-323.32 286.94,-318.88 285.16,-322.68"/>
</g>
<!-- src/application/port/out/loadBookPort.ts&#45;&gt;src/domain/generated/books.ts -->
<g id="edge8" class="edge">
<title>src/application/port/out/loadBookPort.ts&#45;&gt;src/domain/generated/books.ts</title>
<path fill="none" stroke="#000000" stroke-width="2" stroke-opacity="0.200000" d="M377.58,-325.03C387.98,-321.77 398.33,-316.74 406,-309 447.91,-266.67 454.9,-190.57 455.92,-158.22"/>
<polygon fill="#000000" fill-opacity="0.200000" stroke="#000000" stroke-width="2" stroke-opacity="0.200000" points="458.02,-158.05 456.06,-152.01 453.82,-157.96 458.02,-158.05"/>
</g>
<!-- src/application/service/GetBooksService.ts -->
<g id="node9" class="node">
<title>src/application/service/GetBooksService.ts</title>
<g id="a_node9"><a xlink:href="src/application/service/GetBooksService.ts" xlink:title="GetBooksService.ts">
<path fill="#ddfeff" stroke="black" d="M216,-280C216,-280 125,-280 125,-280 122,-280 119,-277 119,-274 119,-274 119,-268 119,-268 119,-265 122,-262 125,-262 125,-262 216,-262 216,-262 219,-262 222,-265 222,-268 222,-268 222,-274 222,-274 222,-277 219,-280 216,-280"/>
<text text-anchor="start" x="127" y="-268.8" font-family="Helvetica,sans-Serif" font-size="9.00">GetBooksService.ts</text>
</a>
</g>
</g>
<!-- src/application/service/GetBooksService.ts&#45;&gt;src/application/port/in/GetBooksQuery.ts -->
<g id="edge9" class="edge">
<title>src/application/service/GetBooksService.ts&#45;&gt;src/application/port/in/GetBooksQuery.ts</title>
<path fill="none" stroke="#000000" stroke-width="2" stroke-opacity="0.200000" d="M222.31,-271C240.9,-271 261.97,-271 280.73,-271"/>
<polygon fill="#000000" fill-opacity="0.200000" stroke="#000000" stroke-width="2" stroke-opacity="0.200000" points="281,-273.1 287,-271 281,-268.9 281,-273.1"/>
</g>
<!-- src/application/service/GetBooksService.ts&#45;&gt;src/application/port/out/loadBookPort.ts -->
<g id="edge10" class="edge">
<title>src/application/service/GetBooksService.ts&#45;&gt;src/application/port/out/loadBookPort.ts</title>
<path fill="none" stroke="#000000" stroke-width="2" stroke-opacity="0.200000" d="M194.76,-280.08C214.88,-287.89 244.79,-299.38 271,-309 280.84,-312.61 291.59,-316.44 301.36,-319.87"/>
<polygon fill="#000000" fill-opacity="0.200000" stroke="#000000" stroke-width="2" stroke-opacity="0.200000" points="300.94,-321.95 307.29,-321.95 302.33,-317.98 300.94,-321.95"/>
</g>
<!-- src/index.ts -->
<g id="node10" class="node">
<title>src/index.ts</title>
<g id="a_node10"><a xlink:href="src/index.ts" xlink:title="index.ts">
<path fill="#ddfeff" stroke="black" d="M64,-152C64,-152 22,-152 22,-152 19,-152 16,-149 16,-146 16,-146 16,-140 16,-140 16,-137 19,-134 22,-134 22,-134 64,-134 64,-134 67,-134 70,-137 70,-140 70,-140 70,-146 70,-146 70,-149 67,-152 64,-152"/>
<text text-anchor="start" x="24.5" y="-140.8" font-family="Helvetica,sans-Serif" font-size="9.00">index.ts</text>
</a>
</g>
</g>
<!-- src/index.ts&#45;&gt;src/adapter/in/web/GraphQLController.ts -->
<g id="edge12" class="edge">
<title>src/index.ts&#45;&gt;src/adapter/in/web/GraphQLController.ts</title>
<path fill="none" stroke="#000000" stroke-width="2" stroke-opacity="0.200000" d="M56.03,-133.99C78.46,-117.19 126.72,-81.04 152.48,-61.75"/>
<polygon fill="#000000" fill-opacity="0.200000" stroke="#000000" stroke-width="2" stroke-opacity="0.200000" points="153.78,-63.4 157.32,-58.12 151.26,-60.04 153.78,-63.4"/>
</g>
<!-- src/index.ts&#45;&gt;src/adapter/out/persistence/MockPersistenceAdapter.ts -->
<g id="edge13" class="edge">
<title>src/index.ts&#45;&gt;src/adapter/out/persistence/MockPersistenceAdapter.ts</title>
<path fill="none" stroke="#000000" stroke-width="2" stroke-opacity="0.200000" d="M70,-143C77.72,-143 86.58,-143 95.76,-143"/>
<polygon fill="#000000" fill-opacity="0.200000" stroke="#000000" stroke-width="2" stroke-opacity="0.200000" points="95.84,-145.1 101.84,-143 95.84,-140.9 95.84,-145.1"/>
</g>
<!-- src/index.ts&#45;&gt;src/application/service/GetBooksService.ts -->
<g id="edge14" class="edge">
<title>src/index.ts&#45;&gt;src/application/service/GetBooksService.ts</title>
<path fill="none" stroke="#000000" stroke-width="2" stroke-opacity="0.200000" d="M51.95,-152.21C58.74,-160 68.83,-171.39 78,-181 104.57,-208.85 136.95,-240.1 155.2,-257.48"/>
<polygon fill="#000000" fill-opacity="0.200000" stroke="#000000" stroke-width="2" stroke-opacity="0.200000" points="154.16,-259.38 159.95,-261.99 157.05,-256.34 154.16,-259.38"/>
</g>
</g>
</svg>
