<?xml version="1.0" encoding="UTF-8" standalone="no"?>
<!DOCTYPE svg PUBLIC "-//W3C//DTD SVG 1.1//EN"
 "http://www.w3.org/Graphics/SVG/1.1/DTD/svg11.dtd">
<!-- Generated by graphviz version 2.43.0 (0)
 -->
<!-- Title: dependency&#45;cruiser output Pages: 1 -->
<svg width="764pt" height="520pt"
 viewBox="0.00 0.00 764.00 520.00" xmlns="http://www.w3.org/2000/svg" xmlns:xlink="http://www.w3.org/1999/xlink">
<g id="graph0" class="graph" transform="scale(1 1) rotate(0) translate(4 516)">
<title>dependency&#45;cruiser output</title>
<polygon fill="white" stroke="transparent" points="-4,4 -4,-516 760,-516 760,4 -4,4"/>
<g id="clust1" class="cluster">
<title>cluster_node_modules</title>
<path fill="#ffffff" stroke="black" stroke-width="2" d="M659,-32C659,-32 736,-32 736,-32 742,-32 748,-38 748,-44 748,-44 748,-132 748,-132 748,-138 742,-144 736,-144 736,-144 659,-144 659,-144 653,-144 647,-138 647,-132 647,-132 647,-44 647,-44 647,-38 653,-32 659,-32"/>
<text text-anchor="middle" x="697.5" y="-132.8" font-family="Helvetica,sans-Serif" font-weight="bold" font-size="9.00">node_modules</text>
</g>
<g id="clust2" class="cluster">
<title>cluster_src</title>
<path fill="#ffffff" stroke="black" stroke-width="2" d="M20,-8C20,-8 627,-8 627,-8 633,-8 639,-14 639,-20 639,-20 639,-492 639,-492 639,-498 633,-504 627,-504 627,-504 20,-504 20,-504 14,-504 8,-498 8,-492 8,-492 8,-20 8,-20 8,-14 14,-8 20,-8"/>
<text text-anchor="middle" x="323.5" y="-492.8" font-family="Helvetica,sans-Serif" font-weight="bold" font-size="9.00">src</text>
</g>
<g id="clust3" class="cluster">
<title>cluster_src/adapter</title>
<path fill="#ffffff" stroke="black" stroke-width="2" d="M196,-16C196,-16 357,-16 357,-16 363,-16 369,-22 369,-28 369,-28 369,-218 369,-218 369,-224 363,-230 357,-230 357,-230 196,-230 196,-230 190,-230 184,-224 184,-218 184,-218 184,-28 184,-28 184,-22 190,-16 196,-16"/>
<text text-anchor="middle" x="276.5" y="-218.8" font-family="Helvetica,sans-Serif" font-weight="bold" font-size="9.00">adapter</text>
</g>
<g id="clust4" class="cluster">
<title>cluster_src/adapter/in</title>
<path fill="#ffffff" stroke="black" stroke-width="2" d="M217.5,-24C217.5,-24 335.5,-24 335.5,-24 341.5,-24 347.5,-30 347.5,-36 347.5,-36 347.5,-98 347.5,-98 347.5,-104 341.5,-110 335.5,-110 335.5,-110 217.5,-110 217.5,-110 211.5,-110 205.5,-104 205.5,-98 205.5,-98 205.5,-36 205.5,-36 205.5,-30 211.5,-24 217.5,-24"/>
<text text-anchor="middle" x="276.5" y="-98.8" font-family="Helvetica,sans-Serif" font-weight="bold" font-size="9.00">in</text>
</g>
<g id="clust5" class="cluster">
<title>cluster_src/adapter/in/web</title>
<path fill="#ffffff" stroke="black" stroke-width="2" d="M225.5,-32C225.5,-32 327.5,-32 327.5,-32 333.5,-32 339.5,-38 339.5,-44 339.5,-44 339.5,-72 339.5,-72 339.5,-78 333.5,-84 327.5,-84 327.5,-84 225.5,-84 225.5,-84 219.5,-84 213.5,-78 213.5,-72 213.5,-72 213.5,-44 213.5,-44 213.5,-38 219.5,-32 225.5,-32"/>
<text text-anchor="middle" x="276.5" y="-72.8" font-family="Helvetica,sans-Serif" font-weight="bold" font-size="9.00">web</text>
</g>
<g id="clust6" class="cluster">
<title>cluster_src/adapter/out</title>
<path fill="#ffffff" stroke="black" stroke-width="2" d="M204,-118C204,-118 349,-118 349,-118 355,-118 361,-124 361,-130 361,-130 361,-192 361,-192 361,-198 355,-204 349,-204 349,-204 204,-204 204,-204 198,-204 192,-198 192,-192 192,-192 192,-130 192,-130 192,-124 198,-118 204,-118"/>
<text text-anchor="middle" x="276.5" y="-192.8" font-family="Helvetica,sans-Serif" font-weight="bold" font-size="9.00">out</text>
</g>
<g id="clust7" class="cluster">
<title>cluster_src/adapter/out/persistence</title>
<path fill="#ffffff" stroke="black" stroke-width="2" d="M212,-126C212,-126 341,-126 341,-126 347,-126 353,-132 353,-138 353,-138 353,-166 353,-166 353,-172 347,-178 341,-178 341,-178 212,-178 212,-178 206,-178 200,-172 200,-166 200,-166 200,-138 200,-138 200,-132 206,-126 212,-126"/>
<text text-anchor="middle" x="276.5" y="-166.8" font-family="Helvetica,sans-Serif" font-weight="bold" font-size="9.00">persistence</text>
</g>
<g id="clust8" class="cluster">
<title>cluster_src/application</title>
<path fill="#ffffff" stroke="black" stroke-width="2" d="M216.5,-238C216.5,-238 525,-238 525,-238 531,-238 537,-244 537,-250 537,-250 537,-466 537,-466 537,-472 531,-478 525,-478 525,-478 216.5,-478 216.5,-478 210.5,-478 204.5,-472 204.5,-466 204.5,-466 204.5,-250 204.5,-250 204.5,-244 210.5,-238 216.5,-238"/>
<text text-anchor="middle" x="370.75" y="-466.8" font-family="Helvetica,sans-Serif" font-weight="bold" font-size="9.00">application</text>
</g>
<g id="clust9" class="cluster">
<title>cluster_src/application/port</title>
<path fill="#ffffff" stroke="black" stroke-width="2" d="M389,-246C389,-246 517,-246 517,-246 523,-246 529,-252 529,-258 529,-258 529,-440 529,-440 529,-446 523,-452 517,-452 517,-452 389,-452 389,-452 383,-452 377,-446 377,-440 377,-440 377,-258 377,-258 377,-252 383,-246 389,-246"/>
<text text-anchor="middle" x="453" y="-440.8" font-family="Helvetica,sans-Serif" font-weight="bold" font-size="9.00">port</text>
</g>
<g id="clust10" class="cluster">
<title>cluster_src/application/port/in</title>
<path fill="#ffffff" stroke="black" stroke-width="2" d="M397,-254C397,-254 509,-254 509,-254 515,-254 521,-260 521,-266 521,-266 521,-324 521,-324 521,-330 515,-336 509,-336 509,-336 397,-336 397,-336 391,-336 385,-330 385,-324 385,-324 385,-266 385,-266 385,-260 391,-254 397,-254"/>
<text text-anchor="middle" x="453" y="-324.8" font-family="Helvetica,sans-Serif" font-weight="bold" font-size="9.00">in</text>
</g>
<g id="clust11" class="cluster">
<title>cluster_src/application/port/out</title>
<path fill="#ffffff" stroke="black" stroke-width="2" d="M399,-344C399,-344 507,-344 507,-344 513,-344 519,-350 519,-356 519,-356 519,-414 519,-414 519,-420 513,-426 507,-426 507,-426 399,-426 399,-426 393,-426 387,-420 387,-414 387,-414 387,-356 387,-356 387,-350 393,-344 399,-344"/>
<text text-anchor="middle" x="453" y="-414.8" font-family="Helvetica,sans-Serif" font-weight="bold" font-size="9.00">out</text>
</g>
<g id="clust12" class="cluster">
<title>cluster_src/application/service</title>
<path fill="#ffffff" stroke="black" stroke-width="2" d="M224.5,-254C224.5,-254 328.5,-254 328.5,-254 334.5,-254 340.5,-260 340.5,-266 340.5,-266 340.5,-324 340.5,-324 340.5,-330 334.5,-336 328.5,-336 328.5,-336 224.5,-336 224.5,-336 218.5,-336 212.5,-330 212.5,-324 212.5,-324 212.5,-266 212.5,-266 212.5,-260 218.5,-254 224.5,-254"/>
<text text-anchor="middle" x="276.5" y="-324.8" font-family="Helvetica,sans-Serif" font-weight="bold" font-size="9.00">service</text>
</g>
<g id="clust13" class="cluster">
<title>cluster_src/config</title>
<path fill="#ffffff" stroke="black" stroke-width="2" d="M90,-126C90,-126 164,-126 164,-126 170,-126 176,-132 176,-138 176,-138 176,-166 176,-166 176,-172 170,-178 164,-178 164,-178 90,-178 90,-178 84,-178 78,-172 78,-166 78,-166 78,-138 78,-138 78,-132 84,-126 90,-126"/>
<text text-anchor="middle" x="127" y="-166.8" font-family="Helvetica,sans-Serif" font-weight="bold" font-size="9.00">config</text>
</g>
<g id="clust14" class="cluster">
<title>cluster_src/domain</title>
<path fill="#ffffff" stroke="black" stroke-width="2" d="M557,-246C557,-246 619,-246 619,-246 625,-246 631,-252 631,-258 631,-258 631,-320 631,-320 631,-326 625,-332 619,-332 619,-332 557,-332 557,-332 551,-332 545,-326 545,-320 545,-320 545,-258 545,-258 545,-252 551,-246 557,-246"/>
<text text-anchor="middle" x="588" y="-320.8" font-family="Helvetica,sans-Serif" font-weight="bold" font-size="9.00">domain</text>
</g>
<g id="clust15" class="cluster">
<title>cluster_src/domain/generated</title>
<path fill="#ffffff" stroke="black" stroke-width="2" d="M565,-254C565,-254 611,-254 611,-254 617,-254 623,-260 623,-266 623,-266 623,-294 623,-294 623,-300 617,-306 611,-306 611,-306 565,-306 565,-306 559,-306 553,-300 553,-294 553,-294 553,-266 553,-266 553,-260 559,-254 565,-254"/>
<text text-anchor="middle" x="588" y="-294.8" font-family="Helvetica,sans-Serif" font-weight="bold" font-size="9.00">generated</text>
</g>
<!-- node_modules/@graphql&#45;tools -->
<g id="node1" class="node">
<title>node_modules/@graphql&#45;tools</title>
<g id="a_node1"><a xlink:href="node_modules/@graphql-tools" xlink:title="@graphql&#45;tools">
<polygon fill="#c40b0a" fill-opacity="0.101961" stroke="black" points="740,-88 657,-88 655,-86 655,-70 738,-70 740,-72 740,-88"/>
<polyline fill="none" stroke="black" points="738,-86 655,-86 "/>
<polyline fill="none" stroke="black" points="738,-86 738,-70 "/>
<polyline fill="none" stroke="black" points="738,-86 740,-88 "/>
<text text-anchor="start" x="663" y="-76.8" font-family="Helvetica,sans-Serif" font-size="9.00" fill="#c40b0a">@graphql&#45;tools</text>
</a>
</g>
</g>
<!-- node_modules/apollo&#45;server -->
<g id="node2" class="node">
<title>node_modules/apollo&#45;server</title>
<g id="a_node2"><a xlink:href="node_modules/apollo-server" xlink:title="apollo&#45;server">
<polygon fill="#c40b0a" fill-opacity="0.101961" stroke="black" points="734.5,-58 662.5,-58 660.5,-56 660.5,-40 732.5,-40 734.5,-42 734.5,-58"/>
<polyline fill="none" stroke="black" points="732.5,-56 660.5,-56 "/>
<polyline fill="none" stroke="black" points="732.5,-56 732.5,-40 "/>
<polyline fill="none" stroke="black" points="732.5,-56 734.5,-58 "/>
<text text-anchor="start" x="668.5" y="-46.8" font-family="Helvetica,sans-Serif" font-size="9.00" fill="#c40b0a">apollo&#45;server</text>
</a>
</g>
</g>
<!-- node_modules/graphql -->
<g id="node3" class="node">
<title>node_modules/graphql</title>
<g id="a_node3"><a xlink:href="node_modules/graphql" xlink:title="graphql">
<polygon fill="#c40b0a" fill-opacity="0.101961" stroke="black" points="724.5,-118 672.5,-118 670.5,-116 670.5,-100 722.5,-100 724.5,-102 724.5,-118"/>
<polyline fill="none" stroke="black" points="722.5,-116 670.5,-116 "/>
<polyline fill="none" stroke="black" points="722.5,-116 722.5,-100 "/>
<polyline fill="none" stroke="black" points="722.5,-116 724.5,-118 "/>
<text text-anchor="start" x="679.5" y="-106.8" font-family="Helvetica,sans-Serif" font-size="9.00" fill="#c40b0a">graphql</text>
</a>
</g>
</g>
<!-- src/adapter/in/web/GraphQLController.ts -->
<g id="node4" class="node">
<title>src/adapter/in/web/GraphQLController.ts</title>
<g id="a_node4"><a xlink:href="src/adapter/in/web/GraphQLController.ts" xlink:title="GraphQLController.ts">
<path fill="#ddfeff" stroke="black" d="M325.5,-58C325.5,-58 227.5,-58 227.5,-58 224.5,-58 221.5,-55 221.5,-52 221.5,-52 221.5,-46 221.5,-46 221.5,-43 224.5,-40 227.5,-40 227.5,-40 325.5,-40 325.5,-40 328.5,-40 331.5,-43 331.5,-46 331.5,-46 331.5,-52 331.5,-52 331.5,-55 328.5,-58 325.5,-58"/>
<text text-anchor="start" x="229.5" y="-46.8" font-family="Helvetica,sans-Serif" font-size="9.00">GraphQLController.ts</text>
</a>
</g>
</g>
<!-- src/adapter/in/web/GraphQLController.ts&#45;&gt;node_modules/@graphql&#45;tools -->
<g id="edge4" class="edge">
<title>src/adapter/in/web/GraphQLController.ts&#45;&gt;node_modules/@graphql&#45;tools</title>
<path fill="none" stroke="#000000" stroke-opacity="0.200000" d="M331.69,-54.82C346.38,-56.3 362.29,-57.8 377,-59 473.26,-66.85 586.06,-73.26 648.59,-76.56"/>
<polygon fill="#000000" fill-opacity="0.200000" stroke="#000000" stroke-opacity="0.200000" points="648.75,-78.68 654.85,-76.89 648.97,-74.48 648.75,-78.68"/>
</g>
<!-- src/adapter/in/web/GraphQLController.ts&#45;&gt;node_modules/apollo&#45;server -->
<g id="edge5" class="edge">
<title>src/adapter/in/web/GraphQLController.ts&#45;&gt;node_modules/apollo&#45;server</title>
<path fill="none" stroke="#000000" stroke-opacity="0.200000" d="M331.85,-49C416.38,-49 577.59,-49 654.13,-49"/>
<polygon fill="#000000" fill-opacity="0.200000" stroke="#000000" stroke-opacity="0.200000" points="654.38,-51.1 660.38,-49 654.38,-46.9 654.38,-51.1"/>
</g>
<!-- src/application/port/in/GetCheatsheetQuery.ts -->
<g id="node5" class="node">
<title>src/application/port/in/GetCheatsheetQuery.ts</title>
<g id="a_node5"><a xlink:href="src/application/port/in/GetCheatsheetQuery.ts" xlink:title="GetCheatsheetQuery.ts">
<path fill="#ddfeff" stroke="black" d="M507,-310C507,-310 399,-310 399,-310 396,-310 393,-307 393,-304 393,-304 393,-298 393,-298 393,-295 396,-292 399,-292 399,-292 507,-292 507,-292 510,-292 513,-295 513,-298 513,-298 513,-304 513,-304 513,-307 510,-310 507,-310"/>
<text text-anchor="start" x="401" y="-298.8" font-family="Helvetica,sans-Serif" font-size="9.00">GetCheatsheetQuery.ts</text>
</a>
</g>
</g>
<!-- src/adapter/in/web/GraphQLController.ts&#45;&gt;src/application/port/in/GetCheatsheetQuery.ts -->
<g id="edge1" class="edge">
<title>src/adapter/in/web/GraphQLController.ts&#45;&gt;src/application/port/in/GetCheatsheetQuery.ts</title>
<path fill="none" stroke="#000000" stroke-width="2" stroke-opacity="0.200000" d="M296.6,-58.16C318.5,-69.83 353.37,-92.21 369,-123 377.21,-139.17 365.16,-272.26 377,-286 379.98,-289.46 383.51,-292.26 387.39,-294.51"/>
<polygon fill="#000000" fill-opacity="0.200000" stroke="#000000" stroke-width="2" stroke-opacity="0.200000" points="386.58,-296.45 392.88,-297.26 388.46,-292.7 386.58,-296.45"/>
</g>
<!-- src/application/port/in/GetFlashcardsQuery.ts -->
<g id="node6" class="node">
<title>src/application/port/in/GetFlashcardsQuery.ts</title>
<g id="a_node6"><a xlink:href="src/application/port/in/GetFlashcardsQuery.ts" xlink:title="GetFlashcardsQuery.ts">
<path fill="#ddfeff" stroke="black" d="M505.5,-280C505.5,-280 400.5,-280 400.5,-280 397.5,-280 394.5,-277 394.5,-274 394.5,-274 394.5,-268 394.5,-268 394.5,-265 397.5,-262 400.5,-262 400.5,-262 505.5,-262 505.5,-262 508.5,-262 511.5,-265 511.5,-268 511.5,-268 511.5,-274 511.5,-274 511.5,-277 508.5,-280 505.5,-280"/>
<text text-anchor="start" x="402.5" y="-268.8" font-family="Helvetica,sans-Serif" font-size="9.00">GetFlashcardsQuery.ts</text>
</a>
</g>
</g>
<!-- src/adapter/in/web/GraphQLController.ts&#45;&gt;src/application/port/in/GetFlashcardsQuery.ts -->
<g id="edge2" class="edge">
<title>src/adapter/in/web/GraphQLController.ts&#45;&gt;src/application/port/in/GetFlashcardsQuery.ts</title>
<path fill="none" stroke="#000000" stroke-width="2" stroke-opacity="0.200000" d="M294.64,-58.01C315.61,-69.96 350.58,-93.08 369,-123 377.82,-137.33 370.39,-144.53 377,-160 393.33,-198.25 423.45,-237.23 440.12,-257.25"/>
<polygon fill="#000000" fill-opacity="0.200000" stroke="#000000" stroke-width="2" stroke-opacity="0.200000" points="438.58,-258.69 444.05,-261.92 441.79,-255.98 438.58,-258.69"/>
</g>
<!-- src/domain/generated/core.ts -->
<g id="node7" class="node">
<title>src/domain/generated/core.ts</title>
<g id="a_node7"><a xlink:href="src/domain/generated/core.ts" xlink:title="core.ts">
<path fill="#ddfeff" stroke="black" d="M609,-280C609,-280 567,-280 567,-280 564,-280 561,-277 561,-274 561,-274 561,-268 561,-268 561,-265 564,-262 567,-262 567,-262 609,-262 609,-262 612,-262 615,-265 615,-268 615,-268 615,-274 615,-274 615,-277 612,-280 609,-280"/>
<text text-anchor="start" x="572.5" y="-268.8" font-family="Helvetica,sans-Serif" font-size="9.00">core.ts</text>
</a>
</g>
</g>
<!-- src/adapter/in/web/GraphQLController.ts&#45;&gt;src/domain/generated/core.ts -->
<g id="edge3" class="edge">
<title>src/adapter/in/web/GraphQLController.ts&#45;&gt;src/domain/generated/core.ts</title>
<path fill="none" stroke="#000000" stroke-width="2" stroke-opacity="0.200000" d="M299.04,-58C354.33,-81.41 499.52,-144.87 537,-181 559.53,-202.72 574.62,-236.82 581.92,-256.21"/>
<polygon fill="#000000" fill-opacity="0.200000" stroke="#000000" stroke-width="2" stroke-opacity="0.200000" points="579.99,-257.04 584.02,-261.96 583.93,-255.6 579.99,-257.04"/>
</g>
<!-- src/application/port/in/GetCheatsheetQuery.ts&#45;&gt;src/domain/generated/core.ts -->
<g id="edge9" class="edge">
<title>src/application/port/in/GetCheatsheetQuery.ts&#45;&gt;src/domain/generated/core.ts</title>
<path fill="none" stroke="#000000" stroke-width="2" stroke-opacity="0.200000" d="M509.1,-291.94C518.45,-290.15 528.03,-288.15 537,-286 542.88,-284.59 549.1,-282.9 555.07,-281.16"/>
<polygon fill="#000000" fill-opacity="0.200000" stroke="#000000" stroke-width="2" stroke-opacity="0.200000" points="555.79,-283.14 560.94,-279.42 554.59,-279.11 555.79,-283.14"/>
</g>
<!-- src/application/port/in/GetFlashcardsQuery.ts&#45;&gt;src/domain/generated/core.ts -->
<g id="edge10" class="edge">
<title>src/application/port/in/GetFlashcardsQuery.ts&#45;&gt;src/domain/generated/core.ts</title>
<path fill="none" stroke="#000000" stroke-width="2" stroke-opacity="0.200000" d="M511.56,-271C526.28,-271 541.6,-271 554.55,-271"/>
<polygon fill="#000000" fill-opacity="0.200000" stroke="#000000" stroke-width="2" stroke-opacity="0.200000" points="554.71,-273.1 560.71,-271 554.71,-268.9 554.71,-273.1"/>
</g>
<!-- src/domain/generated/core.ts&#45;&gt;node_modules/graphql -->
<g id="edge21" class="edge">
<title>src/domain/generated/core.ts&#45;&gt;node_modules/graphql</title>
<path fill="none" stroke="#000000" stroke-opacity="0.200000" d="M595.09,-261.83C612.97,-234.87 665.46,-155.78 687.05,-123.23"/>
<polygon fill="#000000" fill-opacity="0.200000" stroke="#000000" stroke-opacity="0.200000" points="688.91,-124.23 690.48,-118.07 685.41,-121.91 688.91,-124.23"/>
</g>
<!-- src/adapter/out/persistence/MockPersistenceAdapter.ts -->
<g id="node8" class="node">
<title>src/adapter/out/persistence/MockPersistenceAdapter.ts</title>
<g id="a_node8"><a xlink:href="src/adapter/out/persistence/MockPersistenceAdapter.ts" xlink:title="MockPersistenceAdapter.ts">
<path fill="#ddfeff" stroke="black" d="M339,-152C339,-152 214,-152 214,-152 211,-152 208,-149 208,-146 208,-146 208,-140 208,-140 208,-137 211,-134 214,-134 214,-134 339,-134 339,-134 342,-134 345,-137 345,-140 345,-140 345,-146 345,-146 345,-149 342,-152 339,-152"/>
<text text-anchor="start" x="216" y="-140.8" font-family="Helvetica,sans-Serif" font-size="9.00">MockPersistenceAdapter.ts</text>
</a>
</g>
</g>
<!-- src/adapter/out/persistence/MockPersistenceAdapter.ts&#45;&gt;src/domain/generated/core.ts -->
<g id="edge8" class="edge">
<title>src/adapter/out/persistence/MockPersistenceAdapter.ts&#45;&gt;src/domain/generated/core.ts</title>
<path fill="none" stroke="#000000" stroke-width="2" stroke-opacity="0.200000" d="M299.26,-152C354.18,-174.71 498.33,-234.33 559.22,-259.51"/>
<polygon fill="#000000" fill-opacity="0.200000" stroke="#000000" stroke-width="2" stroke-opacity="0.200000" points="558.5,-261.49 564.85,-261.84 560.1,-257.6 558.5,-261.49"/>
</g>
<!-- src/application/port/out/loadCheatsheetPort.ts -->
<g id="node9" class="node">
<title>src/application/port/out/loadCheatsheetPort.ts</title>
<g id="a_node9"><a xlink:href="src/application/port/out/loadCheatsheetPort.ts" xlink:title="loadCheatsheetPort.ts">
<path fill="#ddfeff" stroke="black" d="M505,-400C505,-400 401,-400 401,-400 398,-400 395,-397 395,-394 395,-394 395,-388 395,-388 395,-385 398,-382 401,-382 401,-382 505,-382 505,-382 508,-382 511,-385 511,-388 511,-388 511,-394 511,-394 511,-397 508,-400 505,-400"/>
<text text-anchor="start" x="403" y="-388.8" font-family="Helvetica,sans-Serif" font-size="9.00">loadCheatsheetPort.ts</text>
</a>
</g>
</g>
<!-- src/adapter/out/persistence/MockPersistenceAdapter.ts&#45;&gt;src/application/port/out/loadCheatsheetPort.ts -->
<g id="edge6" class="edge">
<title>src/adapter/out/persistence/MockPersistenceAdapter.ts&#45;&gt;src/application/port/out/loadCheatsheetPort.ts</title>
<path fill="none" stroke="#000000" stroke-width="2" stroke-opacity="0.200000" d="M289.13,-152.2C309.59,-169.18 351.53,-207.7 369,-251 379.41,-276.81 358.67,-355.05 377,-376 380.46,-379.95 384.63,-383.04 389.23,-385.44"/>
<polygon fill="#000000" fill-opacity="0.200000" stroke="#000000" stroke-width="2" stroke-opacity="0.200000" points="388.46,-387.39 394.79,-387.95 390.18,-383.57 388.46,-387.39"/>
</g>
<!-- src/application/port/out/loadFlashcardPort.ts -->
<g id="node10" class="node">
<title>src/application/port/out/loadFlashcardPort.ts</title>
<g id="a_node10"><a xlink:href="src/application/port/out/loadFlashcardPort.ts" xlink:title="loadFlashcardPort.ts">
<path fill="#ddfeff" stroke="black" d="M501,-370C501,-370 405,-370 405,-370 402,-370 399,-367 399,-364 399,-364 399,-358 399,-358 399,-355 402,-352 405,-352 405,-352 501,-352 501,-352 504,-352 507,-355 507,-358 507,-358 507,-364 507,-364 507,-367 504,-370 501,-370"/>
<text text-anchor="start" x="407" y="-358.8" font-family="Helvetica,sans-Serif" font-size="9.00">loadFlashcardPort.ts</text>
</a>
</g>
</g>
<!-- src/adapter/out/persistence/MockPersistenceAdapter.ts&#45;&gt;src/application/port/out/loadFlashcardPort.ts -->
<g id="edge7" class="edge">
<title>src/adapter/out/persistence/MockPersistenceAdapter.ts&#45;&gt;src/application/port/out/loadFlashcardPort.ts</title>
<path fill="none" stroke="#000000" stroke-width="2" stroke-opacity="0.200000" d="M289.01,-152.25C309.29,-169.3 350.96,-207.94 369,-251 376.59,-269.11 364.53,-323.83 377,-339 381.35,-344.3 386.91,-348.36 393.03,-351.47"/>
<polygon fill="#000000" fill-opacity="0.200000" stroke="#000000" stroke-width="2" stroke-opacity="0.200000" points="392.45,-353.51 398.78,-354.07 394.18,-349.68 392.45,-353.51"/>
</g>
<!-- src/application/port/out/loadCheatsheetPort.ts&#45;&gt;src/domain/generated/core.ts -->
<g id="edge11" class="edge">
<title>src/application/port/out/loadCheatsheetPort.ts&#45;&gt;src/domain/generated/core.ts</title>
<path fill="none" stroke="#000000" stroke-width="2" stroke-opacity="0.200000" d="M511.04,-388.06C520.36,-385.59 529.44,-381.78 537,-376 566.47,-353.47 579.39,-309.2 584.34,-286"/>
<polygon fill="#000000" fill-opacity="0.200000" stroke="#000000" stroke-width="2" stroke-opacity="0.200000" points="586.41,-286.34 585.53,-280.04 582.3,-285.52 586.41,-286.34"/>
</g>
<!-- src/application/port/out/loadFlashcardPort.ts&#45;&gt;src/domain/generated/core.ts -->
<g id="edge12" class="edge">
<title>src/application/port/out/loadFlashcardPort.ts&#45;&gt;src/domain/generated/core.ts</title>
<path fill="none" stroke="#000000" stroke-width="2" stroke-opacity="0.200000" d="M507.25,-352.61C517.68,-349.43 528.13,-345.04 537,-339 556.89,-325.45 571.83,-301.31 579.99,-285.74"/>
<polygon fill="#000000" fill-opacity="0.200000" stroke="#000000" stroke-width="2" stroke-opacity="0.200000" points="582.05,-286.33 582.88,-280.03 578.3,-284.44 582.05,-286.33"/>
</g>
<!-- src/application/service/CheatsheetService.ts -->
<g id="node11" class="node">
<title>src/application/service/CheatsheetService.ts</title>
<g id="a_node11"><a xlink:href="src/application/service/CheatsheetService.ts" xlink:title="CheatsheetService.ts">
<path fill="#ddfeff" stroke="black" d="M326.5,-310C326.5,-310 226.5,-310 226.5,-310 223.5,-310 220.5,-307 220.5,-304 220.5,-304 220.5,-298 220.5,-298 220.5,-295 223.5,-292 226.5,-292 226.5,-292 326.5,-292 326.5,-292 329.5,-292 332.5,-295 332.5,-298 332.5,-298 332.5,-304 332.5,-304 332.5,-307 329.5,-310 326.5,-310"/>
<text text-anchor="start" x="228.5" y="-298.8" font-family="Helvetica,sans-Serif" font-size="9.00">CheatsheetService.ts</text>
</a>
</g>
</g>
<!-- src/application/service/CheatsheetService.ts&#45;&gt;src/application/port/in/GetCheatsheetQuery.ts -->
<g id="edge13" class="edge">
<title>src/application/service/CheatsheetService.ts&#45;&gt;src/application/port/in/GetCheatsheetQuery.ts</title>
<path fill="none" stroke="#000000" stroke-width="2" stroke-opacity="0.200000" d="M332.71,-301C349.79,-301 368.76,-301 386.46,-301"/>
<polygon fill="#000000" fill-opacity="0.200000" stroke="#000000" stroke-width="2" stroke-opacity="0.200000" points="386.92,-303.1 392.92,-301 386.92,-298.9 386.92,-303.1"/>
</g>
<!-- src/application/service/CheatsheetService.ts&#45;&gt;src/application/port/out/loadCheatsheetPort.ts -->
<g id="edge14" class="edge">
<title>src/application/service/CheatsheetService.ts&#45;&gt;src/application/port/out/loadCheatsheetPort.ts</title>
<path fill="none" stroke="#000000" stroke-width="2" stroke-opacity="0.200000" d="M286.45,-310.03C302.85,-326.01 339.5,-359.18 377,-376 380.74,-377.68 384.68,-379.17 388.7,-380.5"/>
<polygon fill="#000000" fill-opacity="0.200000" stroke="#000000" stroke-width="2" stroke-opacity="0.200000" points="388.29,-382.57 394.65,-382.33 389.53,-378.56 388.29,-382.57"/>
</g>
<!-- src/application/service/FlashcardService.ts -->
<g id="node12" class="node">
<title>src/application/service/FlashcardService.ts</title>
<g id="a_node12"><a xlink:href="src/application/service/FlashcardService.ts" xlink:title="FlashcardService.ts">
<path fill="#ddfeff" stroke="black" d="M322.5,-280C322.5,-280 230.5,-280 230.5,-280 227.5,-280 224.5,-277 224.5,-274 224.5,-274 224.5,-268 224.5,-268 224.5,-265 227.5,-262 230.5,-262 230.5,-262 322.5,-262 322.5,-262 325.5,-262 328.5,-265 328.5,-268 328.5,-268 328.5,-274 328.5,-274 328.5,-277 325.5,-280 322.5,-280"/>
<text text-anchor="start" x="232.5" y="-268.8" font-family="Helvetica,sans-Serif" font-size="9.00">FlashcardService.ts</text>
</a>
</g>
</g>
<!-- src/application/service/FlashcardService.ts&#45;&gt;src/application/port/in/GetFlashcardsQuery.ts -->
<g id="edge15" class="edge">
<title>src/application/service/FlashcardService.ts&#45;&gt;src/application/port/in/GetFlashcardsQuery.ts</title>
<path fill="none" stroke="#000000" stroke-width="2" stroke-opacity="0.200000" d="M328.91,-271C347.42,-271 368.53,-271 387.98,-271"/>
<polygon fill="#000000" fill-opacity="0.200000" stroke="#000000" stroke-width="2" stroke-opacity="0.200000" points="388.23,-273.1 394.23,-271 388.23,-268.9 388.23,-273.1"/>
</g>
<!-- src/application/service/FlashcardService.ts&#45;&gt;src/application/port/out/loadFlashcardPort.ts -->
<g id="edge16" class="edge">
<title>src/application/service/FlashcardService.ts&#45;&gt;src/application/port/out/loadFlashcardPort.ts</title>
<path fill="none" stroke="#000000" stroke-width="2" stroke-opacity="0.200000" d="M328.75,-268.54C343.53,-270.45 358.48,-275.35 369,-286 385.74,-302.95 361.33,-321.05 377,-339 381.44,-344.09 386.99,-348.03 393.05,-351.08"/>
<polygon fill="#000000" fill-opacity="0.200000" stroke="#000000" stroke-width="2" stroke-opacity="0.200000" points="392.4,-353.09 398.74,-353.63 394.12,-349.26 392.4,-353.09"/>
</g>
<!-- src/config/mockConfig.ts -->
<g id="node13" class="node">
<title>src/config/mockConfig.ts</title>
<g id="a_node13"><a xlink:href="src/config/mockConfig.ts" xlink:title="mockConfig.ts">
<path fill="#ddfeff" stroke="black" d="M162,-152C162,-152 92,-152 92,-152 89,-152 86,-149 86,-146 86,-146 86,-140 86,-140 86,-137 89,-134 92,-134 92,-134 162,-134 162,-134 165,-134 168,-137 168,-140 168,-140 168,-146 168,-146 168,-149 165,-152 162,-152"/>
<text text-anchor="start" x="94" y="-140.8" font-family="Helvetica,sans-Serif" font-size="9.00">mockConfig.ts</text>
</a>
</g>
</g>
<!-- src/config/mockConfig.ts&#45;&gt;src/adapter/in/web/GraphQLController.ts -->
<g id="edge17" class="edge">
<title>src/config/mockConfig.ts&#45;&gt;src/adapter/in/web/GraphQLController.ts</title>
<path fill="none" stroke="#000000" stroke-width="2" stroke-opacity="0.200000" d="M167.35,-133.95C170.34,-132.78 173.26,-131.47 176,-130 180.16,-127.77 180.38,-126.04 184,-123 209.86,-101.24 240.51,-76.7 258.96,-62.06"/>
<polygon fill="#000000" fill-opacity="0.200000" stroke="#000000" stroke-width="2" stroke-opacity="0.200000" points="260.43,-63.58 263.83,-58.2 257.82,-60.28 260.43,-63.58"/>
</g>
<!-- src/config/mockConfig.ts&#45;&gt;src/adapter/out/persistence/MockPersistenceAdapter.ts -->
<g id="edge18" class="edge">
<title>src/config/mockConfig.ts&#45;&gt;src/adapter/out/persistence/MockPersistenceAdapter.ts</title>
<path fill="none" stroke="#000000" stroke-width="2" stroke-opacity="0.200000" d="M168.31,-143C178.69,-143 190.2,-143 201.71,-143"/>
<polygon fill="#000000" fill-opacity="0.200000" stroke="#000000" stroke-width="2" stroke-opacity="0.200000" points="201.73,-145.1 207.73,-143 201.73,-140.9 201.73,-145.1"/>
</g>
<!-- src/config/mockConfig.ts&#45;&gt;src/application/service/CheatsheetService.ts -->
<g id="edge19" class="edge">
<title>src/config/mockConfig.ts&#45;&gt;src/application/service/CheatsheetService.ts</title>
<path fill="none" stroke="#000000" stroke-width="2" stroke-opacity="0.200000" d="M128.59,-152.15C130.77,-177.82 140.67,-250.96 184,-286 192.66,-293 203.32,-297.32 214.27,-299.88"/>
<polygon fill="#000000" fill-opacity="0.200000" stroke="#000000" stroke-width="2" stroke-opacity="0.200000" points="214.07,-301.99 220.37,-301.13 214.92,-297.87 214.07,-301.99"/>
</g>
<!-- src/config/mockConfig.ts&#45;&gt;src/application/service/FlashcardService.ts -->
<g id="edge20" class="edge">
<title>src/config/mockConfig.ts&#45;&gt;src/application/service/FlashcardService.ts</title>
<path fill="none" stroke="#000000" stroke-width="2" stroke-opacity="0.200000" d="M138.61,-152.21C164.33,-174.53 230.13,-231.63 260.15,-257.68"/>
<polygon fill="#000000" fill-opacity="0.200000" stroke="#000000" stroke-width="2" stroke-opacity="0.200000" points="259.08,-259.53 264.99,-261.88 261.83,-256.36 259.08,-259.53"/>
</g>
<!-- src/index.ts -->
<g id="node14" class="node">
<title>src/index.ts</title>
<g id="a_node14"><a xlink:href="src/index.ts" xlink:title="index.ts">
<path fill="#ddfeff" stroke="black" d="M64,-128C64,-128 22,-128 22,-128 19,-128 16,-125 16,-122 16,-122 16,-116 16,-116 16,-113 19,-110 22,-110 22,-110 64,-110 64,-110 67,-110 70,-113 70,-116 70,-116 70,-122 70,-122 70,-125 67,-128 64,-128"/>
<text text-anchor="start" x="24.5" y="-116.8" font-family="Helvetica,sans-Serif" font-size="9.00">index.ts</text>
</a>
</g>
</g>
<!-- src/index.ts&#45;&gt;src/adapter/in/web/GraphQLController.ts -->
<g id="edge22" class="edge">
<title>src/index.ts&#45;&gt;src/adapter/in/web/GraphQLController.ts</title>
<path fill="none" stroke="#000000" stroke-width="2" stroke-opacity="0.200000" d="M70.11,-111.11C111.61,-98.56 192.73,-74.03 239.65,-59.84"/>
<polygon fill="#000000" fill-opacity="0.200000" stroke="#000000" stroke-width="2" stroke-opacity="0.200000" points="240.34,-61.82 245.48,-58.08 239.13,-57.8 240.34,-61.82"/>
</g>
<!-- src/index.ts&#45;&gt;src/config/mockConfig.ts -->
<g id="edge23" class="edge">
<title>src/index.ts&#45;&gt;src/config/mockConfig.ts</title>
<path fill="none" stroke="#000000" stroke-width="2" stroke-opacity="0.200000" d="M70.32,-127.65C72.91,-128.46 75.5,-129.26 78,-130 80.51,-130.75 83.11,-131.5 85.73,-132.25"/>
<polygon fill="#000000" fill-opacity="0.200000" stroke="#000000" stroke-width="2" stroke-opacity="0.200000" points="85.51,-134.37 91.85,-133.97 86.65,-130.32 85.51,-134.37"/>
</g>
</g>
</svg>
