<?xml version="1.0" encoding="UTF-8" standalone="no"?>
<!DOCTYPE svg PUBLIC "-//W3C//DTD SVG 1.1//EN"
 "http://www.w3.org/Graphics/SVG/1.1/DTD/svg11.dtd">
<!-- Generated by graphviz version 2.43.0 (0)
 -->
<!-- Title: dependency&#45;cruiser output Pages: 1 -->
<svg width="302pt" height="276pt"
 viewBox="0.00 0.00 302.00 276.00" xmlns="http://www.w3.org/2000/svg" xmlns:xlink="http://www.w3.org/1999/xlink">
<g id="graph0" class="graph" transform="scale(1 1) rotate(0) translate(4 272)">
<title>dependency&#45;cruiser output</title>
<polygon fill="white" stroke="transparent" points="-4,4 -4,-272 298,-272 298,4 -4,4"/>
<g id="clust1" class="cluster">
<title>cluster_node_modules</title>
<path fill="#ffffff" stroke="black" stroke-width="2" d="M214,-8C214,-8 280,-8 280,-8 286,-8 292,-14 292,-20 292,-20 292,-138 292,-138 292,-144 286,-150 280,-150 280,-150 214,-150 214,-150 208,-150 202,-144 202,-138 202,-138 202,-20 202,-20 202,-14 208,-8 214,-8"/>
<text text-anchor="middle" x="247" y="-138.8" font-family="Helvetica,sans-Serif" font-weight="bold" font-size="9.00">node_modules</text>
</g>
<g id="clust2" class="cluster">
<title>cluster_src</title>
<path fill="#ffffff" stroke="black" stroke-width="2" d="M20,-84C20,-84 182,-84 182,-84 188,-84 194,-90 194,-96 194,-96 194,-248 194,-248 194,-254 188,-260 182,-260 182,-260 20,-260 20,-260 14,-260 8,-254 8,-248 8,-248 8,-96 8,-96 8,-90 14,-84 20,-84"/>
<text text-anchor="middle" x="101" y="-248.8" font-family="Helvetica,sans-Serif" font-weight="bold" font-size="9.00">src</text>
</g>
<g id="clust3" class="cluster">
<title>cluster_src/api</title>
<path fill="#ffffff" stroke="black" stroke-width="2" d="M105.5,-92C105.5,-92 167.5,-92 167.5,-92 173.5,-92 179.5,-98 179.5,-104 179.5,-104 179.5,-166 179.5,-166 179.5,-172 173.5,-178 167.5,-178 167.5,-178 105.5,-178 105.5,-178 99.5,-178 93.5,-172 93.5,-166 93.5,-166 93.5,-104 93.5,-104 93.5,-98 99.5,-92 105.5,-92"/>
<text text-anchor="middle" x="136.5" y="-166.8" font-family="Helvetica,sans-Serif" font-weight="bold" font-size="9.00">api</text>
</g>
<g id="clust4" class="cluster">
<title>cluster_src/api/generated</title>
<path fill="#ffffff" stroke="black" stroke-width="2" d="M113.5,-100C113.5,-100 159.5,-100 159.5,-100 165.5,-100 171.5,-106 171.5,-112 171.5,-112 171.5,-140 171.5,-140 171.5,-146 165.5,-152 159.5,-152 159.5,-152 113.5,-152 113.5,-152 107.5,-152 101.5,-146 101.5,-140 101.5,-140 101.5,-112 101.5,-112 101.5,-106 107.5,-100 113.5,-100"/>
<text text-anchor="middle" x="136.5" y="-140.8" font-family="Helvetica,sans-Serif" font-weight="bold" font-size="9.00">generated</text>
</g>
<!-- node_modules/@apollo -->
<g id="node1" class="node">
<title>node_modules/@apollo</title>
<g id="a_node1"><a xlink:href="node_modules/@apollo" xlink:title="@apollo">
<polygon fill="#c40b0a" fill-opacity="0.101961" stroke="black" points="273.5,-94 221.5,-94 219.5,-92 219.5,-76 271.5,-76 273.5,-78 273.5,-94"/>
<polyline fill="none" stroke="black" points="271.5,-92 219.5,-92 "/>
<polyline fill="none" stroke="black" points="271.5,-92 271.5,-76 "/>
<polyline fill="none" stroke="black" points="271.5,-92 273.5,-94 "/>
<text text-anchor="start" x="228.5" y="-82.8" font-family="Helvetica,sans-Serif" font-size="9.00" fill="#c40b0a">@apollo</text>
</a>
</g>
</g>
<!-- node_modules/react -->
<g id="node2" class="node">
<title>node_modules/react</title>
<g id="a_node2"><a xlink:href="node_modules/react" xlink:title="react">
<polygon fill="#c40b0a" fill-opacity="0.101961" stroke="black" points="273.5,-64 221.5,-64 219.5,-62 219.5,-46 271.5,-46 273.5,-48 273.5,-64"/>
<polyline fill="none" stroke="black" points="271.5,-62 219.5,-62 "/>
<polyline fill="none" stroke="black" points="271.5,-62 271.5,-46 "/>
<polyline fill="none" stroke="black" points="271.5,-62 273.5,-64 "/>
<text text-anchor="start" x="234.5" y="-52.8" font-family="Helvetica,sans-Serif" font-size="9.00" fill="#c40b0a">react</text>
</a>
</g>
</g>
<!-- node_modules/react&#45;dom -->
<g id="node3" class="node">
<title>node_modules/react&#45;dom</title>
<g id="a_node3"><a xlink:href="node_modules/react-dom" xlink:title="react&#45;dom">
<polygon fill="#c40b0a" fill-opacity="0.101961" stroke="black" points="278,-34 217,-34 215,-32 215,-16 276,-16 278,-18 278,-34"/>
<polyline fill="none" stroke="black" points="276,-32 215,-32 "/>
<polyline fill="none" stroke="black" points="276,-32 276,-16 "/>
<polyline fill="none" stroke="black" points="276,-32 278,-34 "/>
<text text-anchor="start" x="223" y="-22.8" font-family="Helvetica,sans-Serif" font-size="9.00" fill="#c40b0a">react&#45;dom</text>
</a>
</g>
</g>
<!-- node_modules/web&#45;vitals -->
<g id="node4" class="node">
<title>node_modules/web&#45;vitals</title>
<g id="a_node4"><a xlink:href="node_modules/web-vitals" xlink:title="web&#45;vitals">
<polygon fill="#c40b0a" fill-opacity="0.101961" stroke="black" points="277.5,-124 217.5,-124 215.5,-122 215.5,-106 275.5,-106 277.5,-108 277.5,-124"/>
<polyline fill="none" stroke="black" points="275.5,-122 215.5,-122 "/>
<polyline fill="none" stroke="black" points="275.5,-122 275.5,-106 "/>
<polyline fill="none" stroke="black" points="275.5,-122 277.5,-124 "/>
<text text-anchor="start" x="223.5" y="-112.8" font-family="Helvetica,sans-Serif" font-size="9.00" fill="#c40b0a">web&#45;vitals</text>
</a>
</g>
</g>
<!-- src/api/generated/books.ts -->
<g id="node5" class="node">
<title>src/api/generated/books.ts</title>
<g id="a_node5"><a xlink:href="src/api/generated/books.ts" xlink:title="books.ts">
<path fill="#ddfeff" stroke="black" d="M157.5,-126C157.5,-126 115.5,-126 115.5,-126 112.5,-126 109.5,-123 109.5,-120 109.5,-120 109.5,-114 109.5,-114 109.5,-111 112.5,-108 115.5,-108 115.5,-108 157.5,-108 157.5,-108 160.5,-108 163.5,-111 163.5,-114 163.5,-114 163.5,-120 163.5,-120 163.5,-123 160.5,-126 157.5,-126"/>
<text text-anchor="start" x="117.5" y="-114.8" font-family="Helvetica,sans-Serif" font-size="9.00">books.ts</text>
</a>
</g>
</g>
<!-- src/api/generated/books.ts&#45;&gt;node_modules/@apollo -->
<g id="edge1" class="edge">
<title>src/api/generated/books.ts&#45;&gt;node_modules/@apollo</title>
<path fill="none" stroke="#000000" stroke-opacity="0.200000" d="M163.64,-109.25C178.52,-104.84 197.29,-99.28 213.1,-94.6"/>
<polygon fill="#000000" fill-opacity="0.200000" stroke="#000000" stroke-opacity="0.200000" points="214.07,-96.5 219.22,-92.79 212.87,-92.48 214.07,-96.5"/>
</g>
<!-- src/index.css -->
<g id="node6" class="node">
<title>src/index.css</title>
<g id="a_node6"><a xlink:href="src/index.css" xlink:title="index.css">
<path fill="#ffffcc" stroke="black" d="M160,-204C160,-204 113,-204 113,-204 110,-204 107,-201 107,-198 107,-198 107,-192 107,-192 107,-189 110,-186 113,-186 113,-186 160,-186 160,-186 163,-186 166,-189 166,-192 166,-192 166,-198 166,-198 166,-201 163,-204 160,-204"/>
<text text-anchor="start" x="115" y="-192.8" font-family="Helvetica,sans-Serif" font-size="9.00">index.css</text>
</a>
</g>
</g>
<!-- src/index.tsx -->
<g id="node7" class="node">
<title>src/index.tsx</title>
<g id="a_node7"><a xlink:href="src/index.tsx" xlink:title="index.tsx">
<path fill="#bbfeff" stroke="black" d="M68,-118C68,-118 22,-118 22,-118 19,-118 16,-115 16,-112 16,-112 16,-106 16,-106 16,-103 19,-100 22,-100 22,-100 68,-100 68,-100 71,-100 74,-103 74,-106 74,-106 74,-112 74,-112 74,-115 71,-118 68,-118"/>
<text text-anchor="start" x="24" y="-106.8" font-family="Helvetica,sans-Serif" font-size="9.00">index.tsx</text>
</a>
</g>
</g>
<!-- src/index.tsx&#45;&gt;node_modules/@apollo -->
<g id="edge5" class="edge">
<title>src/index.tsx&#45;&gt;node_modules/@apollo</title>
<path fill="none" stroke="#000000" stroke-opacity="0.200000" d="M74.05,-99.95C78.35,-98.81 82.77,-97.77 87,-97 130.27,-89.12 181.09,-86.4 213.3,-85.47"/>
<polygon fill="#000000" fill-opacity="0.200000" stroke="#000000" stroke-opacity="0.200000" points="213.54,-87.56 219.48,-85.31 213.43,-83.37 213.54,-87.56"/>
</g>
<!-- src/index.tsx&#45;&gt;node_modules/react -->
<g id="edge6" class="edge">
<title>src/index.tsx&#45;&gt;node_modules/react</title>
<path fill="none" stroke="#000000" stroke-opacity="0.200000" d="M57.54,-99.95C65.41,-94.22 76.31,-87.15 87,-83 128.77,-66.8 180.38,-59.91 213.13,-57.02"/>
<polygon fill="#000000" fill-opacity="0.200000" stroke="#000000" stroke-opacity="0.200000" points="213.61,-59.09 219.42,-56.5 213.26,-54.9 213.61,-59.09"/>
</g>
<!-- src/index.tsx&#45;&gt;node_modules/react&#45;dom -->
<g id="edge7" class="edge">
<title>src/index.tsx&#45;&gt;node_modules/react&#45;dom</title>
<path fill="none" stroke="#000000" stroke-opacity="0.200000" d="M50.4,-99.86C56.73,-87.77 69.57,-66.75 87,-56 124.18,-33.06 174.81,-26.56 208.75,-24.99"/>
<polygon fill="#000000" fill-opacity="0.200000" stroke="#000000" stroke-opacity="0.200000" points="208.97,-27.08 214.89,-24.75 208.81,-22.88 208.97,-27.08"/>
</g>
<!-- src/index.tsx&#45;&gt;src/api/generated/books.ts -->
<g id="edge2" class="edge">
<title>src/index.tsx&#45;&gt;src/api/generated/books.ts</title>
<path fill="none" stroke="#000000" stroke-width="2" stroke-opacity="0.200000" d="M74.32,-111.53C83.56,-112.36 93.89,-113.28 103.39,-114.13"/>
<polygon fill="#000000" fill-opacity="0.200000" stroke="#000000" stroke-width="2" stroke-opacity="0.200000" points="103.33,-116.23 109.49,-114.68 103.7,-112.05 103.33,-116.23"/>
</g>
<!-- src/index.tsx&#45;&gt;src/index.css -->
<g id="edge3" class="edge">
<title>src/index.tsx&#45;&gt;src/index.css</title>
<path fill="none" stroke="#000000" stroke-width="2" stroke-opacity="0.200000" d="M53.47,-118.19C61.41,-127.75 74.51,-142.98 87,-155 97.05,-164.67 109.14,-174.65 118.74,-182.22"/>
<polygon fill="#000000" fill-opacity="0.200000" stroke="#000000" stroke-width="2" stroke-opacity="0.200000" points="117.49,-183.9 123.51,-185.94 120.07,-180.6 117.49,-183.9"/>
</g>
<!-- src/reportWebVitals.ts -->
<g id="node8" class="node">
<title>src/reportWebVitals.ts</title>
<g id="a_node8"><a xlink:href="src/reportWebVitals.ts" xlink:title="reportWebVitals.ts">
<path fill="#ddfeff" stroke="black" d="M180,-234C180,-234 93,-234 93,-234 90,-234 87,-231 87,-228 87,-228 87,-222 87,-222 87,-219 90,-216 93,-216 93,-216 180,-216 180,-216 183,-216 186,-219 186,-222 186,-222 186,-228 186,-228 186,-231 183,-234 180,-234"/>
<text text-anchor="start" x="95" y="-222.8" font-family="Helvetica,sans-Serif" font-size="9.00">reportWebVitals.ts</text>
</a>
</g>
</g>
<!-- src/index.tsx&#45;&gt;src/reportWebVitals.ts -->
<g id="edge4" class="edge">
<title>src/index.tsx&#45;&gt;src/reportWebVitals.ts</title>
<path fill="none" stroke="#000000" stroke-width="2" stroke-opacity="0.200000" d="M47.07,-118C49.87,-137.63 59.25,-184.54 87,-210 88,-210.92 89.06,-211.78 90.16,-212.59"/>
<polygon fill="#000000" fill-opacity="0.200000" stroke="#000000" stroke-width="2" stroke-opacity="0.200000" points="89.06,-214.38 95.26,-215.82 91.31,-210.84 89.06,-214.38"/>
</g>
<!-- src/reportWebVitals.ts&#45;&gt;node_modules/web&#45;vitals -->
<g id="edge8" class="edge">
<title>src/reportWebVitals.ts&#45;&gt;node_modules/web&#45;vitals</title>
<path fill="none" stroke="#000000" stroke-opacity="0.200000" d="M184.32,-215.95C187.77,-214.29 191.05,-212.32 194,-210 220.32,-189.29 234.98,-151.26 241.44,-130.14"/>
<polygon fill="#000000" fill-opacity="0.200000" stroke="#000000" stroke-opacity="0.200000" points="243.51,-130.52 243.18,-124.17 239.48,-129.34 243.51,-130.52"/>
</g>
</g>
</svg>
