<?xml version="1.0" encoding="UTF-8" standalone="no"?>
<!DOCTYPE svg PUBLIC "-//W3C//DTD SVG 1.1//EN"
 "http://www.w3.org/Graphics/SVG/1.1/DTD/svg11.dtd">
<!-- Generated by graphviz version 2.43.0 (0)
 -->
<!-- Title: dependency&#45;cruiser output Pages: 1 -->
<svg width="396pt" height="280pt"
 viewBox="0.00 0.00 396.00 280.00" xmlns="http://www.w3.org/2000/svg" xmlns:xlink="http://www.w3.org/1999/xlink">
<g id="graph0" class="graph" transform="scale(1 1) rotate(0) translate(4 276)">
<title>dependency&#45;cruiser output</title>
<polygon fill="white" stroke="transparent" points="-4,4 -4,-276 392,-276 392,4 -4,4"/>
<g id="clust1" class="cluster">
<title>cluster_node_modules</title>
<path fill="#ffffff" stroke="black" stroke-width="2" d="M308,-8C308,-8 374,-8 374,-8 380,-8 386,-14 386,-20 386,-20 386,-138 386,-138 386,-144 380,-150 374,-150 374,-150 308,-150 308,-150 302,-150 296,-144 296,-138 296,-138 296,-20 296,-20 296,-14 302,-8 308,-8"/>
<text text-anchor="middle" x="341" y="-138.8" font-family="Helvetica,sans-Serif" font-weight="bold" font-size="9.00">node_modules</text>
</g>
<g id="clust2" class="cluster">
<title>cluster_src</title>
<path fill="#ffffff" stroke="black" stroke-width="2" d="M20,-118C20,-118 276,-118 276,-118 282,-118 288,-124 288,-130 288,-130 288,-252 288,-252 288,-258 282,-264 276,-264 276,-264 20,-264 20,-264 14,-264 8,-258 8,-252 8,-252 8,-130 8,-130 8,-124 14,-118 20,-118"/>
<text text-anchor="middle" x="148" y="-252.8" font-family="Helvetica,sans-Serif" font-weight="bold" font-size="9.00">src</text>
</g>
<g id="clust3" class="cluster">
<title>cluster_src/api</title>
<path fill="#ffffff" stroke="black" stroke-width="2" d="M206,-152C206,-152 268,-152 268,-152 274,-152 280,-158 280,-164 280,-164 280,-226 280,-226 280,-232 274,-238 268,-238 268,-238 206,-238 206,-238 200,-238 194,-232 194,-226 194,-226 194,-164 194,-164 194,-158 200,-152 206,-152"/>
<text text-anchor="middle" x="237" y="-226.8" font-family="Helvetica,sans-Serif" font-weight="bold" font-size="9.00">api</text>
</g>
<g id="clust4" class="cluster">
<title>cluster_src/api/generated</title>
<path fill="#ffffff" stroke="black" stroke-width="2" d="M214,-160C214,-160 260,-160 260,-160 266,-160 272,-166 272,-172 272,-172 272,-200 272,-200 272,-206 266,-212 260,-212 260,-212 214,-212 214,-212 208,-212 202,-206 202,-200 202,-200 202,-172 202,-172 202,-166 208,-160 214,-160"/>
<text text-anchor="middle" x="237" y="-200.8" font-family="Helvetica,sans-Serif" font-weight="bold" font-size="9.00">generated</text>
</g>
<!-- node_modules/@apollo -->
<g id="node1" class="node">
<title>node_modules/@apollo</title>
<g id="a_node1"><a xlink:href="node_modules/@apollo" xlink:title="@apollo">
<polygon fill="#c40b0a" fill-opacity="0.101961" stroke="black" points="367.5,-94 315.5,-94 313.5,-92 313.5,-76 365.5,-76 367.5,-78 367.5,-94"/>
<polyline fill="none" stroke="black" points="365.5,-92 313.5,-92 "/>
<polyline fill="none" stroke="black" points="365.5,-92 365.5,-76 "/>
<polyline fill="none" stroke="black" points="365.5,-92 367.5,-94 "/>
<text text-anchor="start" x="322.5" y="-82.8" font-family="Helvetica,sans-Serif" font-size="9.00" fill="#c40b0a">@apollo</text>
</a>
</g>
</g>
<!-- node_modules/react -->
<g id="node2" class="node">
<title>node_modules/react</title>
<g id="a_node2"><a xlink:href="node_modules/react" xlink:title="react">
<polygon fill="#c40b0a" fill-opacity="0.101961" stroke="black" points="367.5,-64 315.5,-64 313.5,-62 313.5,-46 365.5,-46 367.5,-48 367.5,-64"/>
<polyline fill="none" stroke="black" points="365.5,-62 313.5,-62 "/>
<polyline fill="none" stroke="black" points="365.5,-62 365.5,-46 "/>
<polyline fill="none" stroke="black" points="365.5,-62 367.5,-64 "/>
<text text-anchor="start" x="328.5" y="-52.8" font-family="Helvetica,sans-Serif" font-size="9.00" fill="#c40b0a">react</text>
</a>
</g>
</g>
<!-- node_modules/react&#45;dom -->
<g id="node3" class="node">
<title>node_modules/react&#45;dom</title>
<g id="a_node3"><a xlink:href="node_modules/react-dom" xlink:title="react&#45;dom">
<polygon fill="#c40b0a" fill-opacity="0.101961" stroke="black" points="372,-34 311,-34 309,-32 309,-16 370,-16 372,-18 372,-34"/>
<polyline fill="none" stroke="black" points="370,-32 309,-32 "/>
<polyline fill="none" stroke="black" points="370,-32 370,-16 "/>
<polyline fill="none" stroke="black" points="370,-32 372,-34 "/>
<text text-anchor="start" x="317" y="-22.8" font-family="Helvetica,sans-Serif" font-size="9.00" fill="#c40b0a">react&#45;dom</text>
</a>
</g>
</g>
<!-- node_modules/web&#45;vitals -->
<g id="node4" class="node">
<title>node_modules/web&#45;vitals</title>
<g id="a_node4"><a xlink:href="node_modules/web-vitals" xlink:title="web&#45;vitals">
<polygon fill="#c40b0a" fill-opacity="0.101961" stroke="black" points="371.5,-124 311.5,-124 309.5,-122 309.5,-106 369.5,-106 371.5,-108 371.5,-124"/>
<polyline fill="none" stroke="black" points="369.5,-122 309.5,-122 "/>
<polyline fill="none" stroke="black" points="369.5,-122 369.5,-106 "/>
<polyline fill="none" stroke="black" points="369.5,-122 371.5,-124 "/>
<text text-anchor="start" x="317.5" y="-112.8" font-family="Helvetica,sans-Serif" font-size="9.00" fill="#c40b0a">web&#45;vitals</text>
</a>
</g>
</g>
<!-- src/App.css -->
<g id="node5" class="node">
<title>src/App.css</title>
<g id="a_node5"><a xlink:href="src/App.css" xlink:title="App.css">
<path fill="#ffffcc" stroke="black" d="M258,-144C258,-144 216,-144 216,-144 213,-144 210,-141 210,-138 210,-138 210,-132 210,-132 210,-129 213,-126 216,-126 216,-126 258,-126 258,-126 261,-126 264,-129 264,-132 264,-132 264,-138 264,-138 264,-141 261,-144 258,-144"/>
<text text-anchor="start" x="219" y="-132.8" font-family="Helvetica,sans-Serif" font-size="9.00">App.css</text>
</a>
</g>
</g>
<!-- src/App.tsx -->
<g id="node6" class="node">
<title>src/App.tsx</title>
<g id="a_node6"><a xlink:href="src/App.tsx" xlink:title="App.tsx">
<path fill="#bbfeff" stroke="black" d="M157.5,-204C157.5,-204 115.5,-204 115.5,-204 112.5,-204 109.5,-201 109.5,-198 109.5,-198 109.5,-192 109.5,-192 109.5,-189 112.5,-186 115.5,-186 115.5,-186 157.5,-186 157.5,-186 160.5,-186 163.5,-189 163.5,-192 163.5,-192 163.5,-198 163.5,-198 163.5,-201 160.5,-204 157.5,-204"/>
<text text-anchor="start" x="119" y="-192.8" font-family="Helvetica,sans-Serif" font-size="9.00">App.tsx</text>
</a>
</g>
</g>
<!-- src/App.tsx&#45;&gt;src/App.css -->
<g id="edge2" class="edge">
<title>src/App.tsx&#45;&gt;src/App.css</title>
<path fill="none" stroke="#000000" stroke-width="2" stroke-opacity="0.200000" d="M163.52,-191.63C171.57,-189.46 179.91,-185.88 186,-180 193.78,-172.48 186.93,-165.2 194,-157 197.32,-153.15 201.49,-149.87 205.9,-147.12"/>
<polygon fill="#000000" fill-opacity="0.200000" stroke="#000000" stroke-width="2" stroke-opacity="0.200000" points="206.98,-148.92 211.15,-144.13 204.9,-145.27 206.98,-148.92"/>
</g>
<!-- src/api/generated/core.ts -->
<g id="node7" class="node">
<title>src/api/generated/core.ts</title>
<g id="a_node7"><a xlink:href="src/api/generated/core.ts" xlink:title="core.ts">
<path fill="#ddfeff" stroke="black" d="M258,-186C258,-186 216,-186 216,-186 213,-186 210,-183 210,-180 210,-180 210,-174 210,-174 210,-171 213,-168 216,-168 216,-168 258,-168 258,-168 261,-168 264,-171 264,-174 264,-174 264,-180 264,-180 264,-183 261,-186 258,-186"/>
<text text-anchor="start" x="221.5" y="-174.8" font-family="Helvetica,sans-Serif" font-size="9.00">core.ts</text>
</a>
</g>
</g>
<!-- src/App.tsx&#45;&gt;src/api/generated/core.ts -->
<g id="edge1" class="edge">
<title>src/App.tsx&#45;&gt;src/api/generated/core.ts</title>
<path fill="none" stroke="#000000" stroke-width="2" stroke-opacity="0.200000" d="M163.64,-190.22C175.88,-187.99 190.59,-185.3 203.54,-182.93"/>
<polygon fill="#000000" fill-opacity="0.200000" stroke="#000000" stroke-width="2" stroke-opacity="0.200000" points="204.22,-184.94 209.74,-181.8 203.46,-180.81 204.22,-184.94"/>
</g>
<!-- src/api/generated/core.ts&#45;&gt;node_modules/@apollo -->
<g id="edge3" class="edge">
<title>src/api/generated/core.ts&#45;&gt;node_modules/@apollo</title>
<path fill="none" stroke="#000000" stroke-opacity="0.200000" d="M264.22,-175.96C272.98,-174.27 282.02,-170.81 288,-164 306.91,-142.46 277.94,-122.26 296,-100 299.04,-96.25 303.08,-93.43 307.46,-91.32"/>
<polygon fill="#000000" fill-opacity="0.200000" stroke="#000000" stroke-opacity="0.200000" points="308.39,-93.21 313.15,-89 306.81,-89.32 308.39,-93.21"/>
</g>
<!-- src/index.css -->
<g id="node8" class="node">
<title>src/index.css</title>
<g id="a_node8"><a xlink:href="src/index.css" xlink:title="index.css">
<path fill="#ffffcc" stroke="black" d="M160,-174C160,-174 113,-174 113,-174 110,-174 107,-171 107,-168 107,-168 107,-162 107,-162 107,-159 110,-156 113,-156 113,-156 160,-156 160,-156 163,-156 166,-159 166,-162 166,-162 166,-168 166,-168 166,-171 163,-174 160,-174"/>
<text text-anchor="start" x="115" y="-162.8" font-family="Helvetica,sans-Serif" font-size="9.00">index.css</text>
</a>
</g>
</g>
<!-- src/index.tsx -->
<g id="node9" class="node">
<title>src/index.tsx</title>
<g id="a_node9"><a xlink:href="src/index.tsx" xlink:title="index.tsx">
<path fill="#bbfeff" stroke="black" d="M68,-144C68,-144 22,-144 22,-144 19,-144 16,-141 16,-138 16,-138 16,-132 16,-132 16,-129 19,-126 22,-126 22,-126 68,-126 68,-126 71,-126 74,-129 74,-132 74,-132 74,-138 74,-138 74,-141 71,-144 68,-144"/>
<text text-anchor="start" x="24" y="-132.8" font-family="Helvetica,sans-Serif" font-size="9.00">index.tsx</text>
</a>
</g>
</g>
<!-- src/index.tsx&#45;&gt;node_modules/@apollo -->
<g id="edge7" class="edge">
<title>src/index.tsx&#45;&gt;node_modules/@apollo</title>
<path fill="none" stroke="#000000" stroke-opacity="0.200000" d="M68.29,-125.87C74.28,-123.68 80.82,-121.54 87,-120 164.67,-100.64 258.64,-91.17 307.1,-87.27"/>
<polygon fill="#000000" fill-opacity="0.200000" stroke="#000000" stroke-opacity="0.200000" points="307.53,-89.35 313.34,-86.78 307.2,-85.16 307.53,-89.35"/>
</g>
<!-- src/index.tsx&#45;&gt;node_modules/react -->
<g id="edge8" class="edge">
<title>src/index.tsx&#45;&gt;node_modules/react</title>
<path fill="none" stroke="#000000" stroke-opacity="0.200000" d="M53.43,-125.79C60.95,-117.15 73.37,-104.61 87,-98 160.1,-62.56 257.45,-55.8 307.22,-54.84"/>
<polygon fill="#000000" fill-opacity="0.200000" stroke="#000000" stroke-opacity="0.200000" points="307.37,-56.94 313.34,-54.75 307.31,-52.74 307.37,-56.94"/>
</g>
<!-- src/index.tsx&#45;&gt;node_modules/react&#45;dom -->
<g id="edge9" class="edge">
<title>src/index.tsx&#45;&gt;node_modules/react&#45;dom</title>
<path fill="none" stroke="#000000" stroke-opacity="0.200000" d="M48.47,-125.83C53.16,-110.32 64.92,-79.11 87,-64 152.6,-19.1 250.1,-17.95 302.68,-21.3"/>
<polygon fill="#000000" fill-opacity="0.200000" stroke="#000000" stroke-opacity="0.200000" points="302.74,-23.41 308.87,-21.73 303.03,-19.22 302.74,-23.41"/>
</g>
<!-- src/index.tsx&#45;&gt;src/App.tsx -->
<g id="edge4" class="edge">
<title>src/index.tsx&#45;&gt;src/App.tsx</title>
<path fill="none" stroke="#000000" stroke-width="2" stroke-opacity="0.200000" d="M52.15,-144.29C59.35,-154.46 72.19,-170.59 87,-180 92.08,-183.23 97.89,-185.8 103.7,-187.83"/>
<polygon fill="#000000" fill-opacity="0.200000" stroke="#000000" stroke-width="2" stroke-opacity="0.200000" points="103.11,-189.85 109.47,-189.7 104.4,-185.86 103.11,-189.85"/>
</g>
<!-- src/index.tsx&#45;&gt;src/index.css -->
<g id="edge5" class="edge">
<title>src/index.tsx&#45;&gt;src/index.css</title>
<path fill="none" stroke="#000000" stroke-width="2" stroke-opacity="0.200000" d="M70.21,-144.09C75.71,-146.09 81.54,-148.16 87,-150 91.52,-151.53 96.3,-153.08 101.02,-154.57"/>
<polygon fill="#000000" fill-opacity="0.200000" stroke="#000000" stroke-width="2" stroke-opacity="0.200000" points="100.6,-156.64 106.96,-156.44 101.86,-152.64 100.6,-156.64"/>
</g>
<!-- src/reportWebVitals.ts -->
<g id="node10" class="node">
<title>src/reportWebVitals.ts</title>
<g id="a_node10"><a xlink:href="src/reportWebVitals.ts" xlink:title="reportWebVitals.ts">
<path fill="#ddfeff" stroke="black" d="M180,-144C180,-144 93,-144 93,-144 90,-144 87,-141 87,-138 87,-138 87,-132 87,-132 87,-129 90,-126 93,-126 93,-126 180,-126 180,-126 183,-126 186,-129 186,-132 186,-132 186,-138 186,-138 186,-141 183,-144 180,-144"/>
<text text-anchor="start" x="95" y="-132.8" font-family="Helvetica,sans-Serif" font-size="9.00">reportWebVitals.ts</text>
</a>
</g>
</g>
<!-- src/index.tsx&#45;&gt;src/reportWebVitals.ts -->
<g id="edge6" class="edge">
<title>src/index.tsx&#45;&gt;src/reportWebVitals.ts</title>
<path fill="none" stroke="#000000" stroke-width="2" stroke-opacity="0.200000" d="M74.32,-135C76.32,-135 78.36,-135 80.44,-135"/>
<polygon fill="#000000" fill-opacity="0.200000" stroke="#000000" stroke-width="2" stroke-opacity="0.200000" points="80.76,-137.1 86.76,-135 80.76,-132.9 80.76,-137.1"/>
</g>
<!-- src/reportWebVitals.ts&#45;&gt;node_modules/web&#45;vitals -->
<g id="edge10" class="edge">
<title>src/reportWebVitals.ts&#45;&gt;node_modules/web&#45;vitals</title>
<path fill="none" stroke="#000000" stroke-opacity="0.200000" d="M166.56,-125.95C175.3,-123.59 184.96,-121.34 194,-120 230.88,-114.54 273.57,-113.71 303.12,-113.99"/>
<polygon fill="#000000" fill-opacity="0.200000" stroke="#000000" stroke-opacity="0.200000" points="303.2,-116.09 309.23,-114.07 303.25,-111.89 303.2,-116.09"/>
</g>
</g>
</svg>
